<svg width="190" height="700" viewBox="0 0 190 700" fill="none" xmlns="http://www.w3.org/2000/svg">
<path d="M175.316 364.989C169.322 312.745 135.505 263.387 122.304 218.833C122.167 218.372 122.102 217.91 122.107 217.431C122.184 209.49 122.856 137.238 122.373 117.827C122.308 115.199 120.091 113.11 117.376 113.11H96.8731H92.9614H72.4588C69.7437 113.11 67.5265 115.199 67.4609 117.827C66.9784 137.238 67.6516 209.49 67.7272 217.431C67.7319 217.91 67.667 218.372 67.5304 218.833C54.3301 263.387 20.5122 312.744 14.5185 364.989C8.49384 417.505 8.49384 631.455 14.5185 650.906C18.8177 664.785 24.139 670.742 26.8348 673.015C27.9303 673.939 28.5857 675.252 28.5996 676.659L28.6529 682.093C28.6791 684.748 30.9094 686.888 33.6515 686.888H92.9606H96.8723H156.181C158.923 686.888 161.154 684.748 161.18 682.093L161.233 676.659C161.247 675.251 161.902 673.939 162.998 673.015C165.694 670.742 171.015 664.786 175.314 650.906C181.34 631.455 181.34 417.504 175.316 364.989Z" fill="#5A9B6B"/>
<path d="M95.0419 13.1118C84.0332 13.2824 65.5672 13.1118 60.1856 16.3503C57.286 18.0958 56.8058 24.8669 56.5781 28.5972C55.6085 44.501 55.3375 60.4596 55.766 76.3943C55.8586 79.8297 56.2817 83.8587 58.8972 85.5679C60.252 86.4534 62.0052 86.5352 63.1254 87.7766C64.1514 88.9137 64.3397 90.6862 64.4632 92.3112C65.9485 111.877 66.773 169.947 67.7697 181.519C68.4992 189.996 93.9865 192.51 95.0419 192.107V13.1118Z" fill="#F5D57F"/>
<path d="M161.181 682.092L161.236 676.658C161.249 675.251 161.904 673.938 163 673.014C165.695 670.742 171.017 664.786 175.316 650.905C181.34 631.455 181.34 417.504 175.316 364.989C169.322 312.744 135.505 263.387 122.304 218.832C122.167 218.371 122.102 217.91 122.107 217.43C122.155 212.443 122.438 182.088 122.522 155.389C109.142 158.513 98.1584 167.886 99.067 183.22C100.842 213.175 114.859 238.537 124.192 266.405C130.867 286.339 133.596 307.351 135.935 328.243C139.483 359.939 142.213 391.723 144.554 423.53C147.956 469.735 150.537 516.18 146.786 562.357C144.546 589.938 138.332 620.295 115.961 636.583C89.9676 655.509 53.0509 647.771 23.2844 659.928C34.5733 669.712 57.4289 663.438 62.6283 677.442C63.7855 680.558 63.5763 683.755 62.602 686.887H92.9614H96.8731H156.182C158.925 686.888 161.155 684.749 161.181 682.092Z" fill="#42775D"/>
<path d="M163.345 396.572H28.0862V599.168H163.345V396.572Z" fill="#F5F5F7"/>
<path d="M95.042 13.1118C106.051 13.2824 124.517 13.1118 129.897 16.3503C132.798 18.0958 133.277 24.8669 133.505 28.5972C134.475 44.501 134.746 60.4596 134.317 76.3943C134.224 79.8297 133.801 83.8587 131.186 85.5679C129.831 86.4534 128.078 86.5352 126.958 87.7766C125.932 88.9137 125.743 90.6862 125.62 92.3112C124.135 111.877 123.31 169.947 122.313 181.519C121.584 189.996 96.0973 192.51 95.042 192.107V13.1118Z" fill="#F5D57F"/>
<path d="M122.313 181.498C123.31 169.925 124.135 111.855 125.62 92.2893C125.743 90.6643 125.932 88.8918 126.958 87.7547C128.077 86.5133 129.831 86.4315 131.186 85.546C133.801 83.8368 134.224 79.8078 134.317 76.3724C134.746 60.4377 134.475 44.4791 133.505 28.5753C133.277 24.845 132.798 18.0739 129.897 16.3284C126.838 14.4872 119.55 13.7484 111.807 13.4219C112.855 15.0639 113.669 16.929 114.155 19.3531C116.827 32.7016 118.305 46.2887 118.564 59.8989C118.691 66.5874 118.22 74.0286 113.427 78.6953C109.054 82.9521 102.412 83.5898 96.3235 83.992C95.8966 84.0205 95.4689 84.0483 95.042 84.0769V92.2677C96.4516 93.5207 97.6513 95.0106 98.5692 96.7877C99.9318 99.4241 100.467 102.399 100.931 105.331C105.47 133.964 104.892 163.394 99.2771 191.835C106.814 190.956 121.757 187.962 122.313 181.498Z" fill="#F4B67D"/>
<path d="M163.345 397.397H142.943C142.966 397.626 142.983 397.852 143.009 398.084C146.439 427.793 147.682 453.986 134.303 481.858C127.374 496.293 117.572 509.381 105.339 519.747C83.4959 538.258 55.8717 548.033 28.0862 555.563V599.993H163.345V397.397Z" fill="#EEEEF2"/>
<path d="M158.85 403.458H36.2793V406.956H158.85V403.458Z" fill="#89554D"/>
<path d="M156.327 590.093H33.7563V593.591H156.327V590.093Z" fill="#89554D"/>
<path d="M61.6578 488.272C61.6578 487.712 61.4378 487.332 60.9978 487.132C60.5711 486.918 59.8511 486.812 58.8378 486.812V489.872C59.4645 489.872 59.9711 489.825 60.3578 489.732C60.7578 489.638 61.0711 489.478 61.2978 489.252C61.5378 489.012 61.6578 488.685 61.6578 488.272ZM61.9178 493.612C61.9178 493.172 61.8045 492.832 61.5778 492.592C61.3511 492.352 61.0245 492.185 60.5978 492.092C60.1711 491.985 59.5845 491.932 58.8378 491.932V495.392C59.8778 495.392 60.6511 495.265 61.1578 495.012C61.6645 494.745 61.9178 494.278 61.9178 493.612ZM64.3778 490.992C65.6178 491.725 66.2378 492.705 66.2378 493.932C66.2378 494.465 66.1311 494.978 65.9178 495.472C65.7178 495.952 65.4111 496.392 64.9978 496.792C64.5978 497.192 64.0645 497.512 63.3978 497.752C62.7311 497.978 61.9778 498.092 61.1378 498.092H56.4978C55.6845 498.092 55.0978 497.885 54.7378 497.472C54.3911 497.058 54.2178 496.318 54.2178 495.252V486.792C54.2178 486.338 54.2978 485.938 54.4578 485.592C54.6178 485.245 54.8711 484.965 55.2178 484.752C55.5778 484.538 56.0045 484.432 56.4978 484.432H61.0778C62.4111 484.445 63.5178 484.812 64.3978 485.532C65.2911 486.238 65.7378 487.152 65.7378 488.272C65.7378 488.632 65.7045 488.952 65.6378 489.232C65.5845 489.498 65.4978 489.738 65.3778 489.952C65.2578 490.165 65.1178 490.352 64.9578 490.512C64.7978 490.672 64.6045 490.832 64.3778 490.992ZM72.6458 495.972C72.6458 496.772 72.4791 497.332 72.1458 497.652C71.8124 497.958 71.2191 498.112 70.3658 498.112C69.5791 498.112 69.0458 497.932 68.7658 497.572C68.4858 497.198 68.3458 496.592 68.3458 495.752V490.832C68.3458 490.378 68.4258 489.985 68.5858 489.652C68.7458 489.305 68.9791 489.038 69.2858 488.852C69.5924 488.665 69.9524 488.572 70.3658 488.572C71.3791 488.572 72.0458 488.865 72.3658 489.452C73.1391 488.865 73.8858 488.572 74.6058 488.572C76.0058 488.572 76.7058 489.238 76.7058 490.572C76.7058 491.105 76.5524 491.538 76.2458 491.872C75.9391 492.205 75.5391 492.372 75.0458 492.372C74.7524 492.372 74.5124 492.312 74.3258 492.192C74.1524 492.072 73.9858 491.952 73.8258 491.832C73.6791 491.712 73.5058 491.652 73.3058 491.652C73.0124 491.652 72.7924 491.752 72.6458 491.952V495.972ZM83.8488 493.372C83.8488 492.678 83.7621 492.072 83.5888 491.552C83.4154 491.018 83.1621 490.752 82.8288 490.752C82.6021 490.752 82.4021 490.885 82.2288 491.152C82.0554 491.418 81.9288 491.745 81.8488 492.132C81.7688 492.518 81.7288 492.932 81.7288 493.372C81.7288 494.052 81.8221 494.652 82.0088 495.172C82.1954 495.678 82.4621 495.932 82.8088 495.932C83.1554 495.932 83.4154 495.678 83.5888 495.172C83.7621 494.665 83.8488 494.065 83.8488 493.372ZM82.8088 498.252C81.7688 498.252 80.8288 498.065 79.9888 497.692C79.1621 497.318 78.4954 496.758 77.9888 496.012C77.4954 495.265 77.2488 494.392 77.2488 493.392C77.2488 491.872 77.7688 490.665 78.8088 489.772C79.8488 488.878 81.1821 488.432 82.8088 488.432C84.4354 488.432 85.7621 488.878 86.7888 489.772C87.8154 490.665 88.3288 491.872 88.3288 493.392C88.3288 494.898 87.8021 496.085 86.7487 496.952C85.7088 497.818 84.3954 498.252 82.8088 498.252ZM100.886 495.112C101.233 495.112 101.446 495.032 101.526 494.872C101.619 494.698 101.666 494.385 101.666 493.932L101.686 490.352C101.686 489.738 101.859 489.292 102.206 489.012C102.553 488.718 103.139 488.572 103.966 488.572C104.326 488.572 104.619 488.612 104.846 488.692C105.073 488.772 105.266 488.905 105.426 489.092C105.599 489.265 105.726 489.538 105.806 489.912C105.899 490.272 105.966 490.712 106.006 491.232C106.046 491.738 106.066 492.392 106.066 493.192C106.066 493.898 105.953 494.545 105.726 495.132C105.513 495.705 105.233 496.172 104.886 496.532C104.553 496.892 104.159 497.198 103.706 497.452C103.253 497.692 102.799 497.865 102.346 497.972C101.893 498.065 101.439 498.112 100.986 498.112C99.9059 498.112 98.9126 497.772 98.0059 497.092C97.1126 497.772 96.1259 498.112 95.0459 498.112C94.5926 498.112 94.1393 498.065 93.6859 497.972C93.2459 497.865 92.7926 497.692 92.3259 497.452C91.8726 497.198 91.4726 496.892 91.1259 496.532C90.7793 496.172 90.4926 495.705 90.2659 495.132C90.0526 494.545 89.9459 493.898 89.9459 493.192C89.9459 491.872 90.0059 490.898 90.1259 490.272C90.2459 489.632 90.4459 489.192 90.7259 488.952C91.0059 488.698 91.4459 488.572 92.0459 488.572C92.6059 488.572 93.0526 488.638 93.3859 488.772C93.7193 488.905 93.9526 489.098 94.0859 489.352C94.2326 489.605 94.3059 489.938 94.3059 490.352L94.3259 493.912C94.3259 494.112 94.3259 494.258 94.3259 494.352C94.3393 494.432 94.3593 494.538 94.3859 494.672C94.4126 494.792 94.4526 494.878 94.5059 494.932C94.5593 494.972 94.6326 495.012 94.7259 495.052C94.8193 495.092 94.9393 495.112 95.0859 495.112C95.6193 495.112 95.9326 494.958 96.0259 494.652C95.9059 493.852 95.8459 492.992 95.8459 492.072C95.8459 491.298 95.8726 490.698 95.9259 490.272C95.9793 489.832 96.0926 489.478 96.2659 489.212C96.4526 488.945 96.6793 488.772 96.9459 488.692C97.2126 488.612 97.5926 488.572 98.0859 488.572C98.5259 488.572 98.8726 488.612 99.1259 488.692C99.3793 488.772 99.5859 488.945 99.7459 489.212C99.9059 489.478 100.013 489.832 100.066 490.272C100.119 490.698 100.146 491.298 100.146 492.072C100.146 493.005 100.093 493.872 99.9859 494.672C100.079 494.965 100.379 495.112 100.886 495.112ZM112.499 488.432C113.739 488.432 114.772 488.685 115.599 489.192C116.426 489.698 116.839 490.252 116.839 490.852C116.839 491.025 116.766 491.185 116.619 491.332C116.472 491.478 116.286 491.552 116.059 491.552C115.859 491.552 115.639 491.485 115.399 491.352C115.159 491.205 114.932 491.052 114.719 490.892C114.506 490.732 114.226 490.585 113.879 490.452C113.532 490.318 113.166 490.252 112.779 490.252C112.259 490.252 111.999 490.412 111.999 490.732C111.999 490.958 112.132 491.138 112.399 491.272C112.666 491.405 113.052 491.545 113.559 491.692C114.079 491.838 114.472 491.978 114.739 492.112C115.739 492.498 116.426 492.918 116.799 493.372C117.172 493.812 117.359 494.398 117.359 495.132C117.359 495.492 117.259 495.852 117.059 496.212C116.859 496.558 116.559 496.892 116.159 497.212C115.759 497.518 115.212 497.772 114.519 497.972C113.839 498.158 113.059 498.252 112.179 498.252C110.459 498.252 109.172 497.858 108.319 497.072C107.906 496.685 107.699 496.285 107.699 495.872C107.699 495.618 107.779 495.418 107.939 495.272C108.112 495.125 108.352 495.052 108.659 495.052C108.966 495.052 109.432 495.205 110.059 495.512C110.686 495.805 111.266 495.952 111.799 495.952C112.532 495.952 112.899 495.772 112.899 495.412C112.899 495.225 112.706 495.078 112.319 494.972C111.932 494.852 111.426 494.712 110.799 494.552C110.172 494.392 109.672 494.192 109.299 493.952C108.712 493.698 108.299 493.385 108.059 493.012C107.832 492.625 107.719 492.158 107.719 491.612C107.719 490.678 108.159 489.918 109.039 489.332C109.932 488.732 111.086 488.432 112.499 488.432ZM124.334 498.232C122.707 498.232 121.361 497.812 120.294 496.972C119.241 496.132 118.714 494.985 118.714 493.532C118.714 491.958 119.234 490.718 120.274 489.812C121.327 488.892 122.681 488.432 124.334 488.432C125.894 488.432 127.034 488.712 127.754 489.272C128.487 489.818 128.854 490.572 128.854 491.532C128.854 491.718 128.827 491.898 128.774 492.072C128.734 492.245 128.661 492.418 128.554 492.592C128.461 492.752 128.327 492.905 128.154 493.052C127.994 493.185 127.807 493.312 127.594 493.432C127.381 493.538 127.127 493.625 126.834 493.692C126.541 493.745 126.227 493.772 125.894 493.772L123.074 493.792C123.207 494.218 123.447 494.558 123.794 494.812C124.141 495.052 124.581 495.172 125.114 495.172C125.687 495.172 126.274 495.098 126.874 494.952C127.127 494.885 127.401 494.778 127.694 494.632C128.001 494.485 128.221 494.412 128.354 494.412C128.581 494.412 128.754 494.478 128.874 494.612C129.007 494.745 129.074 494.912 129.074 495.112C129.074 495.352 128.967 495.645 128.754 495.992C128.541 496.325 128.241 496.665 127.854 497.012C127.481 497.345 126.981 497.632 126.354 497.872C125.727 498.112 125.054 498.232 124.334 498.232ZM122.974 492.512C123.894 492.498 124.394 492.492 124.474 492.492C124.674 492.492 124.821 492.372 124.914 492.132C124.981 491.958 125.014 491.718 125.014 491.412C125.014 490.572 124.761 490.152 124.254 490.152C124.067 490.152 123.881 490.252 123.694 490.452C123.521 490.652 123.367 490.938 123.234 491.312C123.101 491.672 123.014 492.072 122.974 492.512ZM135.029 495.972C135.029 496.772 134.862 497.332 134.529 497.652C134.195 497.958 133.602 498.112 132.749 498.112C131.962 498.112 131.429 497.932 131.149 497.572C130.869 497.198 130.729 496.592 130.729 495.752V490.832C130.729 490.378 130.809 489.985 130.969 489.652C131.129 489.305 131.362 489.038 131.669 488.852C131.975 488.665 132.335 488.572 132.749 488.572C133.762 488.572 134.429 488.865 134.749 489.452C135.522 488.865 136.269 488.572 136.989 488.572C138.389 488.572 139.089 489.238 139.089 490.572C139.089 491.105 138.935 491.538 138.629 491.872C138.322 492.205 137.922 492.372 137.429 492.372C137.135 492.372 136.895 492.312 136.709 492.192C136.535 492.072 136.369 491.952 136.209 491.832C136.062 491.712 135.889 491.652 135.689 491.652C135.395 491.652 135.175 491.752 135.029 491.952V495.972ZM81.797 517.112C81.797 517.872 81.7037 518.478 81.517 518.932C81.3304 519.372 81.0704 519.678 80.737 519.852C80.417 520.025 79.9904 520.112 79.457 520.112C78.6704 520.112 78.097 519.905 77.737 519.492C77.3904 519.065 77.2104 518.318 77.197 517.252L77.157 509.872H75.457C74.617 509.872 73.9837 509.738 73.557 509.472C73.1437 509.205 72.937 508.732 72.937 508.052C72.937 507.638 73.017 507.312 73.177 507.072C73.3504 506.832 73.6037 506.665 73.937 506.572C74.2704 506.465 74.717 506.412 75.277 506.412H83.837C84.5837 506.412 85.1237 506.545 85.457 506.812C85.7904 507.078 85.957 507.538 85.957 508.192C85.957 508.632 85.857 508.978 85.657 509.232C85.4704 509.472 85.217 509.638 84.897 509.732C84.577 509.825 84.1637 509.872 83.657 509.872H81.797V517.112ZM90.1153 520.232C88.4886 520.232 87.142 519.812 86.0753 518.972C85.022 518.132 84.4953 516.985 84.4953 515.532C84.4953 513.958 85.0153 512.718 86.0553 511.812C87.1086 510.892 88.462 510.432 90.1153 510.432C91.6753 510.432 92.8153 510.712 93.5353 511.272C94.2686 511.818 94.6353 512.572 94.6353 513.532C94.6353 513.718 94.6086 513.898 94.5553 514.072C94.5153 514.245 94.442 514.418 94.3353 514.592C94.242 514.752 94.1086 514.905 93.9353 515.052C93.7753 515.185 93.5886 515.312 93.3753 515.432C93.162 515.538 92.9086 515.625 92.6153 515.692C92.322 515.745 92.0086 515.772 91.6753 515.772L88.8553 515.792C88.9886 516.218 89.2286 516.558 89.5753 516.812C89.922 517.052 90.362 517.172 90.8953 517.172C91.4686 517.172 92.0553 517.098 92.6553 516.952C92.9086 516.885 93.182 516.778 93.4753 516.632C93.782 516.485 94.002 516.412 94.1353 516.412C94.362 516.412 94.5353 516.478 94.6553 516.612C94.7886 516.745 94.8553 516.912 94.8553 517.112C94.8553 517.352 94.7486 517.645 94.5353 517.992C94.322 518.325 94.022 518.665 93.6353 519.012C93.262 519.345 92.762 519.632 92.1353 519.872C91.5086 520.112 90.8353 520.232 90.1153 520.232ZM88.7553 514.512C89.6753 514.498 90.1753 514.492 90.2553 514.492C90.4553 514.492 90.602 514.372 90.6953 514.132C90.762 513.958 90.7953 513.718 90.7953 513.412C90.7953 512.572 90.542 512.152 90.0353 512.152C89.8486 512.152 89.662 512.252 89.4753 512.452C89.302 512.652 89.1486 512.938 89.0153 513.312C88.882 513.672 88.7953 514.072 88.7553 514.512ZM102.43 512.632C102.43 512.325 102.257 512.172 101.91 512.172C101.657 512.172 101.43 512.312 101.23 512.592C101.03 512.872 100.877 513.225 100.77 513.652C100.663 514.065 100.61 514.498 100.61 514.952C100.61 515.618 100.81 516.158 101.21 516.572C101.623 516.985 102.177 517.192 102.87 517.192C103.55 517.192 104.137 517.112 104.63 516.952C104.83 516.898 105.07 516.798 105.35 516.652C105.643 516.505 105.85 516.432 105.97 516.432C106.157 516.432 106.31 516.465 106.43 516.532C106.55 516.598 106.63 516.678 106.67 516.772C106.723 516.865 106.75 516.965 106.75 517.072C106.75 517.258 106.683 517.485 106.55 517.752C106.43 518.018 106.237 518.298 105.97 518.592C105.703 518.885 105.39 519.158 105.03 519.412C104.683 519.652 104.25 519.852 103.73 520.012C103.21 520.172 102.663 520.252 102.09 520.252C100.437 520.252 99.0765 519.812 98.0098 518.932C96.9432 518.038 96.4098 516.818 96.4098 515.272C96.4098 514.285 96.6498 513.425 97.1298 512.692C97.6232 511.945 98.2965 511.385 99.1498 511.012C100.003 510.625 100.983 510.432 102.09 510.432C103.143 510.432 104.01 510.558 104.69 510.812C105.383 511.052 105.877 511.378 106.17 511.792C106.463 512.205 106.61 512.698 106.61 513.272C106.61 513.525 106.557 513.785 106.45 514.052C106.357 514.318 106.203 514.585 105.99 514.852C105.79 515.118 105.49 515.338 105.09 515.512C104.69 515.672 104.223 515.752 103.69 515.752C103.45 515.752 103.25 515.738 103.09 515.712C102.943 515.685 102.783 515.632 102.61 515.552C102.45 515.458 102.33 515.312 102.25 515.112C102.17 514.912 102.13 514.658 102.13 514.352C102.13 514.085 102.177 513.765 102.27 513.392C102.377 513.005 102.43 512.752 102.43 512.632ZM114.743 514.752C114.743 513.992 114.449 513.612 113.863 513.612C113.756 513.612 113.656 513.625 113.563 513.652C113.483 513.678 113.403 513.712 113.323 513.752C113.256 513.792 113.189 513.852 113.123 513.932C113.069 513.998 113.016 514.078 112.963 514.172C112.923 514.252 112.889 514.352 112.863 514.472C112.849 514.592 112.842 514.725 112.842 514.872V517.072C112.842 518.165 112.663 518.945 112.303 519.412C111.956 519.865 111.423 520.092 110.703 520.092C109.956 520.092 109.409 519.885 109.063 519.472C108.716 519.045 108.543 518.298 108.543 517.232L108.503 508.712C108.503 507.885 108.703 507.278 109.103 506.892C109.503 506.505 110.036 506.312 110.703 506.312C111.409 506.312 111.943 506.458 112.303 506.752C112.663 507.045 112.842 507.638 112.842 508.532V511.432C113.829 510.832 115.029 510.532 116.443 510.532C117.083 510.532 117.596 510.698 117.983 511.032C118.369 511.352 118.656 511.865 118.843 512.572C119.029 513.278 119.123 514.205 119.123 515.352C119.123 515.938 119.109 516.445 119.083 516.872C119.069 517.298 119.043 517.692 119.003 518.052C118.963 518.398 118.903 518.685 118.823 518.912C118.743 519.138 118.649 519.332 118.543 519.492C118.436 519.652 118.296 519.778 118.122 519.872C117.963 519.952 117.783 520.012 117.583 520.052C117.383 520.092 117.143 520.112 116.863 520.112C116.116 520.112 115.576 519.978 115.243 519.712C114.923 519.432 114.763 519.012 114.763 518.452L114.743 514.752Z" fill="black"/>
</svg>
