<svg width="224" height="700" viewBox="0 0 224 700" fill="none" xmlns="http://www.w3.org/2000/svg">
<path d="M174.339 312.743C173.982 313.227 173.624 313.71 173.264 314.193C172.777 314.848 172.298 315.503 171.806 316.158C172.444 317.823 173.083 319.487 173.717 321.137C187.275 356.452 199.486 388.627 199.486 431.369V602.369C203.58 602.118 206.068 606.352 211.231 606.286L213.518 424.242C213.518 382.322 199.337 350.795 183.611 316.152C181.95 312.491 180.269 308.788 178.587 305.042C178.755 305.416 178.923 305.803 179.091 306.177C177.543 308.367 175.95 310.556 174.339 312.743Z" fill="#546B3E"/>
<path d="M201.562 574.567C200.879 573.615 200.185 572.57 199.487 571.455V652.906C199.487 658.115 198.291 662.626 196.172 666.514C200.623 664.139 204.43 661.318 207.339 657.977C211.11 648.945 211.997 633.427 211.997 623.38C211.997 610.026 211.475 588.382 201.562 574.567Z" fill="#546B3E"/>
<path d="M151.241 341.426C149.649 343.243 148.038 345.049 146.412 346.847C146.119 347.17 145.826 347.493 145.532 347.816C144.077 349.415 142.61 351.006 141.129 352.587C140.838 352.897 140.55 353.209 140.259 353.518C136.783 357.211 133.243 360.851 129.643 364.427C129.248 364.819 128.849 365.207 128.452 365.598C127.096 366.936 125.732 368.264 124.361 369.582C123.798 370.123 123.234 370.661 122.668 371.199C121.384 372.419 120.094 373.629 118.797 374.832C118.262 375.328 117.73 375.827 117.193 376.32C115.39 377.975 113.58 379.617 111.756 381.234C109.764 379.467 107.788 377.669 105.82 375.857C105.373 375.445 104.929 375.031 104.484 374.617C102.654 372.917 100.834 371.2 99.0289 369.464C98.9311 369.37 98.8325 369.277 98.7345 369.183C89.0986 359.901 79.8325 350.137 71.1105 340.102C63.8583 370.71 57.951 400.312 57.951 437.999V558.325C95.5756 559.972 133.256 559.908 170.875 558.098V437.999C170.875 398.324 164.345 367.615 156.563 335.246C154.862 337.259 153.136 339.262 151.391 341.255C151.342 341.312 151.291 341.369 151.241 341.426Z" fill="#546B3E"/>
<path d="M24.007 431.369C24.007 387.181 37.0662 354.334 51.1721 317.598C51.3534 317.125 51.5362 316.645 51.7177 316.17C49.2146 312.847 46.781 309.515 44.424 306.179C44.4618 306.096 44.4996 306.009 44.5372 305.925C44.3097 306.423 42.8058 309.74 41.4774 312.663C25.128 348.701 10 380.926 10 424.241V641.516C10 652.981 16.9286 660.931 27.3213 666.488C25.2031 662.601 24.0068 658.115 24.0068 652.905V431.369H24.007Z" fill="#546B3E"/>
<path d="M170.876 630.109C133.256 631.919 95.576 631.983 57.9515 630.336V663.523C57.9515 668.284 58.5747 672.445 59.6713 676.109C79.4846 679.2 100.27 679.175 111.759 679.175C124.345 679.175 148.047 679.2 169.43 675.137C170.352 671.698 170.876 667.86 170.876 663.523V630.109Z" fill="#546B3E"/>
<path d="M86.6763 86.4507C86.5277 90.1091 86.3535 94.084 86.1507 98.3223L86.1423 98.5135C86.1415 98.527 86.1404 98.5416 86.1396 98.5551C86.0108 101.232 85.87 104.012 85.7171 106.881C85.7058 107.44 85.6904 107.992 85.6904 108.569C85.6904 110.658 88.0549 110.777 89.9813 111.584C90.826 111.937 91.7992 111.745 92.6568 111.425C92.6984 111.41 92.7359 111.386 92.7772 111.37C94.3252 93.379 95.4003 78.4547 95.9918 69.7429H90.6758L90.4262 69.718C89.355 68.771 88.4577 67.4499 87.8345 66.0046C86.6134 63.1633 86.3392 59.8237 86.3392 56.5837C86.3392 55.5619 86.364 54.4901 86.5882 53.4934C86.8124 52.5464 87.2114 51.6491 87.5604 50.7518C90.2269 43.9478 90.7506 35.848 88.9312 28.6207C88.5822 27.2499 88.1584 25.8791 88.1335 24.4335C88.1084 23.362 88.3577 22.2154 88.8812 21.4429C88.258 21.4928 87.7346 21.5677 87.2859 21.6174C86.6628 21.717 86.0396 21.7919 85.4916 22.0909C84.2953 22.7389 83.7472 24.2342 83.7969 25.5801C83.8469 26.9509 84.3453 28.2469 84.7442 29.5426C86.8873 36.3715 86.2892 44.0226 83.1241 50.4525C82.7006 51.3001 82.2268 52.1224 81.9778 53.0445C81.7033 53.9915 81.6785 54.9885 81.6785 55.9606C81.6785 59.0261 82.0029 62.1663 83.4482 64.858C84.3196 66.4916 85.6766 67.9307 87.2889 68.8118C87.1676 73.1017 86.9748 79.1003 86.6809 86.3597L86.6763 86.4507Z" fill="#546B3E"/>
<path d="M87.335 268.152C83.6715 287.89 79.4846 305.461 75.4219 322.209C74.7844 324.837 74.1532 327.438 73.526 330.031C85.4518 343.555 98.3066 356.574 111.757 368.501C126.778 355.181 141.092 340.52 154.154 325.288C150.054 308.396 145.766 290.783 142.015 271.018C140.744 264.314 139.548 257.335 138.426 250.083C133.173 215.999 129.338 160.642 126.986 118.688C126.977 118.675 126.972 118.66 126.963 118.647C125.583 116.616 121.431 117.002 121.583 119.453C121.695 116.489 117.181 115.651 114.728 117.317C112.275 118.984 110.851 121.885 108.343 123.469C106.142 121.991 106.968 117.096 104.319 117.224C102.236 117.325 102.346 120.518 101.614 122.553C99.242 163.99 95.4807 217.035 90.4005 250.083C89.4286 256.314 88.4068 262.345 87.335 268.152ZM111.758 279.154C124.729 279.154 135.245 295.986 135.245 316.75C135.245 337.515 124.729 354.347 111.758 354.347C98.7863 354.347 88.271 337.515 88.271 316.75C88.271 295.986 98.7863 279.154 111.758 279.154Z" fill="#FFD659"/>
<path d="M69.6899 264.513C71.3597 258.781 72.9547 252.899 74.4503 246.743C81.3605 218.366 86.6957 174.982 90.3905 137.321C89.3865 136.568 88.6045 135.455 87.899 134.387C86.7227 132.607 85.5461 130.826 84.3695 129.046C83.5311 141.318 82.4777 154.369 81.1504 167.433L81.1055 167.871C80.8881 169.999 80.6636 172.126 80.4319 174.25C80.3938 174.6 80.3565 174.952 80.3179 175.302C80.2152 176.234 80.1102 177.163 80.0043 178.093C79.9195 178.841 79.833 179.586 79.7463 180.332C79.6556 181.111 79.5659 181.891 79.4733 182.668C79.305 184.075 79.1329 185.478 78.9576 186.878C78.9257 187.132 78.896 187.388 78.8639 187.642C78.8339 187.881 78.8004 188.116 78.7699 188.355C78.4919 190.543 78.2054 192.717 77.9096 194.875C77.8653 195.198 77.8205 195.52 77.7759 195.843C77.465 198.088 77.1436 200.314 76.8127 202.518C76.7751 202.769 76.7371 203.02 76.6992 203.271C76.3543 205.548 75.998 207.798 75.6307 210.02C75.604 210.184 75.5769 210.348 75.5497 210.512C75.1661 212.818 74.7707 215.091 74.3623 217.325L74.3199 217.56C72.6052 226.917 70.6737 235.598 68.4936 243.18C67.2924 247.332 66.0267 251.331 64.7313 255.272C64.1451 257.058 63.5668 258.86 62.9631 260.61C62.1612 262.927 61.3417 265.206 60.5127 267.464C60.3941 267.787 60.2723 268.103 60.1529 268.426C59.4609 270.296 58.7619 272.149 58.0542 273.982C57.8449 274.523 57.6339 275.058 57.4232 275.596C56.7782 277.247 56.1289 278.886 55.4741 280.508C55.2723 281.007 55.0706 281.504 54.8677 282.001C54.1522 283.756 53.4324 285.497 52.7077 287.221C52.5883 287.506 52.4697 287.791 52.35 288.075C50.8925 291.529 49.4202 294.918 47.9435 298.271C50.2221 301.396 52.5659 304.516 54.9674 307.625C60.0516 294.163 65.1418 280.032 69.6899 264.513Z" fill="#FFD659"/>
<path d="M149.068 246.743C150.788 253.896 152.682 260.725 154.676 267.304C158.979 281.733 163.765 294.964 168.552 307.617C170.953 304.508 173.296 301.389 175.574 298.265C176.577 300.54 177.582 302.804 178.587 305.041C177.389 302.375 176.191 299.687 174.996 296.964C174.617 296.1 174.242 295.224 173.864 294.354C172.89 292.113 171.922 289.846 170.959 287.557C170.561 286.613 170.163 285.677 169.768 284.724C168.605 281.917 167.457 279.063 166.325 276.171C165.892 275.069 165.467 273.953 165.04 272.838C164.122 270.437 163.218 268.002 162.329 265.534C162.063 264.797 161.782 264.095 161.519 263.352C159.877 258.735 158.32 253.936 156.815 249.042C156.216 247.094 155.6 245.175 155.025 243.179C145.715 210.848 140.896 158.655 138.446 118.475C136.39 121.809 134.335 125.143 132.279 128.477C135.985 168.002 141.61 216.116 149.068 246.743Z" fill="#FFD659"/>
<path d="M57.9516 630.336C55.0719 630.21 52.1934 630.072 49.3146 629.926C44.3754 629.682 39.4367 629.421 34.5002 629.11C34.5005 605.107 34.5005 581.104 34.5002 557.1C39.4389 557.41 44.3802 557.664 49.3213 557.915C52.198 558.057 55.0741 558.199 57.9513 558.325V437.999C57.9513 400.311 63.8583 370.709 71.1107 340.102C71.1148 340.085 71.1183 340.069 71.1226 340.052C70.6683 339.529 70.2259 339.002 69.7748 338.477C69.0868 337.678 68.3999 336.879 67.7192 336.076C67.4567 335.766 67.189 335.458 66.9273 335.149C62.9086 330.402 59.0139 325.609 55.2645 320.783C54.0785 319.263 52.9032 317.742 51.7531 316.215C51.7415 316.2 51.7299 316.185 51.7186 316.17C51.7183 316.17 51.7183 316.171 51.7183 316.171C51.5368 316.645 51.3539 317.126 51.1727 317.599C37.0668 354.334 24.0076 387.182 24.0076 431.37V652.907C24.0076 658.116 25.2036 662.602 27.3221 666.489C36.2694 671.275 47.7839 674.24 59.6719 676.109C58.5753 672.446 57.9521 668.284 57.9521 663.523V630.336H57.9516Z" fill="#74825C"/>
<path d="M199.487 571.455C190.051 556.403 195.43 530.238 195.43 508.372C195.43 484.886 185.388 449.312 185.388 449.312H185.392C185.392 448.332 190.974 597.759 199.487 597.237L199.487 431.37C199.487 388.627 187.275 356.453 173.717 321.137C173.083 319.487 172.445 317.823 171.806 316.158C171.806 316.158 171.805 316.157 171.805 316.157C170.659 317.679 169.496 319.199 168.32 320.716C168.32 320.717 168.319 320.718 168.318 320.718C166.592 322.946 164.828 325.166 163.042 327.379C162.726 327.77 162.41 328.16 162.092 328.551C160.274 330.79 158.437 333.023 156.562 335.242C156.563 335.243 156.563 335.245 156.563 335.246C164.345 367.615 170.876 398.324 170.876 437.999V558.098C176.925 557.808 182.973 557.48 189.018 557.1C189.018 581.104 189.018 605.107 189.018 629.111C182.973 629.491 176.925 629.818 170.876 630.109V663.524C170.876 667.86 170.352 671.698 169.43 675.138C179.275 673.269 188.621 670.527 196.147 666.515H196.172C198.291 662.627 199.487 658.116 199.487 652.907L199.487 571.455Z" fill="#405A30"/>
<path d="M124.561 69.7432C124.899 77.6584 125.489 90.7095 126.325 106.553C126.505 106.573 126.686 106.585 126.865 106.611C128.083 106.788 129.32 107.182 130.434 107.763C129.051 91.3894 128.079 77.8667 127.527 69.7432H124.561Z" fill="#405A30"/>
<path d="M51.7182 316.169C52.7973 313.351 53.8823 310.498 54.9676 307.625C52.5664 304.516 50.2224 301.396 47.9437 298.271C46.8095 300.846 45.6732 303.401 44.5371 305.925C44.4996 306.009 44.4618 306.096 44.424 306.18C46.7809 309.515 49.2162 312.846 51.7182 316.169Z" fill="#373841"/>
<path d="M168.552 307.617C169.635 310.479 170.718 313.321 171.795 316.13C172.282 315.484 172.782 314.84 173.264 314.193C173.624 313.709 173.982 313.227 174.339 312.743C175.951 310.556 177.543 308.367 179.091 306.176C178.923 305.802 178.755 305.416 178.587 305.041C177.582 302.804 176.577 300.54 175.574 298.264C173.296 301.389 170.953 304.508 168.552 307.617Z" fill="#373841"/>
<path d="M111.757 368.501C98.3067 356.574 85.452 343.555 73.5261 330.031C72.7161 333.382 71.9133 336.716 71.1276 340.032C79.8529 350.085 89.0944 359.883 98.7348 369.182C98.8326 369.276 98.9312 369.369 99.0292 369.463C100.834 371.201 102.655 372.915 104.484 374.617C104.929 375.03 105.374 375.444 105.821 375.856C107.787 377.669 109.764 379.466 111.757 381.234C113.58 379.616 115.391 377.974 117.193 376.319C117.73 375.826 118.263 375.327 118.797 374.831C120.094 373.629 121.385 372.419 122.669 371.198C123.234 370.66 123.798 370.122 124.361 369.581C125.733 368.263 127.097 366.935 128.452 365.598C128.849 365.206 129.248 364.819 129.644 364.426C133.243 360.85 136.784 357.21 140.259 353.518C140.551 353.208 140.839 352.897 141.129 352.587C142.609 351.005 144.078 349.415 145.532 347.815C145.826 347.492 146.119 347.17 146.412 346.847C148.038 345.049 149.649 343.243 151.241 341.426C151.291 341.368 151.342 341.312 151.392 341.255C153.137 339.26 154.861 337.256 156.563 335.241C155.81 332.11 155.049 328.969 154.278 325.797C154.237 325.628 154.195 325.456 154.154 325.287C141.092 340.52 126.778 355.181 111.757 368.501Z" fill="#373841"/>
<path d="M75.422 322.209C79.4847 305.461 83.6717 287.89 87.3352 268.152C88.4069 262.345 89.4288 256.313 90.4006 250.083C95.4805 217.036 99.2418 163.991 101.614 122.553C101.289 123.455 100.8 124.131 99.8782 124.206C98.6341 123.516 97.3891 122.825 96.1453 122.135C96.753 125.447 98.3026 128.629 98.1614 131.993C98.0198 135.358 95.074 138.99 91.8365 138.067C91.3012 137.914 90.8271 137.648 90.3906 137.321C86.6958 174.982 81.3606 218.366 74.4504 246.743C72.9549 252.899 71.3601 258.781 69.69 264.513C65.1422 280.033 60.0518 294.163 54.9678 307.625C60.8151 315.197 67.0446 322.682 73.5261 330.032C74.1533 327.438 74.7846 324.837 75.422 322.209Z" fill="#FFE596"/>
<path d="M73.526 330.032C67.0445 322.682 60.815 315.197 54.9677 307.625C53.8824 310.498 52.7976 313.352 51.7183 316.17L51.7269 316.181C53.7027 318.804 55.7496 321.416 57.81 324.023C58.7854 325.252 59.7597 326.483 60.7531 327.707C61.4778 328.604 62.2236 329.493 62.9575 330.387C64.2691 331.978 65.5918 333.566 66.927 335.149C67.1887 335.459 67.4564 335.766 67.7189 336.076C68.3994 336.879 69.087 337.678 69.7745 338.478C70.2256 339.002 70.668 339.53 71.1223 340.052C71.1239 340.046 71.1256 340.039 71.1272 340.033C71.9132 336.716 72.716 333.382 73.526 330.032Z" fill="#56535C"/>
<path d="M168.552 307.617C163.96 313.563 159.146 319.466 154.154 325.287C154.195 325.457 154.236 325.628 154.277 325.797C155.049 328.969 155.809 332.11 156.562 335.242L156.685 335.092C158.485 332.959 160.251 330.814 161.999 328.663C162.379 328.196 162.757 327.729 163.135 327.261C164.888 325.087 166.62 322.908 168.316 320.72C168.32 320.715 168.323 320.71 168.327 320.705C169.5 319.191 170.661 317.675 171.805 316.156C171.802 316.148 171.799 316.139 171.795 316.131C170.718 313.321 169.635 310.479 168.552 307.617Z" fill="#2C2B39"/>
<path d="M98.7747 27.7985C100.046 35.3999 99.6718 43.8983 97.8026 51.0013C97.5536 51.9483 97.2792 52.8953 97.1298 53.8923C96.9804 54.939 96.9556 56.0605 96.9556 57.1323C96.9556 60.5216 97.1552 64.036 98.0022 67.0266C98.2767 68.0233 98.6502 68.9455 99.1235 69.7428H104.265C103.935 77.435 103.366 89.9796 102.565 105.222C102.781 105.14 102.989 105.037 103.213 104.971C107.572 103.68 112.119 105.899 116.64 106.383C119.854 106.727 123.12 106.195 126.326 106.553C125.489 90.7089 124.899 77.6581 124.561 69.7428H127.528C128.079 77.8663 129.05 91.3891 130.434 107.763C132.409 108.794 133.987 110.427 134.316 112.584C136.662 108.801 137.652 107.258 137.1 92.936C137.046 91.7259 136.995 90.535 136.946 89.3789C136.945 89.3692 136.945 89.3603 136.944 89.3503C136.58 80.7473 136.351 73.6923 136.214 68.8255C137.837 67.9458 139.195 66.5007 140.071 64.8579C141.492 62.1663 141.841 59.026 141.841 55.9605C141.841 54.9887 141.816 53.9914 141.542 53.0444C141.293 52.1223 140.819 51.3001 140.395 50.4525C137.23 44.0225 136.632 36.3714 138.75 29.5426C139.174 28.2466 139.672 26.9509 139.722 25.5801C139.747 24.2341 139.224 22.7388 138.027 22.0908C137.479 21.7915 136.831 21.717 136.233 21.6173C135.784 21.5676 135.261 21.4928 134.638 21.4428C135.161 22.2404 135.41 23.3619 135.386 24.4335C135.36 25.8791 134.912 27.2499 134.588 28.6207C132.768 35.8482 133.267 43.948 135.959 50.7518C136.308 51.6488 136.706 52.5461 136.931 53.4934C137.155 54.4903 137.18 55.5618 137.18 56.5837C137.18 59.8236 136.906 63.1632 135.685 66.0045C135.062 67.4499 134.164 68.771 133.093 69.718H133.068L132.818 69.7428H130.326C130.775 68.9455 131.149 68.0233 131.423 67.0266C132.295 64.036 132.47 60.5216 132.47 57.1323C132.47 56.0605 132.47 54.939 132.295 53.8923C132.145 52.8953 131.871 51.9486 131.622 51.0013C129.753 43.8983 129.404 35.3996 130.675 27.7985C130.899 26.378 131.199 24.9323 131.223 23.4119C131.249 22.6394 131.173 21.8669 130.974 21.1938C122.75 20.7951 108.768 20.7203 98.5001 20.9693C98.2761 21.6921 98.1765 22.5643 98.2013 23.4119C98.2264 24.9323 98.5252 26.378 98.7747 27.7985Z" fill="#546B3E"/>
<path d="M88.9303 28.6214C90.7498 35.8489 90.2261 43.9487 87.5595 50.7524C87.2106 51.6495 86.8116 52.5468 86.5874 53.494C86.3632 54.491 86.3384 55.5625 86.3384 56.5844C86.3384 59.8243 86.6125 63.1639 87.8337 66.0052C88.4568 67.4506 89.3539 68.7717 90.4254 69.7187L90.675 69.7435H95.991C95.3997 78.4553 94.3244 93.3799 92.7764 111.37C96.3772 109.972 98.9832 106.585 102.565 105.223C103.366 89.98 103.935 77.4354 104.265 69.7432H99.1234C98.6502 68.9459 98.2766 68.0237 98.0022 67.027C97.1549 64.0364 96.9555 60.522 96.9555 57.1327C96.9555 56.0609 96.9804 54.9394 97.1298 53.8927C97.2791 52.8958 97.5536 51.949 97.8026 51.0018C99.672 43.8987 100.046 35.4 98.7747 27.7989C98.5251 26.3784 98.2264 24.9328 98.2015 23.4123C98.1767 22.565 98.2764 21.6928 98.5003 20.9697C94.5629 21.0945 91.173 21.2439 88.8806 21.4432C88.3572 22.2157 88.1079 23.3623 88.133 24.4339C88.1576 25.8798 88.5814 27.2506 88.9303 28.6214Z" fill="#74825C"/>
<path d="M130.676 27.7983C129.404 35.3997 129.753 43.8981 131.622 51.0012C131.872 51.9482 132.146 52.8952 132.295 53.8922C132.47 54.9388 132.47 56.0603 132.47 57.1321C132.47 60.5214 132.295 64.0358 131.423 67.0265C131.149 68.0232 130.775 68.9453 130.326 69.7427H132.818L133.068 69.7178H133.093C134.165 68.7708 135.062 67.4497 135.685 66.0044C136.906 63.1631 137.18 59.8235 137.18 56.5835C137.18 55.5617 137.155 54.4899 136.931 53.4932C136.707 52.5462 136.308 51.6489 135.959 50.7516C133.267 43.9476 132.769 35.8478 134.588 28.6205C134.912 27.2497 135.361 25.8789 135.386 24.4333C135.411 23.3618 135.162 22.2403 134.638 21.4427C133.616 21.343 132.395 21.2682 130.974 21.1934C131.174 21.8665 131.249 22.639 131.224 23.4115C131.199 24.9322 130.9 26.3778 130.676 27.7983Z" fill="#405A30"/>
<path d="M90.3905 137.321C90.827 137.648 91.301 137.914 91.8364 138.066C95.0736 138.99 98.0197 135.357 98.1612 131.993C98.3025 128.629 96.7529 125.446 96.1451 122.134C97.389 122.825 98.6339 123.515 99.878 124.206C100.8 124.131 101.289 123.455 101.614 122.553C102.346 120.518 102.236 117.325 104.319 117.224C106.968 117.096 106.142 121.991 108.343 123.469C110.851 121.885 112.275 118.984 114.728 117.317C117.181 115.65 121.695 116.489 121.583 119.453C121.431 117.003 125.583 116.616 126.963 118.647C126.972 118.66 126.977 118.675 126.986 118.689C129.338 160.643 133.173 215.999 138.426 250.083C139.548 257.335 140.744 264.314 142.015 271.018C145.766 290.783 150.054 308.396 154.154 325.288C159.146 319.466 163.96 313.563 168.552 307.617C163.765 294.964 158.979 281.734 154.676 267.304C152.682 260.725 150.788 253.896 149.068 246.743C141.61 216.116 135.985 168.003 132.279 128.478C134.334 125.144 136.39 121.809 138.445 118.475C138.506 118.377 138.567 118.278 138.628 118.179C138.258 120.405 141.158 121.778 143.399 121.522C145.641 121.266 147.906 120.209 150.065 120.864C154.591 122.237 155.092 129.865 159.765 130.591C162.422 125.525 157.259 120.166 153.956 115.494C153.522 114.878 153.095 114.176 153.167 113.424C153.244 112.614 153.872 111.984 154.401 111.365C157.119 108.189 157.888 103.47 156.319 99.5962C155.854 98.4463 155.191 97.3626 154.29 96.5113C149.816 92.2849 142.765 91.3495 136.944 89.3509C136.945 89.3607 136.945 89.3699 136.946 89.3796C137.007 90.6496 137.058 91.8273 137.1 92.9366C137.652 107.259 136.662 108.801 134.316 112.585C133.987 110.428 132.409 108.794 130.434 107.764C129.32 107.183 128.083 106.788 126.865 106.611C126.686 106.585 126.505 106.574 126.325 106.553C123.12 106.196 119.854 106.728 116.64 106.383C112.119 105.899 107.572 103.68 103.213 104.972C102.988 105.038 102.781 105.14 102.565 105.223C98.9834 106.585 96.3774 109.972 92.7763 111.37C92.7353 111.387 92.6975 111.41 92.6559 111.426C91.7986 111.746 90.8253 111.938 89.9804 111.584C88.054 110.777 85.6895 110.659 85.6895 108.57C85.6895 107.993 85.7049 107.441 85.7162 106.882C85.7765 103.883 85.9726 101.123 86.1387 98.556C86.1398 98.5425 86.1406 98.5279 86.1414 98.5144L86.1498 98.3231L86.6754 86.4516L86.6792 86.3611C86.6789 86.3611 86.6789 86.3611 86.6789 86.3611C81.5123 85.5656 78.2893 93.4323 77.8518 98.6413C77.7356 100.025 77.9114 101.478 77.3637 102.754C75.7128 106.602 68.7253 106.554 68.2764 110.716C67.8918 114.28 72.9174 118.403 70.0351 120.532C70.0129 121.77 71.6601 122.349 72.8588 122.045C74.0581 121.74 75.1237 120.941 76.3573 120.852C78.5678 120.692 80.2163 122.764 81.438 124.612C82.415 126.091 83.392 127.569 84.3687 129.047C85.545 130.827 86.7216 132.607 87.8982 134.387C88.6045 135.455 89.3865 136.568 90.3905 137.321Z" fill="#F4B749"/>
<path d="M111.758 354.347C124.73 354.347 135.245 337.515 135.245 316.751C135.245 295.986 124.73 279.154 111.758 279.154C98.7865 279.154 88.271 295.986 88.271 316.751C88.271 337.515 98.7865 354.347 111.758 354.347Z" fill="#373841"/>
<path d="M57.9516 558.325C55.0744 558.199 52.198 558.057 49.3216 557.915C44.38 557.671 39.4394 557.41 34.5005 557.1C34.5008 581.103 34.5008 605.107 34.5005 629.11C39.437 629.421 44.3757 629.682 49.3149 629.925C52.1937 630.067 55.0725 630.209 57.9518 630.336L57.9516 558.325Z" fill="white"/>
<path d="M170.876 630.109C176.925 629.818 182.973 629.491 189.018 629.11C189.018 605.107 189.018 581.103 189.018 557.1C182.973 557.48 176.925 557.807 170.876 558.098V630.109Z" fill="#EAE8E2"/>
<path d="M103.305 591.386C102.732 591.386 102.305 591.552 102.025 591.886C101.759 592.219 101.625 592.812 101.625 593.666V596.026H104.945V593.626C104.945 593.066 104.879 592.619 104.745 592.286C104.612 591.939 104.425 591.706 104.185 591.586C103.959 591.452 103.665 591.386 103.305 591.386ZM104.945 598.786H101.625V599.846C101.625 600.526 101.445 601.026 101.085 601.346C100.725 601.666 100.105 601.826 99.2253 601.826C98.8519 601.826 98.5453 601.772 98.3053 601.666C98.0653 601.559 97.8519 601.379 97.6653 601.126C97.4919 600.872 97.3586 600.506 97.2653 600.026C97.1853 599.532 97.1186 598.946 97.0653 598.266C97.0253 597.572 97.0053 596.699 97.0053 595.646C97.0053 594.726 97.0986 593.886 97.2853 593.126C97.4853 592.352 97.7453 591.699 98.0653 591.166C98.3986 590.632 98.7719 590.166 99.1853 589.766C99.5986 589.352 100.045 589.032 100.525 588.806C101.019 588.579 101.492 588.412 101.945 588.306C102.412 588.186 102.879 588.126 103.345 588.126C103.905 588.126 104.459 588.206 105.005 588.366C105.552 588.512 106.105 588.772 106.665 589.146C107.225 589.519 107.712 589.986 108.125 590.546C108.552 591.092 108.899 591.806 109.165 592.686C109.432 593.566 109.565 594.552 109.565 595.646C109.565 597.406 109.499 598.712 109.365 599.566C109.245 600.406 109.032 600.992 108.725 601.326C108.432 601.659 107.972 601.826 107.345 601.826C106.465 601.826 105.845 601.666 105.485 601.346C105.125 601.026 104.945 600.526 104.945 599.846V598.786ZM118.964 592.866C118.964 592.372 118.917 591.986 118.824 591.706C118.73 591.412 118.564 591.192 118.324 591.046C118.097 590.899 117.844 590.806 117.564 590.766C117.297 590.712 116.924 590.686 116.444 590.686V595.086C116.817 595.086 117.144 595.052 117.424 594.986C117.717 594.919 117.984 594.806 118.224 594.646C118.464 594.486 118.644 594.259 118.764 593.966C118.897 593.659 118.964 593.292 118.964 592.866ZM116.444 598.826C116.444 599.906 116.244 600.679 115.844 601.146C115.444 601.599 114.83 601.826 114.004 601.826C113.177 601.826 112.57 601.619 112.184 601.206C111.797 600.779 111.604 600.032 111.604 598.966V590.526C111.604 589.712 111.824 589.112 112.264 588.726C112.704 588.326 113.284 588.126 114.004 588.126H117.564C118.43 588.126 119.23 588.246 119.964 588.486C120.697 588.712 121.33 589.039 121.864 589.466C122.41 589.879 122.83 590.406 123.124 591.046C123.43 591.672 123.584 592.372 123.584 593.146C123.584 594.092 123.31 594.919 122.764 595.626C122.217 596.319 121.497 596.839 120.604 597.186C119.71 597.532 118.704 597.706 117.584 597.706H116.444V598.826ZM130.387 598.826C130.387 599.866 130.194 600.626 129.807 601.106C129.421 601.586 128.834 601.826 128.047 601.826C127.274 601.826 126.701 601.619 126.327 601.206C125.967 600.792 125.787 600.052 125.787 598.986V590.526C125.787 588.926 126.541 588.126 128.047 588.126C128.821 588.126 129.401 588.272 129.787 588.566C130.187 588.859 130.387 589.452 130.387 590.346V598.826Z" fill="black"/>
</svg>
