<svg width="234" height="700" viewBox="0 0 234 700" fill="none" xmlns="http://www.w3.org/2000/svg">
<path d="M61.0976 318.986C65.4992 308.344 69.8334 297.164 73.7457 285.072C75.4662 279.794 77.1015 274.347 78.6364 268.681C90.4922 224.911 90.6733 137.423 90.2569 103.624C90.1633 103.614 90.0692 103.607 89.9762 103.596C86.2856 99.2195 84.5725 91.324 86.5347 85.998C87.9051 82.3072 90.132 79.3638 90.5058 75.1901C90.7707 72.0911 90.7237 68.9608 90.9886 65.846C91.2222 63.1831 91.7206 60.5201 91.2377 57.8414C90.7394 55.1161 89.3846 52.7488 88.6681 50.1014C87.5934 46.1458 88.0607 41.6917 89.7115 38.0476C91.5337 34.0608 94.8195 32.6436 97.3111 29.4511C99.429 26.7413 100.706 23.0037 103.338 21.0259C101.485 21.2908 100.052 21.6333 99.2734 22.0538C95.7536 23.8915 94.0873 27.4888 91.2688 30.0895C87.9984 33.1109 83.7001 34.45 81.3176 38.2345C79.1527 41.6762 78.5456 45.8964 79.9627 49.6496C80.8974 52.1412 82.6725 54.3994 83.3109 56.9688C83.9496 59.5074 83.2954 62.0303 82.9994 64.5529C82.6412 67.4963 82.7038 70.4552 82.3453 73.3986C81.8627 77.3387 78.9348 80.1417 77.1594 83.6302C74.0433 89.7411 78.0037 99.4159 85.0539 102.422C85.5832 122.541 87.2264 219.589 71.4355 268.68C69.6142 274.347 67.6748 279.794 65.6341 285.072C60.6763 297.923 55.1784 309.744 49.6134 320.992C53.2722 320.269 57.1148 319.611 61.0881 319.008C61.0913 319.001 61.0946 318.993 61.0976 318.986Z" fill="#FFD659"/>
<path d="M177.155 651.728V636.135C162.562 641.874 145.579 645.358 116.764 645.358C92.7152 645.358 76.9075 642.927 63.8462 638.786V651.728C63.8462 665.034 69.7319 673.348 77.8601 678.525C93.3243 679.756 107.844 679.739 116.883 679.739C127.558 679.739 145.839 679.756 164.305 677.749H164.322C171.843 672.521 177.155 664.393 177.155 651.728Z" fill="#EA524F"/>
<path d="M36.1729 671.021C30.4561 666.198 26.9314 659.908 26.9314 651.729V622.372C24.7301 621.411 22.6854 620.519 21.0609 619.742L20.9429 619.607C20.7405 619.203 20.555 617.938 20.4032 615.981C19.223 601.226 19.2061 547.278 20.336 529.891C20.4201 528.525 20.5213 527.378 20.6225 526.501C20.7574 525.371 20.9092 524.68 21.0609 524.495C22.7357 524.126 24.9324 523.726 26.9314 523.276V468.468C26.9314 440.946 33.0361 404.739 41.4512 373.693C41.838 372.246 42.2417 370.8 42.6451 369.37C37.0129 370.674 31.8444 372.118 27.2516 373.693C17.2515 404.739 10 440.946 10 468.468V644.325C10.0003 657.547 20.9785 665.844 36.1729 671.021Z" fill="#EA524F"/>
<path d="M177.155 511.512V511.505V468.468C177.155 441.233 173.395 404.588 168.184 373.794C167.679 370.813 167.157 367.882 166.617 365.035C158.899 364.027 150.704 363.241 142.134 362.719C135.187 369.871 127.621 376.08 116.894 383.857C106.172 376.083 98.6013 369.872 91.6547 362.718C85.8248 363.073 80.1757 363.554 74.7227 364.139C74.133 367.256 73.5596 370.441 73.0036 373.693C67.6913 404.739 63.8465 440.946 63.8465 468.468V508.418C76.6671 503.469 92.8292 499.3 116.764 499.3C145.586 499.3 163.142 505.34 177.155 511.512Z" fill="#EA524F"/>
<path d="M192.603 373.794C200.883 404.587 206.853 441.233 206.853 468.468V523.324C208.663 523.711 210.361 523.968 212.483 524.495C212.686 524.613 212.888 525.304 213.04 526.468C213.175 527.345 213.293 528.491 213.394 529.874C214.743 547.227 214.474 601.377 213.175 615.998C213.006 618.005 212.821 619.287 212.602 619.641L212.483 619.742C210.664 620.58 208.766 621.411 206.853 622.247V651.728C206.853 659.924 203.311 666.214 197.578 671.037C212.789 665.843 223.784 657.563 223.784 644.325V468.468C223.784 441.233 216.684 404.587 206.853 373.794C202.246 372.203 197.053 370.744 191.389 369.427C191.81 370.86 192.215 372.327 192.603 373.794Z" fill="#EA524F"/>
<path d="M63.8465 651.728V638.786C60.3346 637.673 57.0185 636.436 53.7982 635.088C53.7346 635.062 53.6709 635.035 53.6076 635.009C52.5995 634.586 51.5988 634.152 50.6054 633.707C50.4735 633.648 50.3415 633.588 50.2099 633.529C49.2818 633.11 48.3572 632.684 47.4351 632.248C47.368 632.216 47.2999 632.185 47.2325 632.153C46.2919 631.707 45.3524 631.249 44.4121 630.784C44.2333 630.696 44.0538 630.608 43.8746 630.519C41.8361 629.506 39.7895 628.454 37.7059 627.365C37.1902 627.095 36.647 626.825 36.1033 626.556C35.9213 626.465 35.748 626.375 35.5639 626.285C34.8966 625.96 34.2139 625.635 33.5225 625.314C33.483 625.296 33.4441 625.277 33.4047 625.259C31.2485 624.258 29.0199 623.284 26.9317 622.372V651.728C26.9317 659.907 30.4564 666.197 36.1732 671.02C48.4837 675.237 63.5772 677.412 77.8606 678.525C69.7322 673.348 63.8465 665.034 63.8465 651.728Z" fill="#EF7B6E"/>
<path d="M49.9385 514.44C51.0594 513.92 52.201 513.395 53.3611 512.867C53.5942 512.761 53.823 512.657 54.0586 512.55C55.5135 511.892 57.0063 511.233 58.5415 510.578C58.6177 510.545 58.6922 510.512 58.7687 510.48C60.4064 509.783 62.0951 509.093 63.8465 508.417V468.467C63.8465 440.945 67.6914 404.738 73.0037 373.692C73.5597 370.44 74.1328 367.255 74.7228 364.138C74.4059 364.172 74.0857 364.204 73.7702 364.239C73.0619 364.317 72.359 364.397 71.6578 364.479C70.8934 364.568 70.1315 364.659 69.3762 364.752C68.6777 364.838 67.9843 364.927 67.2937 365.017C66.5315 365.116 65.7729 365.217 65.02 365.321C64.3693 365.41 63.7233 365.502 63.08 365.595C62.2923 365.709 61.5094 365.824 60.7328 365.943C60.1453 366.033 59.5608 366.123 58.9795 366.216C58.1607 366.346 57.3491 366.479 56.5436 366.614C56.0206 366.702 55.4994 366.791 54.9818 366.881C54.1366 367.029 53.3002 367.179 52.4706 367.333C52.0033 367.419 51.5368 367.505 51.0749 367.594C50.2208 367.756 49.377 367.923 48.5406 368.092C48.1133 368.178 47.6862 368.265 47.2638 368.352C46.4165 368.529 45.5812 368.709 44.7529 368.892C44.3544 368.979 43.9545 369.067 43.5604 369.156C43.2511 369.226 42.9517 369.299 42.6456 369.37C42.242 370.799 41.8386 372.246 41.4518 373.693C33.0367 404.739 26.932 440.946 26.932 468.468V523.276C27.1344 523.225 27.3199 523.191 27.5223 523.141C35.2443 521.34 42.1908 518.029 49.9385 514.44Z" fill="#EF7B6E"/>
<path d="M206.853 651.728V622.247C206.279 622.498 205.706 622.749 205.129 623.002C204.432 623.31 203.738 623.621 203.043 623.933C202.323 624.254 201.607 624.578 200.892 624.906C199.337 625.623 197.802 626.361 196.303 627.129C196.145 627.209 195.979 627.283 195.822 627.365C194.423 628.097 193.041 628.811 191.666 629.508C191.333 629.678 190.998 629.846 190.665 630.013C189.479 630.609 188.296 631.192 187.114 631.76C186.836 631.894 186.556 632.03 186.278 632.162C184.872 632.83 183.46 633.475 182.037 634.101C181.945 634.141 181.851 634.182 181.758 634.222C180.244 634.885 178.713 635.523 177.156 636.136V651.728C177.156 664.393 171.844 672.522 164.323 677.75C175.958 676.485 187.662 674.427 197.578 671.038C203.311 666.215 206.853 659.924 206.853 651.728Z" fill="#D84949"/>
<path d="M184.864 368.018C183.45 367.734 182.007 367.46 180.544 367.195C180.013 367.098 179.487 367.001 178.95 366.907C177.234 366.607 175.488 366.318 173.71 366.043C173.183 365.961 172.645 365.884 172.113 365.805C170.733 365.598 169.333 365.4 167.918 365.209C167.485 365.15 167.053 365.091 166.617 365.034C167.156 367.881 167.679 370.812 168.184 373.793C173.395 404.586 177.155 441.232 177.155 468.467V511.504C177.512 511.661 177.849 511.817 178.201 511.974C178.712 512.202 179.218 512.43 179.721 512.657C189.102 516.905 197.042 521.037 206.027 523.14C206.239 523.19 206.439 523.234 206.64 523.277C206.711 523.293 206.782 523.308 206.853 523.323V468.467C206.853 441.232 200.883 404.586 192.603 373.793C192.215 372.326 191.81 370.859 191.388 369.426C191.373 369.422 191.357 369.419 191.342 369.415C189.571 369 187.748 368.602 185.885 368.22C185.549 368.151 185.203 368.085 184.864 368.018Z" fill="#D84949"/>
<path d="M173.513 320.975C175.806 326.54 178.134 331.971 180.41 337.317C184.272 346.305 187.999 357.351 191.389 369.426C191.373 369.422 191.357 369.419 191.342 369.415C191.357 369.419 191.373 369.423 191.389 369.426C197.053 370.743 202.246 372.203 206.853 373.793C202.434 360.015 197.493 347.384 192.367 337.317C191.778 336.158 191.184 334.977 190.593 333.81C189.657 331.963 188.723 330.113 187.784 328.241C186.579 325.84 185.373 323.425 184.171 320.975C180.51 320.255 176.666 319.599 172.692 318.999C172.96 319.652 173.245 320.322 173.513 320.975Z" fill="#FEF1EF"/>
<path d="M81.3853 334.046C79.0749 342.646 76.815 352.916 74.7241 364.131C74.4029 364.165 74.0901 364.204 73.7704 364.239C74.086 364.205 74.4061 364.172 74.723 364.138C80.176 363.554 85.825 363.073 91.655 362.718C98.6015 369.872 106.172 376.082 116.895 383.856C127.621 376.08 135.187 369.87 142.135 362.719C150.705 363.241 158.899 364.027 166.617 365.035C167.054 365.092 167.485 365.151 167.919 365.21C167.479 365.15 167.058 365.083 166.616 365.025C164.71 354.67 162.636 345.21 160.511 337.318C159.061 331.972 157.611 326.541 156.16 320.976C155.808 319.617 155.439 318.242 155.087 316.849C150.246 316.386 145.273 315.999 140.157 315.714C133.735 309.376 126.613 303.62 116.895 296.574C107.179 303.618 100.054 309.377 93.6347 315.715C91.0821 315.857 88.5737 316.031 86.087 316.218C85.667 317.832 85.2631 319.413 84.8428 320.993C83.6955 325.428 82.5318 329.762 81.3853 334.046Z" fill="#FEF1EF"/>
<path d="M43.5601 369.156C43.2587 369.224 42.947 369.289 42.6486 369.358C46.3925 356.103 50.5409 343.961 54.7568 334.045C56.595 329.761 58.4332 325.427 60.2712 320.992C60.538 320.325 60.8212 319.674 61.088 319.008C57.1148 319.611 53.2722 320.269 49.6134 320.992C47.4379 325.427 45.2455 329.761 43.07 334.045C42.4427 335.285 41.8171 336.57 41.1934 337.877C40.8509 338.595 40.5106 339.339 40.1695 340.076C39.919 340.618 39.6685 341.157 39.4188 341.709C38.9621 342.717 38.5089 343.747 38.0557 344.788C37.9516 345.028 37.8474 345.268 37.7435 345.509C35.5236 350.655 33.3514 356.158 31.2626 361.946C31.2365 362.019 31.2093 362.09 31.1826 362.164C30.5853 363.823 29.9961 365.506 29.4132 367.207C29.3319 367.444 29.2478 367.675 29.1668 367.914C28.5183 369.818 27.8788 371.743 27.2516 373.692C31.8444 372.117 37.0131 370.673 42.6451 369.369C42.9516 369.299 43.2508 369.226 43.5601 369.156Z" fill="#FEF1EF"/>
<path d="M47.2635 368.352C47.6859 368.264 48.113 368.178 48.5403 368.092C49.377 367.923 50.2202 367.756 51.0746 367.593C51.5365 367.505 52.003 367.419 52.4703 367.333C53.3002 367.179 54.1361 367.028 54.9815 366.881C55.4991 366.791 56.02 366.702 56.5433 366.614C57.3487 366.478 58.1604 366.346 58.9792 366.216C59.5604 366.123 60.145 366.032 60.7325 365.943C61.5097 365.824 62.2919 365.708 63.0797 365.594C63.7227 365.502 64.369 365.41 65.0196 365.321C65.7726 365.217 66.5309 365.116 67.2934 365.017C67.984 364.927 68.6773 364.838 69.3759 364.752C70.1315 364.658 70.8931 364.568 71.6575 364.479C72.3587 364.397 73.0616 364.317 73.7699 364.238C74.0898 364.203 74.4023 364.164 74.7235 364.13C76.8147 352.915 79.0743 342.645 81.3848 334.045C82.5315 329.761 83.6949 325.427 84.842 320.992C85.2622 319.412 85.6659 317.831 86.0861 316.217C86.0872 316.212 86.0886 316.208 86.0899 316.203C85.2448 316.267 84.4234 316.346 83.5864 316.415C82.6295 316.495 81.6701 316.573 80.7238 316.658C79.7413 316.747 78.7702 316.842 77.7997 316.937C76.7701 317.038 75.746 317.142 74.7303 317.25C73.6442 317.366 72.5695 317.487 71.5002 317.612C70.7487 317.699 70.0047 317.79 69.2619 317.882C67.9522 318.043 66.6542 318.21 65.3716 318.385C64.9797 318.438 64.594 318.494 64.2044 318.549C63.1681 318.694 62.1154 318.832 61.0978 318.985C61.0948 318.993 61.0916 319.001 61.0883 319.008C60.8215 319.674 60.5383 320.325 60.2715 320.992C58.4332 325.427 56.595 329.761 54.757 334.045C50.5409 343.961 46.3925 356.103 42.6489 369.358C42.9473 369.289 43.259 369.224 43.5604 369.156C43.9545 369.067 44.3544 368.979 44.7529 368.891C45.5811 368.709 46.4162 368.529 47.2635 368.352Z" fill="white"/>
<path d="M160.511 337.317C162.636 345.209 164.71 354.67 166.615 365.024C167.058 365.082 167.479 365.149 167.918 365.209C169.333 365.401 170.733 365.599 172.113 365.805C172.645 365.884 173.183 365.961 173.71 366.043C175.488 366.319 177.234 366.607 178.95 366.907C179.487 367.001 180.013 367.099 180.544 367.195C182.007 367.46 183.45 367.734 184.864 368.018C185.202 368.086 185.549 368.151 185.886 368.22C187.748 368.603 189.571 369 191.342 369.415C191.357 369.419 191.373 369.422 191.389 369.425C187.999 357.351 184.272 346.305 180.41 337.316C178.134 331.971 175.806 326.54 173.513 320.975C173.245 320.322 172.96 319.652 172.692 318.998C172.69 318.994 172.688 318.99 172.686 318.985C171.535 318.812 170.364 318.647 169.189 318.484C169.049 318.464 168.913 318.443 168.773 318.424C167.036 318.185 165.272 317.958 163.485 317.742C163.382 317.73 163.276 317.718 163.172 317.706C161.427 317.496 159.656 317.3 157.868 317.113C157.822 317.109 157.776 317.104 157.731 317.099C156.849 317.008 155.973 316.913 155.081 316.827C155.083 316.834 155.085 316.841 155.087 316.848C155.439 318.241 155.808 319.616 156.16 320.975C157.61 326.541 159.061 331.971 160.511 337.317Z" fill="#EAE8E2"/>
<path d="M136.462 29.451C138.969 32.6433 142.256 34.0607 144.062 38.0476C145.729 41.6917 146.18 46.1458 145.105 50.1013C144.389 52.7488 143.034 55.1161 142.551 57.8413C142.053 60.5201 142.567 63.183 142.785 65.846C143.05 68.9608 143.019 72.091 143.283 75.19C143.641 79.3637 145.884 82.3071 147.239 85.998C149.201 91.3239 147.503 99.2198 143.828 103.596C143.729 103.608 143.627 103.615 143.527 103.627C143.111 137.427 143.292 224.912 155.148 268.681C156.919 275.275 158.858 281.582 160.882 287.653C164.575 298.75 168.605 309.104 172.687 318.986C172.688 318.99 172.69 318.995 172.692 318.999C176.666 319.6 180.51 320.256 184.171 320.976C178.977 310.487 173.85 299.492 169.162 287.653C166.75 281.582 164.457 275.275 162.349 268.681C146.558 219.592 148.201 122.548 148.73 102.425C155.784 99.4211 159.746 89.743 156.63 83.6307C154.839 80.1422 151.911 77.3391 151.444 73.3991C151.086 70.4554 151.148 67.4968 150.79 64.5534C150.494 62.0305 149.839 59.5079 150.478 56.9693C151.117 54.3999 152.892 52.1417 153.827 49.6501C155.244 45.8969 154.636 41.6767 152.456 38.235C150.089 34.4505 145.791 33.1114 142.521 30.09C139.702 27.4893 138.035 23.8917 134.516 22.0543C133.737 21.6338 132.304 21.2913 130.451 21.0264C133.083 23.0036 134.344 26.7413 136.462 29.451Z" fill="#FFD659"/>
<path d="M100.036 36.1318C98.9462 39.9941 98.6347 44.7129 99.3509 48.9176C99.8182 51.7206 100.722 54.2435 101.049 57.1249C101.375 59.9747 101.033 62.7935 100.893 65.6124C100.706 68.914 100.737 72.2309 100.566 75.5322C100.316 79.9396 98.8368 83.0696 97.9338 86.9786C96.719 92.2112 97.6068 99.7641 99.7092 104.545C101.065 104.545 102.413 104.485 103.73 104.465C103.989 138.868 103.814 225.278 96.4108 268.68C95.4495 274.347 94.4211 279.794 93.3417 285.072C91.0822 296.118 88.6028 306.405 86.09 316.203C86.0886 316.208 86.0875 316.212 86.0862 316.217C88.5729 316.03 91.0813 315.856 93.6339 315.714C100.054 309.376 107.178 303.618 116.894 296.573C126.612 303.619 133.735 309.375 140.156 315.713C145.272 315.998 150.245 316.386 155.086 316.848C155.084 316.841 155.082 316.834 155.08 316.827C152.702 307.603 150.375 297.939 148.2 287.652C146.935 281.581 145.721 275.274 144.591 268.68C137.196 225.236 137.03 138.706 137.275 104.371C137.013 104.402 136.761 104.445 136.493 104.467C138.564 99.6865 139.436 92.1802 138.221 86.9786C137.318 83.0696 135.838 79.9396 135.59 75.5322C135.418 72.2309 135.434 68.9137 135.263 65.6124C135.107 62.7935 134.78 59.9747 135.107 57.1249C135.434 54.2435 136.337 51.7209 136.804 48.9176C137.52 44.7129 137.209 39.9941 136.119 36.1318C134.904 31.9116 132.724 30.4009 131.073 27.006C130.139 25.1218 129.454 22.77 128.597 20.7925C122.757 20.1693 114.145 20.0915 107.651 20.5743C106.748 22.6144 106.047 25.0595 105.082 27.006C103.432 30.4009 101.251 31.9116 100.036 36.1318Z" fill="#FFD659"/>
<path d="M97.3111 29.4509C94.8195 32.6432 91.5336 34.0607 89.7114 38.0475C88.0609 41.6916 87.5933 46.1457 88.668 50.1013C89.3845 52.7487 90.7394 55.116 91.2377 57.8413C91.7205 60.52 91.2222 63.183 90.9885 65.8459C90.7236 68.9607 90.7704 72.091 90.5057 75.1899C90.132 79.3636 87.905 82.307 86.5347 85.9979C84.5724 91.3238 86.2855 99.2197 89.9761 103.595C90.0694 103.607 90.1632 103.614 90.2568 103.624C90.6733 137.423 90.4921 224.911 78.6364 268.681C77.1017 274.347 75.4661 279.794 73.7456 285.072C69.8333 297.164 65.4992 308.345 61.0975 318.986C62.1151 318.832 63.1678 318.694 64.2041 318.549C64.5931 318.494 64.9799 318.439 65.3713 318.385C66.6538 318.21 67.9519 318.044 69.2616 317.882C70.0039 317.79 70.7495 317.7 71.4999 317.612C72.5695 317.488 73.6442 317.367 74.73 317.25C75.7452 317.142 76.7696 317.038 77.7994 316.937C78.7699 316.842 79.741 316.747 80.7235 316.658C81.6706 316.573 82.6281 316.494 83.5861 316.415C84.423 316.346 85.2448 316.268 86.0897 316.203C88.6025 306.405 91.0815 296.118 93.3414 285.072C94.4207 279.794 95.4492 274.347 96.4105 268.68C103.814 225.278 103.988 138.868 103.73 104.465C102.413 104.486 101.065 104.545 99.7088 104.545C97.6065 99.764 96.7186 92.2111 97.9334 86.9785C98.8368 83.0695 100.316 79.9395 100.565 75.5321C100.737 72.2308 100.705 68.9136 100.892 65.6123C101.032 62.7934 101.375 59.9746 101.048 57.1248C100.721 54.2434 99.8179 51.7208 99.3506 48.9175C98.6344 44.7128 98.9456 39.994 100.036 36.1317C101.251 31.9115 103.431 30.4008 105.082 27.0059C106.047 25.0594 106.748 22.6143 107.651 20.5742C106.063 20.6988 104.599 20.8389 103.337 21.0258C100.706 23.0035 99.4289 26.7412 97.3111 29.4509Z" fill="#FFE596"/>
<path d="M136.12 36.1319C137.21 39.9941 137.521 44.7129 136.805 48.9176C136.338 51.7207 135.434 54.2436 135.108 57.1249C134.781 59.9748 135.108 62.7936 135.263 65.6124C135.435 68.9141 135.419 72.2309 135.59 75.5323C135.839 79.9396 137.319 83.0696 138.222 86.9787C139.437 92.1803 138.564 99.6866 136.493 104.467C136.762 104.445 137.014 104.402 137.276 104.371C137.03 138.706 137.197 225.236 144.591 268.68C145.721 275.274 146.936 281.582 148.2 287.652C150.376 297.94 152.703 307.603 155.081 316.827C155.973 316.913 156.849 317.008 157.73 317.1C157.776 317.104 157.822 317.109 157.868 317.114C159.657 317.301 161.427 317.497 163.172 317.706C163.276 317.719 163.381 317.73 163.485 317.743C165.272 317.959 167.036 318.185 168.773 318.424C168.913 318.443 169.049 318.464 169.189 318.484C170.364 318.647 171.535 318.812 172.686 318.986C168.605 309.104 164.575 298.749 160.881 287.652C158.858 281.582 156.918 275.274 155.148 268.68C143.292 224.911 143.111 137.427 143.527 103.626C143.627 103.614 143.729 103.607 143.828 103.595C147.503 99.219 149.201 91.3234 147.239 85.9975C145.884 82.3066 143.641 79.3632 143.283 75.1895C143.018 72.0906 143.05 68.9603 142.785 65.8455C142.567 63.1826 142.053 60.5196 142.551 57.8409C143.034 55.1156 144.389 52.7483 145.105 50.1009C146.18 46.1453 145.728 41.6912 144.062 38.0471C142.255 34.0603 138.969 32.6431 136.462 29.4506C134.344 26.7408 133.083 23.0031 130.451 21.0254C129.875 20.9476 129.251 20.8698 128.598 20.792C129.454 22.7698 130.139 25.1215 131.074 27.0055C132.725 30.401 134.905 31.9117 136.12 36.1319Z" fill="#F4B749"/>
<path d="M207.284 615.611L207.293 615.506C208.518 601.725 208.856 547.641 207.509 530.331C207.487 530.026 207.465 529.738 207.442 529.467C207.254 529.431 207.043 529.381 206.853 529.344V615.801C206.995 615.738 207.143 615.673 207.284 615.611Z" fill="#FEF1EF"/>
<path d="M26.2803 529.455C26.262 529.704 26.2438 529.971 26.2267 530.254C25.0935 547.689 25.1316 601.072 26.2868 615.51L26.2985 615.647C26.4981 615.736 26.7261 615.834 26.9315 615.925V529.313C26.7122 529.359 26.4998 529.41 26.2803 529.455Z" fill="#FEF1EF"/>
<path d="M177.155 516.123V511.511C163.142 505.339 145.586 499.3 116.764 499.3C92.829 499.3 76.6668 503.469 63.8462 508.418C62.0945 509.094 60.4061 509.784 58.7684 510.48C60.4067 509.784 62.0942 509.094 63.8462 508.418V512.948C76.6344 507.835 92.4832 503.516 116.764 503.516C145.977 503.516 163.008 509.759 177.155 516.123Z" fill="#FEF1EF"/>
<path d="M177.155 631.596C162.589 637.552 145.963 641.143 116.764 641.143C92.4106 641.143 76.8071 638.643 63.8465 634.358V638.777C60.334 637.669 57.0204 636.434 53.7982 635.089C57.0188 636.436 60.3346 637.673 63.8465 638.786C76.9078 642.928 92.7153 645.358 116.764 645.358C145.579 645.358 162.562 641.874 177.156 636.135C178.713 635.523 180.243 634.884 181.758 634.222C180.243 634.882 178.714 635.519 177.156 636.129L177.155 631.596Z" fill="#FEF1EF"/>
<path d="M26.9314 622.368V617.771C26.3107 617.498 25.7155 617.236 25.1546 616.985L24.7042 616.782L24.6055 615.644C23.4467 601.162 23.4081 547.626 24.5435 530.149C24.5775 529.6 24.6125 529.112 24.6471 528.686L24.6998 528.054L25.3214 527.929C25.8608 527.82 26.3926 527.698 26.9311 527.583V523.276C24.9321 523.727 22.7354 524.126 21.0607 524.495C20.9089 524.681 20.7571 525.372 20.6222 526.502C20.521 527.379 20.4198 528.526 20.3358 529.892C19.2058 547.278 19.2227 601.226 20.4029 615.982C20.5547 617.938 20.7402 619.203 20.9426 619.608L21.0607 619.743C22.6851 620.519 24.7295 621.412 26.9311 622.373C29.0193 623.285 31.2479 624.259 33.4041 625.259C31.2479 624.256 29.0245 623.275 26.9314 622.368Z" fill="#FEF1EF"/>
<path d="M206.853 523.326V527.634C207.266 527.716 207.674 527.795 208.072 527.87L209 528.05L209.062 528.675C209.108 529.132 209.15 529.643 209.191 530.206C210.541 547.566 210.202 601.827 208.973 615.65L208.873 616.75L208.422 616.951C207.913 617.178 207.375 617.411 206.853 617.641V622.233C206.28 622.486 205.704 622.748 205.129 623.002C205.706 622.749 206.279 622.497 206.853 622.247C208.766 621.411 210.664 620.58 212.484 619.742L212.602 619.641C212.821 619.287 213.006 618.005 213.175 615.998C214.474 601.377 214.743 547.227 213.394 529.874C213.293 528.491 213.175 527.345 213.04 526.468C212.888 525.304 212.686 524.613 212.484 524.494C210.361 523.968 208.663 523.711 206.853 523.324C206.782 523.309 206.711 523.294 206.64 523.278C206.71 523.294 206.783 523.313 206.853 523.326Z" fill="#FEF1EF"/>
<path d="M63.8465 634.357C55.213 631.503 47.7502 627.859 39.662 623.629C36.2026 621.819 32.1415 620.046 28.5578 618.482C27.9896 618.233 27.4526 617.999 26.9315 617.77V622.367C29.0246 623.274 31.248 624.255 33.4044 625.258C33.4439 625.276 33.4828 625.295 33.5222 625.313C34.2142 625.636 34.8959 625.958 35.5636 626.285C35.7481 626.375 35.9213 626.465 36.103 626.555C36.6435 626.823 37.1946 627.091 37.7073 627.36C39.7898 628.452 41.8353 629.504 43.8743 630.518C44.0536 630.607 44.2331 630.695 44.4118 630.784C45.3521 631.248 46.2916 631.706 47.2322 632.153C47.2997 632.185 47.3674 632.216 47.4349 632.248C48.3567 632.684 49.2813 633.11 50.2096 633.528C50.3413 633.588 50.4732 633.648 50.6051 633.707C51.5993 634.151 52.599 634.586 53.6073 635.009C53.6707 635.035 53.7343 635.062 53.798 635.088C57.0202 636.433 60.3341 637.668 63.8462 638.776V634.357H63.8465Z" fill="white"/>
<path d="M28.4729 527.251C36.2554 525.442 43.2215 522.207 50.5962 518.783C54.7663 516.846 59.1024 514.844 63.8465 512.948V508.418C62.0945 509.094 60.407 509.784 58.7687 510.481C58.6922 510.513 58.6177 510.546 58.5415 510.578C57.0049 511.233 55.5146 511.893 54.0586 512.551C53.8233 512.657 53.5945 512.761 53.3611 512.868C52.1991 513.396 51.061 513.92 49.9384 514.441C42.1908 518.03 35.244 521.34 27.5217 523.141C27.3196 523.191 27.1338 523.225 26.9315 523.276V527.583C27.4472 527.473 27.9708 527.37 28.4729 527.251Z" fill="white"/>
<path d="M40.4443 622.136C48.2797 626.233 55.5242 629.774 63.8465 632.57V514.764C59.3739 516.573 55.2668 518.473 51.3061 520.312C43.8498 523.775 36.807 527.045 28.8575 528.893C28.2303 529.042 27.5797 529.177 26.9315 529.313V615.925C27.652 616.243 28.3804 616.564 29.1508 616.9C32.8414 618.511 36.9321 620.297 40.4443 622.136Z" fill="white"/>
<path d="M177.155 516.123C179.134 517.013 181.059 517.906 182.951 518.784C190.325 522.208 197.29 525.442 205.053 527.248C205.679 527.396 206.273 527.519 206.853 527.634V523.326C206.784 523.313 206.71 523.293 206.64 523.278C206.439 523.235 206.24 523.19 206.027 523.14C197.042 521.037 189.102 516.905 179.721 512.658C179.219 512.43 178.713 512.203 178.201 511.975C177.849 511.818 177.512 511.661 177.156 511.504V511.511L177.155 516.123Z" fill="#EAE8E2"/>
<path d="M206.853 617.641C206.303 617.882 205.768 618.119 205.202 618.366C201.371 620.04 197.517 621.723 193.868 623.629C188.195 626.595 182.832 629.275 177.156 631.596V636.129C178.714 635.519 180.243 634.882 181.758 634.222C181.851 634.182 181.944 634.141 182.037 634.1C183.461 633.476 184.872 632.828 186.278 632.162C186.556 632.03 186.836 631.893 187.113 631.76C188.297 631.192 189.479 630.61 190.665 630.013C190.998 629.846 191.333 629.678 191.666 629.508C193.043 628.808 194.423 628.096 195.824 627.36C195.979 627.279 196.146 627.208 196.302 627.128C197.802 626.361 199.337 625.623 200.892 624.906C201.607 624.577 202.322 624.255 203.042 623.932C203.738 623.621 204.432 623.31 205.128 623.002C205.704 622.748 206.28 622.486 206.853 622.233L206.853 617.641Z" fill="#EAE8E2"/>
<path d="M193.087 622.134C196.788 620.201 200.67 618.506 204.423 616.867C205.293 616.486 206.084 616.14 206.853 615.801V529.344C206.147 529.207 205.44 529.072 204.668 528.89C196.738 527.045 189.697 523.775 182.241 520.314C180.579 519.542 178.884 518.758 177.155 517.976V629.763C182.55 627.526 187.677 624.963 193.087 622.134Z" fill="#EAE8E2"/>
<path d="M39.6622 623.63C47.7504 627.859 55.2132 631.504 63.8467 634.358C76.8074 638.642 92.4109 641.143 116.764 641.143C145.963 641.143 162.589 637.551 177.156 631.596C182.832 629.275 188.196 626.596 193.868 623.629C197.517 621.724 201.371 620.041 205.202 618.367C205.768 618.119 206.303 617.882 206.853 617.641C207.376 617.411 207.913 617.178 208.422 616.951L208.873 616.75L208.973 615.65C210.202 601.827 210.541 547.566 209.191 530.206C209.15 529.643 209.107 529.133 209.062 528.676L209 528.05L208.072 527.87C207.674 527.795 207.266 527.716 206.853 527.634C206.273 527.519 205.679 527.396 205.053 527.249C197.29 525.442 190.325 522.208 182.951 518.785C181.059 517.906 179.135 517.013 177.155 516.123C163.008 509.759 145.977 503.517 116.764 503.517C92.4835 503.517 76.6347 507.836 63.8465 512.948C59.1024 514.845 54.7663 516.847 50.5961 518.783C43.2215 522.208 36.2553 525.442 28.4729 527.252C27.9708 527.371 27.4471 527.473 26.9314 527.583C26.3928 527.698 25.8611 527.82 25.3217 527.929L24.7001 528.054L24.6474 528.686C24.6128 529.112 24.5777 529.6 24.5437 530.149C23.4081 547.626 23.447 601.162 24.6058 615.644L24.7045 616.782L25.1549 616.985C25.7158 617.236 26.3112 617.498 26.9317 617.771C27.4529 617.999 27.9898 618.234 28.558 618.483C32.1415 620.046 36.2028 621.819 39.6622 623.63ZM26.2984 615.648L26.2868 615.511C25.1315 601.073 25.0937 547.689 26.2266 530.255C26.2438 529.972 26.262 529.705 26.2802 529.456C26.4997 529.411 26.7122 529.36 26.9314 529.314C27.5793 529.178 28.2303 529.042 28.8575 528.894C36.8069 527.045 43.8501 523.776 51.3061 520.313C55.2668 518.474 59.3736 516.574 63.8465 514.764C76.6004 509.605 92.3948 505.203 116.764 505.203C146.103 505.203 163.022 511.576 177.155 517.976C178.884 518.759 180.579 519.542 182.241 520.314C189.697 523.775 196.738 527.045 204.668 528.891C205.44 529.072 206.147 529.208 206.853 529.345C207.043 529.382 207.254 529.431 207.442 529.467C207.465 529.739 207.487 530.027 207.509 530.331C208.856 547.642 208.518 601.725 207.293 615.506L207.284 615.611C207.143 615.674 206.995 615.739 206.853 615.801C206.084 616.141 205.293 616.487 204.423 616.867C200.67 618.507 196.788 620.202 193.087 622.135C187.677 624.964 182.549 627.526 177.155 629.764C162.599 635.802 146.09 639.457 116.764 639.457C92.3127 639.457 76.7753 636.915 63.8465 632.571C55.5241 629.775 48.2794 626.234 40.4442 622.136C36.9323 620.298 32.8413 618.512 29.151 616.901C28.3807 616.565 27.6522 616.244 26.9317 615.926C26.7258 615.835 26.4981 615.736 26.2984 615.648Z" fill="#373841"/>
<path d="M82.7329 566.421C84.3196 566.421 85.6729 566.748 86.7929 567.401C87.9129 568.055 88.4729 568.748 88.4729 569.481C88.4729 569.681 88.4262 569.855 88.3329 570.001C88.2529 570.135 88.1462 570.235 88.0129 570.301C87.8929 570.355 87.7596 570.381 87.6129 570.381C87.3729 570.381 87.0129 570.261 86.5329 570.021C86.0529 569.768 85.5196 569.521 84.9329 569.281C84.3462 569.028 83.8062 568.901 83.3129 568.901C82.5262 568.901 82.1329 569.221 82.1329 569.861C82.1329 570.061 82.1929 570.255 82.3129 570.441C82.4462 570.615 82.6529 570.801 82.9329 571.001C83.2129 571.188 83.4862 571.355 83.7529 571.501C84.0196 571.648 84.3862 571.848 84.8529 572.101C85.3196 572.341 85.7129 572.555 86.0329 572.741C87.0596 573.328 87.7796 573.888 88.1929 574.421C88.6062 574.955 88.8129 575.568 88.8129 576.261C88.8129 579.021 86.9529 580.401 83.2329 580.401C82.4996 580.401 81.7862 580.328 81.0929 580.181C80.4129 580.035 79.8129 579.841 79.2929 579.601C78.7862 579.361 78.3329 579.095 77.9329 578.801C77.5462 578.508 77.2529 578.208 77.0529 577.901C76.8529 577.595 76.7529 577.308 76.7529 577.041C76.7529 576.748 76.8462 576.501 77.0329 576.301C77.2329 576.088 77.5196 575.981 77.8929 575.981C78.1729 575.981 78.8462 576.161 79.9129 576.521C80.9796 576.868 81.8396 577.041 82.4929 577.041C83.0929 577.041 83.3929 576.835 83.3929 576.421C83.3929 576.301 83.3662 576.195 83.3129 576.101C83.2729 575.995 83.1929 575.895 83.0729 575.801C82.9662 575.695 82.8396 575.601 82.6929 575.521C82.5596 575.428 82.3662 575.315 82.1129 575.181C81.8729 575.048 81.6262 574.915 81.3729 574.781C81.1329 574.648 80.8129 574.475 80.4129 574.261C80.0129 574.048 79.6262 573.835 79.2529 573.621C78.7596 573.341 78.3329 572.995 77.9729 572.581C77.6262 572.168 77.3729 571.761 77.2129 571.361C77.0529 570.948 76.9729 570.568 76.9729 570.221C76.9729 569.101 77.4729 568.188 78.4729 567.481C79.4729 566.775 80.8929 566.421 82.7329 566.421ZM95.1196 581.421C95.1196 582.501 94.9396 583.268 94.5796 583.721C94.2196 584.188 93.6663 584.421 92.9196 584.421C92.1729 584.421 91.6263 584.208 91.2796 583.781C90.9329 583.368 90.7596 582.628 90.7596 581.561L90.7196 573.121C90.7196 572.295 90.9196 571.688 91.3196 571.301C91.7196 570.915 92.2529 570.721 92.9196 570.721C93.4396 570.721 93.8596 570.788 94.1796 570.921C94.4996 571.041 94.7396 571.288 94.8996 571.661C95.8196 570.941 96.8063 570.581 97.8596 570.581C98.9263 570.581 99.7996 571.028 100.48 571.921C101.16 572.815 101.5 574.028 101.5 575.561C101.5 577.055 101.153 578.235 100.46 579.101C99.7663 579.955 98.8929 580.381 97.8396 580.381C96.8263 580.381 95.9196 580.155 95.1196 579.701V581.421ZM95.1196 577.361C95.3463 577.735 95.6463 577.921 96.0196 577.921C96.3796 577.921 96.6596 577.681 96.8596 577.201C97.0596 576.721 97.1596 576.175 97.1596 575.561C97.1596 574.908 97.0529 574.328 96.8396 573.821C96.6263 573.315 96.3463 573.061 95.9996 573.061C95.6396 573.061 95.3463 573.255 95.1196 573.641V577.361ZM107.421 578.121C107.421 578.921 107.255 579.481 106.921 579.801C106.588 580.108 105.995 580.261 105.141 580.261C104.355 580.261 103.821 580.081 103.541 579.721C103.261 579.348 103.121 578.741 103.121 577.901V572.981C103.121 572.528 103.201 572.135 103.361 571.801C103.521 571.455 103.755 571.188 104.061 571.001C104.368 570.815 104.728 570.721 105.141 570.721C106.155 570.721 106.821 571.015 107.141 571.601C107.915 571.015 108.661 570.721 109.381 570.721C110.781 570.721 111.481 571.388 111.481 572.721C111.481 573.255 111.328 573.688 111.021 574.021C110.715 574.355 110.315 574.521 109.821 574.521C109.528 574.521 109.288 574.461 109.101 574.341C108.928 574.221 108.761 574.101 108.601 573.981C108.455 573.861 108.281 573.801 108.081 573.801C107.788 573.801 107.568 573.901 107.421 574.101V578.121ZM112.495 567.941C112.495 567.501 112.682 567.141 113.055 566.861C113.442 566.568 113.982 566.421 114.675 566.421C116.128 566.421 116.855 566.928 116.855 567.941C116.855 568.501 116.668 568.895 116.295 569.121C115.935 569.348 115.395 569.461 114.675 569.461C114.048 569.461 113.528 569.341 113.115 569.101C112.702 568.861 112.495 568.475 112.495 567.941ZM116.835 578.121C116.835 578.921 116.668 579.481 116.335 579.801C116.002 580.108 115.415 580.261 114.575 580.261C113.788 580.261 113.248 580.081 112.955 579.721C112.675 579.348 112.535 578.741 112.535 577.901V572.981C112.535 572.301 112.715 571.755 113.075 571.341C113.448 570.928 113.942 570.721 114.555 570.721C115.275 570.721 115.835 570.881 116.235 571.201C116.635 571.508 116.835 572.081 116.835 572.921V578.121ZM124.789 574.881C124.789 574.135 124.495 573.761 123.909 573.761C123.629 573.761 123.395 573.881 123.209 574.121C123.035 574.348 122.935 574.655 122.909 575.041V578.121C122.909 578.935 122.742 579.495 122.409 579.801C122.075 580.108 121.489 580.261 120.649 580.261C119.862 580.261 119.322 580.081 119.029 579.721C118.749 579.348 118.609 578.741 118.609 577.901V572.981C118.609 572.301 118.789 571.755 119.149 571.341C119.522 570.928 120.015 570.721 120.629 570.721C121.135 570.721 121.562 570.795 121.909 570.941C122.255 571.088 122.515 571.341 122.689 571.701C123.729 571.021 124.995 570.681 126.489 570.681C127.435 570.681 128.115 571.055 128.529 571.801C128.955 572.548 129.169 573.775 129.169 575.481C129.169 576.321 129.149 577.008 129.109 577.541C129.069 578.061 129.002 578.515 128.909 578.901C128.829 579.275 128.695 579.555 128.509 579.741C128.322 579.928 128.102 580.061 127.849 580.141C127.609 580.221 127.295 580.261 126.909 580.261C126.162 580.261 125.622 580.121 125.289 579.841C124.969 579.561 124.809 579.148 124.809 578.601L124.789 574.881ZM131.973 575.981V573.621C131.64 573.608 131.373 573.555 131.173 573.461C130.973 573.355 130.826 573.221 130.733 573.061C130.653 572.901 130.613 572.701 130.613 572.461C130.613 571.701 131.073 571.288 131.993 571.221V569.361C131.993 568.855 132.36 568.401 133.093 568.001C133.826 567.588 134.553 567.381 135.273 567.381C135.713 567.381 136 567.508 136.133 567.761C136.266 568.015 136.333 568.395 136.333 568.901L136.353 571.201H136.893C137.626 571.201 138.126 571.301 138.393 571.501C138.673 571.688 138.813 572.035 138.813 572.541C138.813 572.755 138.773 572.935 138.693 573.081C138.613 573.228 138.48 573.341 138.293 573.421C138.12 573.501 137.906 573.561 137.653 573.601C137.4 573.628 137.086 573.641 136.713 573.641H136.353V575.841C136.353 576.055 136.36 576.235 136.373 576.381C136.4 576.515 136.433 576.621 136.473 576.701C136.513 576.781 136.566 576.835 136.633 576.861C136.713 576.888 136.806 576.901 136.913 576.901C137.073 576.901 137.206 576.848 137.313 576.741C137.42 576.621 137.5 576.495 137.553 576.361C137.62 576.215 137.7 576.088 137.793 575.981C137.9 575.861 138.02 575.801 138.153 575.801C138.46 575.801 138.693 575.875 138.853 576.021C139.026 576.168 139.113 576.348 139.113 576.561C139.113 576.921 139.04 577.308 138.893 577.721C138.76 578.135 138.56 578.535 138.293 578.921C138.026 579.308 137.653 579.628 137.173 579.881C136.706 580.135 136.18 580.261 135.593 580.261C134.273 580.261 133.34 579.928 132.793 579.261C132.246 578.595 131.973 577.501 131.973 575.981ZM152.063 580.381C151.21 580.381 150.437 580.268 149.743 580.041C149.063 579.801 148.443 579.428 147.883 578.921C147.337 578.415 146.91 577.721 146.603 576.841C146.31 575.961 146.163 574.928 146.163 573.741C146.163 572.461 146.31 571.368 146.603 570.461C146.897 569.555 147.317 568.848 147.863 568.341C148.41 567.835 149.023 567.468 149.703 567.241C150.383 567.015 151.17 566.901 152.063 566.901C152.93 566.901 153.71 567.035 154.403 567.301C155.097 567.555 155.703 567.948 156.223 568.481C156.757 569.015 157.163 569.728 157.443 570.621C157.737 571.501 157.883 572.541 157.883 573.741C157.883 574.941 157.737 575.981 157.443 576.861C157.15 577.728 156.73 578.415 156.183 578.921C155.65 579.428 155.037 579.801 154.343 580.041C153.663 580.268 152.903 580.381 152.063 580.381ZM153.143 576.361C153.383 575.628 153.503 574.755 153.503 573.741C153.503 572.715 153.377 571.808 153.123 571.021C152.87 570.235 152.517 569.841 152.063 569.841C151.743 569.841 151.463 570.041 151.223 570.441C150.997 570.841 150.83 571.335 150.723 571.921C150.617 572.495 150.563 573.101 150.563 573.741C150.563 574.728 150.69 575.595 150.943 576.341C151.21 577.088 151.583 577.461 152.063 577.461C152.543 577.461 152.903 577.095 153.143 576.361Z" fill="black"/>
</svg>
