<svg width="195" height="700" viewBox="0 0 195 700" fill="none" xmlns="http://www.w3.org/2000/svg">
<path d="M61.8284 80.5855L65.3592 155.696L127.302 155.502L126.403 79.0645L123.744 71.8238C123.744 71.8238 127.035 70.4954 127.68 65.8806C128.324 61.2657 125.595 31.6206 124.922 27.01C124.248 22.3994 117.655 21.102 93.2731 21.179C68.8916 21.2552 64.287 23.9061 62.9836 28.5226C61.6803 33.1391 61.1161 63.4538 61.1286 67.4074C61.1412 71.3609 66.4231 74.6397 66.4231 74.6397L61.8284 80.5855Z" fill="#FAA400"/>
<path d="M65.3583 155.696C65.3583 155.696 58.3293 225.569 45.2592 260.535C32.1891 295.502 12.5571 339.055 11.3776 383.21C10.1982 427.365 10.2442 652.072 10.2442 652.072C10.2442 652.072 7.00145 668.557 24.149 673.116C41.2965 677.674 73.5902 678.891 95.9946 678.821C118.4 678.751 167.156 676.621 174.39 671.986C181.624 667.35 184.202 648.891 184.202 648.891L184.156 424.182C184.156 424.182 185.332 378.71 172.016 335.259C158.701 291.809 146.752 264.17 138.082 231.248C129.412 198.327 127.3 155.5 127.3 155.5L65.3583 155.696Z" fill="#00462A"/>
<path d="M10 630.989C27.518 632.033 54.946 633.138 92.0539 633.077C137.259 633.002 168.074 630.892 184.112 629.426L184.071 525.096L10.548 525.511C10.109 557.541 10.0184 608.103 10 630.989Z" fill="#F5F5F7"/>
<g opacity="0.24">
<path d="M73.041 83.8451C73.041 83.8451 75.9866 182.681 69.5177 220.922C63.0479 259.162 30.3317 346.219 29.159 392.351C27.9854 438.482 31.9714 661.665 31.9714 661.665L68.2805 666.388C68.2805 666.388 64.8545 414.672 66.0774 384.357C67.3004 354.04 84.123 255.142 85.3208 216.919C86.5187 178.694 85.5603 83.147 85.5603 83.147L73.041 83.8451Z" fill="#EBEBEB"/>
</g>
<path d="M44.7 292.168C41.9745 275.253 77.5286 253.844 98.6196 255.096C119.711 256.347 150.072 272.068 151.461 294.468C152.849 316.868 98.8137 317.038 98.8137 317.038C98.8137 317.038 48.7322 317.196 44.7 292.168Z" fill="#D9E3DD"/>
<path d="M61.1277 67.4082L127.679 65.8813L123.744 71.8238L66.4222 74.6397L61.1277 67.4082Z" fill="#201011"/>
<path d="M61.7187 45.6599L125.635 44.8003L124.958 38.8721L61.7019 40.388L61.7187 45.6599Z" fill="#201011"/>
<path d="M55.6397 584.176C55.6397 585.256 55.4464 586.029 55.0597 586.496C54.673 586.949 54.0864 587.176 53.2997 587.176C52.5264 587.176 51.9597 586.969 51.5997 586.556C51.2397 586.129 51.0597 585.382 51.0597 584.316L51.0397 582.056H46.9597V584.176C46.9597 585.269 46.773 586.042 46.3997 586.496C46.0264 586.949 45.433 587.176 44.6197 587.176C43.8464 587.176 43.2797 586.969 42.9197 586.556C42.5597 586.129 42.3797 585.382 42.3797 584.316L42.3197 575.876C42.3197 575.049 42.5264 574.442 42.9397 574.056C43.3664 573.669 43.9264 573.476 44.6197 573.476C45.4197 573.476 46.0064 573.622 46.3797 573.916C46.7664 574.209 46.9597 574.802 46.9597 575.696V579.056H51.0197V575.876C51.0197 575.316 51.1197 574.856 51.3197 574.496C51.533 574.122 51.7997 573.862 52.1197 573.716C52.453 573.556 52.8464 573.476 53.2997 573.476C54.073 573.476 54.653 573.622 55.0397 573.916C55.4397 574.209 55.6397 574.802 55.6397 575.696V584.176ZM61.2852 587.296C60.2318 587.296 59.3585 586.869 58.6652 586.016C57.9718 585.149 57.6252 583.969 57.6252 582.476C57.6252 580.956 57.9652 579.749 58.6452 578.856C59.3385 577.949 60.2185 577.496 61.2852 577.496C62.3652 577.496 63.3652 577.876 64.2852 578.636C64.6452 577.969 65.2252 577.636 66.0252 577.636C66.7452 577.636 67.3052 577.796 67.7052 578.116C68.1052 578.422 68.3052 578.996 68.3052 579.836V585.036C68.3052 585.836 68.1385 586.396 67.8052 586.716C67.4718 587.022 66.8852 587.176 66.0452 587.176C65.1652 587.176 64.5852 586.929 64.3052 586.436C63.4518 587.009 62.4452 587.296 61.2852 587.296ZM64.0052 580.556C63.7785 580.169 63.4852 579.976 63.1252 579.976C62.7785 579.976 62.4985 580.229 62.2852 580.736C62.0718 581.242 61.9652 581.822 61.9652 582.476C61.9652 583.089 62.0652 583.636 62.2652 584.116C62.4652 584.596 62.7452 584.836 63.1052 584.836C63.4785 584.836 63.7785 584.656 64.0052 584.296V580.556ZM76.1056 579.696C76.1056 579.389 75.9323 579.236 75.5856 579.236C75.3323 579.236 75.1056 579.376 74.9056 579.656C74.7056 579.936 74.5523 580.289 74.4456 580.716C74.339 581.129 74.2856 581.562 74.2856 582.016C74.2856 582.682 74.4856 583.222 74.8856 583.636C75.299 584.049 75.8523 584.256 76.5456 584.256C77.2256 584.256 77.8123 584.176 78.3056 584.016C78.5056 583.962 78.7456 583.862 79.0256 583.716C79.319 583.569 79.5256 583.496 79.6456 583.496C79.8323 583.496 79.9856 583.529 80.1056 583.596C80.2256 583.662 80.3056 583.742 80.3456 583.836C80.399 583.929 80.4256 584.029 80.4256 584.136C80.4256 584.322 80.359 584.549 80.2256 584.816C80.1056 585.082 79.9123 585.362 79.6456 585.656C79.379 585.949 79.0656 586.222 78.7056 586.476C78.359 586.716 77.9256 586.916 77.4056 587.076C76.8856 587.236 76.339 587.316 75.7656 587.316C74.1123 587.316 72.7523 586.876 71.6856 585.996C70.619 585.102 70.0856 583.882 70.0856 582.336C70.0856 581.349 70.3256 580.489 70.8056 579.756C71.299 579.009 71.9723 578.449 72.8256 578.076C73.679 577.689 74.659 577.496 75.7656 577.496C76.819 577.496 77.6856 577.622 78.3656 577.876C79.059 578.116 79.5523 578.442 79.8456 578.856C80.139 579.269 80.2856 579.762 80.2856 580.336C80.2856 580.589 80.2323 580.849 80.1256 581.116C80.0323 581.382 79.879 581.649 79.6656 581.916C79.4656 582.182 79.1656 582.402 78.7656 582.576C78.3656 582.736 77.899 582.816 77.3656 582.816C77.1256 582.816 76.9256 582.802 76.7656 582.776C76.619 582.749 76.459 582.696 76.2856 582.616C76.1256 582.522 76.0056 582.376 75.9256 582.176C75.8456 581.976 75.8056 581.722 75.8056 581.416C75.8056 581.149 75.8523 580.829 75.9456 580.456C76.0523 580.069 76.1056 579.816 76.1056 579.696ZM87.2783 584.336H86.5583C86.5583 585.029 86.3583 585.676 85.9583 586.276C85.5583 586.876 85.0249 587.176 84.3583 587.176C83.6116 587.176 83.0583 586.969 82.6983 586.556C82.3516 586.129 82.1783 585.382 82.1783 584.316V576.096C82.1783 575.522 82.2716 575.062 82.4583 574.716C82.6449 574.356 82.8849 574.102 83.1783 573.956C83.4849 573.809 83.8783 573.722 84.3583 573.696C85.1849 573.696 85.7383 573.976 86.0183 574.536C86.2983 575.082 86.4383 576.036 86.4383 577.396C86.4383 578.449 86.3783 579.376 86.2583 580.176C86.3516 580.469 86.6516 580.616 87.1583 580.616C87.4783 580.616 87.6916 580.549 87.7983 580.416C87.9183 580.269 87.9783 579.982 87.9783 579.556C87.9783 578.929 88.1383 578.476 88.4583 578.196C88.7916 577.916 89.3516 577.776 90.1383 577.776C90.9649 577.776 91.5183 577.929 91.7983 578.236C92.0916 578.529 92.2383 579.069 92.2383 579.856C92.2383 580.682 91.9916 581.322 91.4983 581.776C91.0049 582.229 90.4516 582.456 89.8383 582.456C90.4649 582.456 91.0183 582.649 91.4983 583.036C91.9916 583.409 92.2383 583.976 92.2383 584.736C92.2383 585.749 92.0983 586.409 91.8183 586.716C91.5516 587.022 90.9916 587.176 90.1383 587.176C89.3516 587.176 88.7916 587.036 88.4583 586.756C88.1383 586.462 87.9783 586.009 87.9783 585.396C87.9783 585.089 87.9516 584.862 87.8983 584.716C87.8449 584.556 87.7716 584.456 87.6783 584.416C87.5983 584.362 87.4649 584.336 87.2783 584.336ZM97.3984 587.296C96.3451 587.296 95.4718 586.869 94.7784 586.016C94.0851 585.149 93.7384 583.969 93.7384 582.476C93.7384 580.956 94.0784 579.749 94.7584 578.856C95.4518 577.949 96.3318 577.496 97.3984 577.496C98.4784 577.496 99.4784 577.876 100.398 578.636C100.758 577.969 101.338 577.636 102.138 577.636C102.858 577.636 103.418 577.796 103.818 578.116C104.218 578.422 104.418 578.996 104.418 579.836V585.036C104.418 585.836 104.252 586.396 103.918 586.716C103.585 587.022 102.998 587.176 102.158 587.176C101.278 587.176 100.698 586.929 100.418 586.436C99.5651 587.009 98.5584 587.296 97.3984 587.296ZM100.118 580.556C99.8918 580.169 99.5984 579.976 99.2384 579.976C98.8918 579.976 98.6118 580.229 98.3984 580.736C98.1851 581.242 98.0784 581.822 98.0784 582.476C98.0784 583.089 98.1784 583.636 98.3784 584.116C98.5784 584.596 98.8584 584.836 99.2184 584.836C99.5918 584.836 99.8918 584.656 100.118 584.296V580.556ZM107.299 582.896V580.536C106.966 580.522 106.699 580.469 106.499 580.376C106.299 580.269 106.152 580.136 106.059 579.976C105.979 579.816 105.939 579.616 105.939 579.376C105.939 578.616 106.399 578.202 107.319 578.136V576.276C107.319 575.769 107.686 575.316 108.419 574.916C109.152 574.502 109.879 574.296 110.599 574.296C111.039 574.296 111.326 574.422 111.459 574.676C111.592 574.929 111.659 575.309 111.659 575.816L111.679 578.116H112.219C112.952 578.116 113.452 578.216 113.719 578.416C113.999 578.602 114.139 578.949 114.139 579.456C114.139 579.669 114.099 579.849 114.019 579.996C113.939 580.142 113.806 580.256 113.619 580.336C113.446 580.416 113.232 580.476 112.979 580.516C112.726 580.542 112.412 580.556 112.039 580.556H111.679V582.756C111.679 582.969 111.686 583.149 111.699 583.296C111.726 583.429 111.759 583.536 111.799 583.616C111.839 583.696 111.892 583.749 111.959 583.776C112.039 583.802 112.132 583.816 112.239 583.816C112.399 583.816 112.532 583.762 112.639 583.656C112.746 583.536 112.826 583.409 112.879 583.276C112.946 583.129 113.026 583.002 113.119 582.896C113.226 582.776 113.346 582.716 113.479 582.716C113.786 582.716 114.019 582.789 114.179 582.936C114.352 583.082 114.439 583.262 114.439 583.476C114.439 583.836 114.366 584.222 114.219 584.636C114.086 585.049 113.886 585.449 113.619 585.836C113.352 586.222 112.979 586.542 112.499 586.796C112.032 587.049 111.506 587.176 110.919 587.176C109.599 587.176 108.666 586.842 108.119 586.176C107.572 585.509 107.299 584.416 107.299 582.896ZM122.578 581.816C122.578 581.056 122.285 580.676 121.698 580.676C121.592 580.676 121.492 580.689 121.398 580.716C121.318 580.742 121.238 580.776 121.158 580.816C121.092 580.856 121.025 580.916 120.958 580.996C120.905 581.062 120.852 581.142 120.798 581.236C120.758 581.316 120.725 581.416 120.698 581.536C120.685 581.656 120.678 581.789 120.678 581.936V584.136C120.678 585.229 120.498 586.009 120.138 586.476C119.792 586.929 119.258 587.156 118.538 587.156C117.792 587.156 117.245 586.949 116.898 586.536C116.552 586.109 116.378 585.362 116.378 584.296L116.338 575.776C116.338 574.949 116.538 574.342 116.938 573.956C117.338 573.569 117.872 573.376 118.538 573.376C119.245 573.376 119.778 573.522 120.138 573.816C120.498 574.109 120.678 574.702 120.678 575.596V578.496C121.665 577.896 122.865 577.596 124.278 577.596C124.918 577.596 125.432 577.762 125.818 578.096C126.205 578.416 126.492 578.929 126.678 579.636C126.865 580.342 126.958 581.269 126.958 582.416C126.958 583.002 126.945 583.509 126.918 583.936C126.905 584.362 126.878 584.756 126.838 585.116C126.798 585.462 126.738 585.749 126.658 585.976C126.578 586.202 126.485 586.396 126.378 586.556C126.272 586.716 126.132 586.842 125.958 586.936C125.798 587.016 125.618 587.076 125.418 587.116C125.218 587.156 124.978 587.176 124.698 587.176C123.952 587.176 123.412 587.042 123.078 586.776C122.758 586.496 122.598 586.076 122.598 585.516L122.578 581.816ZM135.259 582.436C135.259 581.742 135.172 581.136 134.999 580.616C134.826 580.082 134.572 579.816 134.239 579.816C134.012 579.816 133.812 579.949 133.639 580.216C133.466 580.482 133.339 580.809 133.259 581.196C133.179 581.582 133.139 581.996 133.139 582.436C133.139 583.116 133.232 583.716 133.419 584.236C133.606 584.742 133.872 584.996 134.219 584.996C134.566 584.996 134.826 584.742 134.999 584.236C135.172 583.729 135.259 583.129 135.259 582.436ZM134.219 587.316C133.179 587.316 132.239 587.129 131.399 586.756C130.572 586.382 129.906 585.822 129.399 585.076C128.906 584.329 128.659 583.456 128.659 582.456C128.659 580.936 129.179 579.729 130.219 578.836C131.259 577.942 132.592 577.496 134.219 577.496C135.846 577.496 137.172 577.942 138.199 578.836C139.226 579.729 139.739 580.936 139.739 582.456C139.739 583.962 139.212 585.149 138.159 586.016C137.119 586.882 135.806 587.316 134.219 587.316ZM147.556 581.796C147.556 581.049 147.263 580.676 146.676 580.676C146.396 580.676 146.163 580.796 145.976 581.036C145.803 581.262 145.703 581.569 145.676 581.956V585.036C145.676 585.849 145.509 586.409 145.176 586.716C144.843 587.022 144.256 587.176 143.416 587.176C142.629 587.176 142.089 586.996 141.796 586.636C141.516 586.262 141.376 585.656 141.376 584.816V579.896C141.376 579.216 141.556 578.669 141.916 578.256C142.289 577.842 142.783 577.636 143.396 577.636C143.903 577.636 144.329 577.709 144.676 577.856C145.023 578.002 145.283 578.256 145.456 578.616C146.496 577.936 147.763 577.596 149.256 577.596C150.203 577.596 150.883 577.969 151.296 578.716C151.723 579.462 151.936 580.689 151.936 582.396C151.936 583.236 151.916 583.922 151.876 584.456C151.836 584.976 151.769 585.429 151.676 585.816C151.596 586.189 151.463 586.469 151.276 586.656C151.089 586.842 150.869 586.976 150.616 587.056C150.376 587.136 150.063 587.176 149.676 587.176C148.929 587.176 148.389 587.036 148.056 586.756C147.736 586.476 147.576 586.062 147.576 585.516L147.556 581.796Z" fill="black"/>
</svg>
