<svg width="227" height="700" viewBox="0 0 227 700" fill="none" xmlns="http://www.w3.org/2000/svg">
<path d="M86.0013 184.367C91.4463 144.927 97.491 95.0138 100.796 67.1684C103.14 67.3144 105.66 67.3277 108.104 67.3085C105.873 95.7393 102.077 142.923 98.6409 180.56C98.283 184.517 97.9073 188.417 97.5164 192.248C97.5372 192.234 97.5688 192.225 97.5885 192.211C98.9002 191.258 99.8616 187.582 101.343 186.922C102.824 186.263 106.199 188.008 107.785 187.671C109.371 187.334 111.744 184.367 113.366 184.367C114.987 184.367 117.36 187.334 118.946 187.671C120.532 188.008 123.907 186.263 125.389 186.922C126.87 187.582 127.831 191.258 129.143 192.211C129.699 192.615 130.704 192.807 131.757 192.987C131.474 190.147 131.199 187.273 130.932 184.367C127.332 144.956 123.346 95.0865 121.168 67.229C122.76 67.2037 124.359 67.1586 125.926 67.083C129.228 94.9115 135.28 144.886 140.73 184.367C140.996 186.288 141.269 188.193 141.546 190.087C143.804 188.163 146.062 186.24 148.361 184.367C140.208 138.234 136.158 85.2031 134.846 65.534C135.286 65.3314 135.733 65.1073 136.198 64.8635C138.573 63.6192 140.055 60.9797 140.633 58.2666C141.212 55.5536 141.012 52.7338 140.81 49.9621C140.426 44.7127 140.043 39.4634 139.66 34.214C139.494 31.9412 139.323 29.6403 138.622 27.4819C136.901 22.1722 132.145 18.4341 127.056 16.683C122.667 15.1726 118.003 14.9167 113.367 14.8423C108.73 14.9164 104.067 15.1726 99.677 16.683C94.588 18.4341 89.8324 22.1725 88.1109 27.4819C87.4108 29.6403 87.2397 31.9412 87.0737 34.214C86.6901 39.4634 86.3071 44.7127 85.9235 49.9621C85.7214 52.7338 85.5219 55.5536 86.1 58.2666C86.6783 60.9797 88.16 63.6194 90.5348 64.8635C90.9863 65.1 91.4364 65.2992 91.8885 65.4754C90.5821 85.0977 86.5315 138.188 78.3704 184.367C80.6668 186.237 82.9222 188.159 85.1775 190.08C85.4551 188.183 85.7355 186.291 86.0013 184.367ZM93.0469 55.8805C94.3929 55.3383 94.8701 53.6481 94.7892 52.1988C94.7086 50.7498 94.252 49.306 94.4674 47.8708C94.6593 46.5915 95.3763 45.408 95.3879 44.1147C95.3989 42.8991 94.7839 41.7621 94.6514 40.5541C94.4786 38.9747 95.2486 37.5739 95.2999 36.0655C95.3625 34.2357 94.1906 32.1523 93.4561 30.5362C99.4025 31.3868 105.453 31.5072 111.428 30.8942C107.699 32.9511 103.267 33.1656 99.1604 34.2946C98.9228 34.36 98.6666 34.442 98.5285 34.6461C98.1914 35.1436 98.8038 35.7089 99.1978 36.163C100.043 37.137 99.6268 37.889 99.4033 38.9115C99.1093 40.2542 99.3176 41.6164 99.5735 42.9836C99.7508 43.9312 99.9949 44.919 99.7156 45.8418C99.3957 46.8982 98.4529 47.6515 98.0045 48.6603C97.1928 50.4863 98.1981 52.6295 99.5473 54.1038C102.43 57.2543 106.699 58.6826 110.81 59.8376C112.83 60.4053 115.03 60.9298 116.982 60.1561C114.537 61.2486 111.766 61.4044 109.1 61.1533C106.434 60.9022 103.822 60.2646 101.179 59.8314C97.6339 59.2503 93.7833 58.9338 91.0565 56.5942C91.5768 56.1077 92.3859 56.1466 93.0469 55.8805ZM90.5748 60.5676C92.3067 60.9146 93.9823 61.5149 95.6553 62.0763C97.7511 62.7793 99.832 63.2325 102.022 63.5185C106.545 64.1093 111.126 64.3083 115.682 64.1011C117.907 63.9999 120.127 63.7953 122.331 63.4765C124.2 63.2063 126.076 62.8771 127.858 62.2373C131.256 61.0172 134.157 58.5299 134.593 54.765C135.024 51.0413 133.061 47.6059 132.419 44.0295C132.066 42.0637 132.432 40.0998 132.62 38.1348C132.826 35.9922 132.933 33.8073 132.443 31.6935C132.081 30.1256 131.443 28.4607 130.008 27.587C128.884 26.9024 127.499 26.7761 126.212 26.8517C123.189 27.0292 120.351 28.1718 117.402 28.7423C115.419 29.1259 113.323 29.1304 111.311 29.1059C108.934 29.0766 106.559 28.8753 104.204 28.5512C101.944 28.2398 99.7085 27.793 97.4645 27.3852C95.7748 27.0783 94.0519 26.7282 92.5722 25.8122C92.3208 25.6567 92.1007 25.465 91.8724 25.2827C95.0401 25.5606 98.1931 25.985 101.354 26.3404C105.349 26.7894 109.307 26.9624 113.323 26.7609C117.334 26.5597 121.359 26.04 125.289 25.2144C127.991 24.6471 130.791 24.1632 133.356 23.1116L133.442 23.0724C135.501 25.7001 137.72 28.6927 138.28 32.0247L138.307 32.2499C138.359 32.7687 138.407 33.2873 138.447 33.8073C138.493 34.9124 138.462 36.0246 138.484 37.126C138.519 38.8895 138.828 40.6251 138.76 42.394C138.694 44.124 137.968 45.6665 137.725 47.3618C137.505 48.895 138.054 50.4068 138.457 51.864C138.864 53.3375 139.015 54.745 138.68 56.2481C138.447 57.2965 138.026 58.281 137.417 59.1669C134.908 62.8165 129.949 64.0464 125.839 64.7231L125.739 64.7378C121.447 65.5526 117.141 65.868 113.368 65.87C110.152 65.8683 106.243 65.3722 102.785 64.7389C100.956 64.4565 99.1412 64.0935 97.3596 63.6138C95.936 63.2308 94.5133 62.7378 93.1728 62.124C92.2791 61.7133 91.3473 61.2201 90.5748 60.5676Z" fill="#FFD659"/>
<path d="M63.3817 518.785C75.6752 514.323 91.0828 510.717 113.229 510.717C137.288 510.717 153.425 514.978 166.21 519.968V408.49C166.21 381.094 163.126 358.068 158.735 335.755L149.745 339.337L148.033 340.01L146.175 340.757L144.482 341.431L141.568 342.597C139.346 337.096 136.377 328.864 133.827 323.601L129.511 314.221C127.854 311.052 123.847 303.421 122.263 300.398C119.421 295.408 116.453 290.472 113.375 285.609C110.297 290.472 107.328 295.408 104.487 300.398C102.884 303.421 98.8774 311.052 97.2202 314.221L92.9035 323.601C90.3539 328.864 87.385 337.096 85.1632 342.597L81.4476 341.121L79.754 340.447L69.9658 336.546C66.0541 357.438 63.3811 379.165 63.3811 404.683V518.785H63.3817Z" fill="black" fill-opacity="0.9"/>
<path d="M166.21 648.623C153.17 652.848 137.398 655.325 113.229 655.325C90.9555 655.325 75.821 653.213 63.3818 649.57V657.693C63.3818 669.04 66.4959 677.344 71.2498 683.427C87.8051 685.176 103.759 685.158 113.357 685.158C123.902 685.158 142.133 685.176 160.382 682.863C163.97 677.581 166.21 670.624 166.21 661.5V648.623Z" fill="black"/>
<path d="M163.915 245.05C161.948 239.532 160.072 233.832 158.324 227.931C155.696 230.7 153.129 233.525 150.585 236.371C151.337 239.313 152.108 242.208 152.896 245.05C156.359 257.574 160.152 269.203 163.985 280.332C164.249 280.746 164.526 281.152 164.789 281.567L171.072 291.821L176.864 302.42C178.376 305.061 181.089 310.397 182.346 313.239L187.555 324.275L180.224 327.196C188.261 352.23 194.203 377.581 194.203 408.49V532.099C196.625 532.973 199.083 533.738 201.615 534.321C203.728 534.831 205.585 535.068 208.008 535.669C208.208 535.778 208.408 536.47 208.554 537.617C208.682 538.491 208.809 539.621 208.9 540.987C210.23 558.161 209.975 611.779 208.682 626.258C208.518 628.243 208.336 629.518 208.117 629.864L208.008 629.955C203.582 631.995 198.756 633.944 194.203 636.166V661.499C194.203 667.145 192.909 671.935 190.632 676.033C205.749 670.46 216.731 661.444 216.731 646.911V408.49C216.731 365.91 202.343 333.873 186.353 298.687C178.776 282.004 170.836 264.611 163.915 245.05Z" fill="black"/>
<path d="M32.5295 636.293C27.6666 633.925 22.0573 631.667 18.4877 629.955L18.3784 629.827C18.178 629.427 17.9959 628.17 17.8319 626.24C16.6662 611.633 16.6481 558.216 17.7772 541.005C17.8502 539.657 17.9596 538.51 18.0503 537.654C18.196 536.525 18.3418 535.851 18.4875 535.669C20.3088 535.268 22.7673 534.831 24.88 534.321C27.5025 533.72 30.0338 532.937 32.5292 532.008V408.49C32.5292 377.582 38.4688 352.228 46.4994 327.194L39.1766 324.275L44.3856 313.238C45.6421 310.397 48.3559 305.061 49.8678 302.42L55.6591 291.82L61.9423 281.567C62.1976 281.163 62.4671 280.769 62.7238 280.366C66.8458 268.409 70.9182 255.876 74.6002 242.264C75.1244 240.326 75.6368 238.353 76.1447 236.369C73.6013 233.524 71.0349 230.7 68.4078 227.931C66.9506 232.848 65.4028 237.62 63.7999 242.264C57.116 261.587 49.4303 278.762 41.9812 295.153C25.3715 331.742 10 364.488 10 408.49V646.91C10 661.444 20.9821 670.459 36.0985 676.032C33.8221 671.934 32.529 667.127 32.529 661.499V636.293H32.5295Z" fill="black"/>
<path d="M194.203 636.166C193.292 636.603 192.381 637.058 191.507 637.513C183.111 641.884 175.334 645.691 166.21 648.623V661.499C166.21 670.624 163.969 677.581 160.382 682.862C170.963 681.533 181.544 679.402 190.633 676.032C192.909 671.934 194.203 667.145 194.203 661.499V636.166Z" fill="#EAE8E2"/>
<path d="M163.985 280.332C160.152 269.203 156.359 257.574 152.896 245.051C152.109 242.208 151.337 239.313 150.585 236.372C147.257 240.095 143.982 243.868 140.803 247.728C149.077 258.197 156.811 269.082 163.985 280.332Z" fill="#AAAAAA"/>
<path d="M166.21 408.49V519.969C177.01 524.195 185.424 528.93 194.203 532.099V408.49C194.203 377.581 188.261 352.23 180.224 327.196L158.736 335.756C163.126 358.069 166.21 381.095 166.21 408.49Z" fill="#AAAAAA"/>
<path d="M135.779 195.106C137.688 193.417 139.606 191.74 141.546 190.086C141.269 188.193 140.996 186.288 140.73 184.366C135.28 144.886 129.228 94.9113 125.926 67.0825C124.359 67.1581 122.76 67.2031 121.168 67.2285C123.346 95.086 127.331 144.955 130.932 184.366C131.199 187.272 131.474 190.147 131.757 192.987C133.187 193.231 134.708 193.453 135.333 194.146C135.541 194.378 135.673 194.722 135.779 195.106Z" fill="#F4B749"/>
<path d="M97.5164 192.248C97.9073 188.417 98.283 184.518 98.6409 180.56C102.077 142.923 105.873 95.739 108.104 67.3085C105.66 67.3277 103.14 67.3145 100.796 67.1685C97.491 95.0139 91.4463 144.927 86.0013 184.367C85.7353 186.291 85.4551 188.183 85.1775 190.08C87.1202 191.735 89.0416 193.414 90.9531 195.106C91.0582 194.722 91.1904 194.378 91.3986 194.147C92.4674 192.96 96.1517 193.152 97.5164 192.248Z" fill="#FFE596"/>
<path d="M63.3817 649.57C52.8911 646.528 44.2949 642.376 34.97 637.513C34.1868 637.113 33.3855 636.694 32.5295 636.293V661.499C32.5295 667.127 33.8227 671.935 36.0991 676.033C46.5896 679.93 59.0835 682.152 71.2496 683.427C66.496 677.344 63.3817 669.039 63.3817 657.693V649.57Z" fill="#EAE8E2"/>
<path d="M76.145 236.369C75.6374 238.352 75.125 240.326 74.6005 242.264C70.9182 255.876 66.8461 268.409 62.7241 280.366C69.9047 269.104 77.6467 258.208 85.9287 247.727C82.7489 243.866 79.4739 240.093 76.145 236.369Z" fill="#AAAAAA"/>
<path d="M63.3817 404.684C63.3817 379.166 66.0547 357.439 69.9664 336.547L46.4997 327.194C38.4691 352.228 32.5295 377.582 32.5295 408.491V532.008C42.0548 528.548 51.1609 523.248 63.3817 518.786V404.684Z" fill="#AAAAAA"/>
<path d="M97.3598 63.6127C99.1413 64.0924 100.956 64.4554 102.785 64.7378C106.243 65.3711 110.152 65.8671 113.368 65.8688C117.141 65.8669 121.447 65.5515 125.739 64.7366L125.839 64.722C129.949 64.0456 134.908 62.8156 137.417 59.1657C138.026 58.2799 138.447 57.2954 138.68 56.2469C139.016 54.7439 138.865 53.3366 138.457 51.8628C138.054 50.4057 137.505 48.8942 137.725 47.3607C137.969 45.6654 138.695 44.1228 138.761 42.3929C138.828 40.624 138.52 38.8881 138.484 37.1249C138.462 36.0235 138.493 34.9113 138.447 33.8062C138.407 33.2862 138.359 32.7676 138.307 32.2487L138.281 32.0235C137.719 28.6916 135.502 25.6992 133.442 23.0713L133.356 23.1105C130.791 24.162 127.992 24.646 125.289 25.2133C121.359 26.0388 117.334 26.5586 113.323 26.7598C109.307 26.9613 105.349 26.7885 101.354 26.3393C98.1932 25.9839 95.0402 25.5594 91.8726 25.2815C92.1009 25.4639 92.321 25.6555 92.5724 25.8111C94.0521 26.7271 95.775 27.0771 97.4646 27.3841C99.7087 27.7919 101.944 28.2386 104.204 28.5501C106.559 28.8742 108.934 29.0754 111.311 29.1047C113.323 29.1293 115.42 29.1245 117.402 28.7412C120.351 28.1704 123.19 27.0281 126.212 26.8505C127.499 26.775 128.884 26.9013 130.008 27.5859C131.444 28.4599 132.081 30.1245 132.444 31.6924C132.933 33.8062 132.827 35.9913 132.621 38.1336C132.432 40.0986 132.066 42.0623 132.419 44.0284C133.061 47.6047 135.024 51.0404 134.593 54.7639C134.157 58.529 131.256 61.0163 127.858 62.2361C126.076 62.8759 124.2 63.2051 122.332 63.4754C120.127 63.7942 117.908 63.9988 115.683 64.1C111.126 64.3074 106.545 64.1081 102.022 63.5174C99.8321 63.2313 97.7513 62.7781 95.6555 62.0752C93.9825 61.5138 92.3069 60.9134 90.575 60.5665C91.3475 61.2192 92.2793 61.7122 93.173 62.1217C94.5135 62.7367 95.9362 63.2296 97.3598 63.6127Z" fill="#F4B749"/>
<path d="M101.18 59.8318C103.822 60.2647 106.435 60.9026 109.101 61.1537C111.767 61.4051 114.537 61.2492 116.982 60.1565C115.031 60.9302 112.831 60.4057 110.81 59.838C106.699 58.6827 102.43 57.2546 99.5477 54.1042C98.1985 52.6299 97.1934 50.4867 98.0049 48.6606C98.4533 47.6522 99.3961 46.8985 99.716 45.8422C99.9953 44.9194 99.7515 43.9316 99.5739 42.984C99.318 41.6168 99.1097 40.2546 99.4037 38.9119C99.6275 37.8894 100.044 37.1374 99.1982 36.1634C98.8042 35.7093 98.1915 35.1439 98.5288 34.6465C98.6672 34.4424 98.9231 34.3604 99.1607 34.295C103.267 33.1659 107.699 32.9515 111.428 30.8946C105.453 31.5076 99.4025 31.3872 93.4565 30.5366C94.1907 32.1527 95.3626 34.2361 95.3003 36.0658C95.249 37.5743 94.479 38.9748 94.6518 40.5545C94.7842 41.7628 95.3992 42.8997 95.3882 44.115C95.3767 45.4084 94.6594 46.5919 94.4677 47.8712C94.2524 49.3061 94.7087 50.7499 94.7896 52.1992C94.8705 53.6482 94.3933 55.3387 93.0472 55.8809C92.3863 56.147 91.5771 56.1081 91.0571 56.5948C93.7837 58.9339 97.6343 59.2504 101.18 59.8318Z" fill="#FFE596"/>
<path d="M148.033 340.011C141.441 316.28 130.841 294.844 119.312 276.522C118.711 277.414 118.11 278.289 117.546 279.181C128.856 296.975 139.346 317.755 146.176 340.758L148.033 340.011Z" fill="#2C2B39"/>
<path d="M129.511 314.222L133.827 323.602C136.377 328.865 139.346 337.097 141.568 342.597L144.482 341.432C137.798 318.848 127.544 298.413 116.453 280.856C115.415 282.441 114.377 284.007 113.375 285.61C116.453 290.473 119.422 295.408 122.263 300.399C123.847 303.422 127.854 311.053 129.511 314.222Z" fill="#2C2B39"/>
<path d="M90.1538 242.482C90.828 241.626 91.5196 240.788 92.2304 239.951C83.7796 230.061 76.1667 222.357 70.7395 217.203C70.4117 218.441 70.0656 219.68 69.7195 220.918C74.9829 225.945 82.177 233.23 90.1538 242.482Z" fill="#2C2B39"/>
<path d="M93.4138 238.531C93.98 237.856 94.5609 237.193 95.1313 236.522C94.5189 234.995 94.2066 232.762 93.4183 231.886C92.3335 230.681 88.577 230.11 87.7662 228.705C86.9556 227.301 88.3386 223.762 87.8375 222.22C87.3363 220.678 84.0531 218.635 83.968 217.015C83.8829 215.396 86.5013 212.732 86.6709 211.12C86.8403 209.507 84.7518 206.333 85.2527 204.791C85.7538 203.249 89.3093 201.909 90.1199 200.505C90.7751 199.37 90.5108 196.723 90.953 195.105C89.0415 193.413 87.1202 191.734 85.1774 190.079C82.9221 188.158 80.6668 186.237 78.3703 184.366C75.6567 196.113 73.7078 205.693 71.2495 215.182C76.7131 220.337 84.5991 228.259 93.4138 238.531Z" fill="#2C2B39"/>
<path d="M120.423 274.883C132.17 293.442 143.007 315.206 149.745 339.337L158.736 335.756L180.224 327.196L187.555 324.275L182.346 313.239C181.09 310.398 178.376 305.061 176.864 302.42L171.073 291.821L164.789 281.567C164.526 281.151 164.249 280.746 163.985 280.332C156.811 269.082 149.077 258.197 140.803 247.728C133.591 256.47 126.798 265.522 120.423 274.883Z" fill="#2C2B39"/>
<path d="M85.9285 247.728C86.9485 246.453 87.9685 245.178 88.9885 243.903C81.3212 234.979 74.3455 227.876 69.1548 222.868C68.6449 224.489 67.807 227.33 68.4082 227.931C71.0352 230.7 73.6017 233.524 76.1451 236.369C79.4737 240.094 82.7487 243.867 85.9285 247.728Z" fill="#2C2B39"/>
<path d="M88.9885 243.903C89.3707 243.43 89.7532 242.956 90.1537 242.483C82.1769 233.231 74.9828 225.946 69.7191 220.919C69.6097 221.265 69.519 221.629 69.4096 221.994C69.3549 222.194 69.2639 222.503 69.1545 222.868C74.3456 227.876 81.3209 234.979 88.9885 243.903Z" fill="#FFE596"/>
<path d="M146.176 340.758C139.346 317.755 128.856 296.975 117.546 279.181C117.163 279.727 116.799 280.292 116.453 280.838V280.856C127.545 298.413 137.798 318.848 144.482 341.432L146.176 340.758Z" fill="#FFE596"/>
<path d="M92.2305 239.951C92.6127 239.478 93.0134 239.004 93.4139 238.531C84.5992 228.259 76.7132 220.336 71.2494 215.182C71.0851 215.856 70.9216 216.53 70.7393 217.204C76.1667 222.358 83.7796 230.062 92.2305 239.951Z" fill="#FFE596"/>
<path d="M149.745 339.337C143.007 315.206 132.17 293.442 120.423 274.883C120.041 275.43 119.676 275.976 119.312 276.522C130.841 294.844 141.44 316.28 148.033 340.011L149.745 339.337Z" fill="#FFE596"/>
<path d="M137.306 243.356C130.841 250.824 123.829 259.602 116.927 269.51C116.544 270.038 116.162 270.566 115.797 271.112C115.196 271.986 114.595 272.861 113.994 273.753C113.648 274.282 113.284 274.828 112.92 275.374V275.392C111.882 276.94 110.862 278.507 109.824 280.127C98.623 297.757 88.2052 318.356 81.4482 341.121L85.1638 342.597C87.3856 337.097 90.3545 328.865 92.9041 323.601L97.2208 314.222C98.8781 311.052 102.885 303.422 104.488 300.398C107.329 295.408 110.297 290.472 113.375 285.61C114.377 284.007 115.415 282.44 116.453 280.856V280.838C116.799 280.291 117.164 279.727 117.546 279.181C118.111 278.288 118.712 277.414 119.313 276.521C119.677 275.975 120.041 275.429 120.424 274.883C126.798 265.521 133.592 256.47 140.804 247.728C143.983 243.867 147.258 240.095 150.586 236.371C153.13 233.525 155.697 230.7 158.324 227.93C158.943 227.202 158.124 225.581 157.796 224.452C157.596 223.778 157.395 223.068 157.213 222.357C152.077 227.275 145.083 234.378 137.306 243.356Z" fill="#373841"/>
<path d="M135.778 195.106C136.22 196.724 135.956 199.37 136.611 200.505C137.422 201.909 140.978 203.249 141.478 204.791C141.979 206.334 139.891 209.508 140.06 211.12C140.23 212.733 142.848 215.397 142.763 217.016C142.678 218.635 139.395 220.679 138.893 222.221C138.393 223.763 139.776 227.302 138.965 228.706C138.154 230.11 134.398 230.682 133.313 231.887C132.228 233.092 132.052 236.887 130.74 237.84C129.428 238.793 125.764 237.788 124.283 238.447C122.802 239.107 121.097 242.503 119.511 242.84C117.925 243.177 114.987 240.768 113.365 240.768C111.744 240.768 108.806 243.177 107.22 242.84C105.633 242.503 103.929 239.107 102.448 238.447C100.966 237.788 97.3024 238.793 95.9907 237.84C95.6319 237.58 95.3617 237.097 95.1311 236.522C94.5604 237.193 93.9795 237.857 93.4135 238.531C93.013 239.005 92.6123 239.478 92.2301 239.952C91.5196 240.789 90.8276 241.627 90.1534 242.483C89.7529 242.957 89.3705 243.43 88.9883 243.904C87.9683 245.179 86.9483 246.453 85.9283 247.728C77.6463 258.209 69.9043 269.105 62.7238 280.367C62.467 280.77 62.1976 281.164 61.9422 281.567L55.6591 291.821L49.8677 302.421C48.3559 305.062 45.6423 310.398 44.3856 313.239L39.1765 324.276L46.4994 327.195L69.9661 336.547L79.7545 340.448C86.6572 317.263 97.2931 296.356 108.731 278.489C109.751 276.886 110.789 275.302 111.827 273.754C112.191 273.207 112.555 272.661 112.919 272.133C113.502 271.24 114.122 270.366 114.722 269.492C115.087 268.946 115.47 268.418 115.834 267.889C122.736 258.055 129.693 249.349 136.141 241.937C144.227 232.593 151.476 225.309 156.685 220.373C153.716 209.099 151.057 195.276 148.361 184.367C146.062 186.24 143.805 188.163 141.547 190.086C139.606 191.739 137.687 193.417 135.778 195.106Z" fill="#373841"/>
<path d="M130.188 224.877C136.395 215.586 133.895 203.022 124.604 196.815C115.313 190.608 102.749 193.108 96.5421 202.399C90.335 211.69 92.8351 224.253 102.126 230.461C111.417 236.668 123.981 234.168 130.188 224.877Z" fill="#EA524F"/>
<path d="M102.448 238.447C103.929 239.107 105.634 242.503 107.22 242.839C108.806 243.177 111.745 240.768 113.366 240.768C114.987 240.768 117.926 243.176 119.512 242.839C121.098 242.503 122.802 239.107 124.283 238.447C125.765 237.788 129.429 238.793 130.741 237.84C132.052 236.887 132.229 233.091 133.313 231.887C134.398 230.682 138.155 230.11 138.966 228.706C139.776 227.302 138.393 223.762 138.894 222.22C139.395 220.678 142.678 218.635 142.764 217.016C142.849 215.396 140.23 212.733 140.061 211.12C139.891 209.508 141.98 206.333 141.479 204.791C140.978 203.249 137.422 201.909 136.612 200.505C135.957 199.37 136.221 196.724 135.779 195.106C135.674 194.722 135.541 194.378 135.333 194.146C134.708 193.453 133.187 193.231 131.757 192.987C130.704 192.807 129.7 192.614 129.143 192.21C127.832 191.257 126.87 187.581 125.389 186.922C123.908 186.262 120.533 188.008 118.947 187.671C117.361 187.333 114.987 184.366 113.366 184.366C111.745 184.366 109.371 187.333 107.785 187.671C106.199 188.008 102.824 186.262 101.343 186.922C99.8616 187.581 98.9005 191.257 97.5888 192.21C97.569 192.225 97.5375 192.234 97.5166 192.247C96.1519 193.152 92.4676 192.96 91.3989 194.146C91.1906 194.378 91.0584 194.721 90.9533 195.105C90.5111 196.723 90.7755 199.37 90.1202 200.505C89.3096 201.909 85.7541 203.249 85.253 204.791C84.7519 206.333 86.8406 209.507 86.6712 211.12C86.5016 212.732 83.8832 215.396 83.9683 217.016C84.0535 218.635 87.3369 220.678 87.8378 222.22C88.3386 223.762 86.9559 227.302 87.7665 228.706C88.5771 230.11 92.3335 230.681 93.4186 231.887C94.2069 232.762 94.5189 234.995 95.1316 236.522C95.3622 237.097 95.6325 237.58 95.9913 237.84C97.3027 238.793 100.967 237.788 102.448 238.447ZM91.3124 213.619C91.3124 201.459 101.206 191.566 113.366 191.566C125.526 191.566 135.419 201.46 135.419 213.619C135.419 225.78 125.526 235.673 113.366 235.673C101.206 235.673 91.3124 225.78 91.3124 213.619Z" fill="#EA524F"/>
<path d="M135.419 213.62C135.419 201.459 125.526 191.566 113.366 191.566C101.206 191.566 91.3127 201.46 91.3127 213.62C91.3127 225.78 101.206 235.673 113.366 235.673C125.526 235.673 135.419 225.78 135.419 213.62ZM93.134 213.62C93.134 202.464 102.21 193.388 113.366 193.388C124.522 193.388 133.598 202.464 133.598 213.62C133.598 224.776 124.522 233.852 113.366 233.852C102.21 233.852 93.134 224.776 93.134 213.62Z" fill="#D84949"/>
<path d="M136.141 241.936C129.694 249.349 122.736 258.055 115.834 267.889C115.47 268.417 115.087 268.946 114.723 269.492C114.121 270.366 113.502 271.24 112.92 272.133C112.555 272.661 112.191 273.207 111.827 273.754C110.789 275.302 109.751 276.886 108.731 278.489C97.2933 296.356 86.6573 317.263 79.7546 340.448L81.4483 341.122C88.2052 318.356 98.623 297.758 109.824 280.128C110.862 278.507 111.882 276.941 112.92 275.393V275.375C113.284 274.828 113.648 274.282 113.994 273.754C114.595 272.861 115.196 271.987 115.797 271.113C116.161 270.566 116.544 270.038 116.927 269.51C123.829 259.602 130.841 250.824 137.306 243.357C145.083 234.378 152.077 227.275 157.213 222.358C157.031 221.72 156.849 221.046 156.685 220.373C151.476 225.308 144.227 232.593 136.141 241.936Z" fill="#FFE596"/>
<path d="M200.644 538.389C201.706 538.639 202.686 538.825 203.633 539.005L204.553 539.182L204.614 539.802C204.658 540.255 204.701 540.76 204.741 541.317C206.078 558.504 205.742 612.224 204.526 625.909L204.426 626.998L203.98 627.197C202.945 627.657 201.885 628.12 200.792 628.598C198.584 629.563 196.382 630.547 194.203 631.559V636.166C198.756 633.944 203.582 631.995 208.008 629.955L208.117 629.864C208.335 629.518 208.518 628.243 208.682 626.258C209.975 611.779 210.23 558.162 208.9 540.987C208.809 539.621 208.682 538.492 208.554 537.618C208.408 536.47 208.208 535.778 208.008 535.669C205.585 535.068 203.728 534.831 201.615 534.321C199.083 533.738 196.625 532.973 194.203 532.099V536.52C196.305 537.237 198.44 537.876 200.644 538.389Z" fill="#F5F5F7"/>
<path d="M63.3818 518.786V523.24C75.6046 518.624 90.7816 514.894 113.237 514.894C137.641 514.894 153.449 519.296 166.21 524.456V519.97C153.424 514.979 137.288 510.718 113.229 510.718C91.0829 510.717 75.6753 514.324 63.3818 518.786Z" fill="#F5F5F7"/>
<path d="M63.3818 525.028V643.478C75.6877 647.278 90.6063 649.477 113.237 649.477C137.812 649.477 153.294 646.884 166.21 642.463V526.255C153.482 521.049 137.729 516.562 113.237 516.562C90.7019 516.563 75.5696 520.365 63.3818 525.028Z" fill="#F5F5F7"/>
<path d="M25.9106 628.713C24.6781 628.174 23.5629 627.687 22.5412 627.23L22.0953 627.029L21.9975 625.902C20.8504 611.564 20.8121 558.563 21.9364 541.26C21.9696 540.717 22.0045 540.234 22.0389 539.812L22.0911 539.186L22.7066 539.062C23.7517 538.851 24.8098 538.633 25.8264 538.392C28.1234 537.858 30.3438 537.187 32.5292 536.434V532.008C30.0337 532.936 27.5025 533.72 24.8799 534.321C22.7672 534.831 20.3087 535.268 18.4874 535.669C18.3417 535.851 18.1957 536.525 18.0503 537.654C17.9592 538.51 17.8499 539.657 17.7772 541.005C16.6481 558.216 16.6664 611.633 17.8318 626.24C17.9959 628.17 18.1777 629.427 18.3783 629.827L18.4877 629.955C22.0573 631.667 27.6665 633.925 32.5295 636.293V631.673C30.3035 630.638 28.027 629.636 25.9106 628.713Z" fill="#F5F5F7"/>
<path d="M113.237 651.147C90.6937 651.147 75.7213 648.984 63.3818 645.236V649.57C75.821 653.213 90.9555 655.325 113.229 655.325C137.398 655.325 153.17 652.848 166.21 648.623V644.233C153.262 648.594 137.714 651.147 113.237 651.147Z" fill="#F5F5F7"/>
<path d="M200.021 627.114C201.042 626.668 201.962 626.265 202.853 625.87L202.862 625.766C204.075 612.123 204.409 558.579 203.076 541.442C203.054 541.14 203.032 540.854 203.009 540.586C202.136 540.419 201.233 540.243 200.263 540.015C198.189 539.532 196.178 538.946 194.202 538.289V629.703C196.149 628.81 198.101 627.952 200.021 627.114Z" fill="#F5F5F7"/>
<path d="M26.2077 540.017C25.3771 540.214 24.516 540.397 23.6561 540.574C23.6381 540.821 23.6203 541.085 23.6031 541.365C22.4814 558.626 22.5189 611.476 23.6629 625.77L23.6742 625.906C24.5651 626.302 25.5183 626.718 26.4979 627.147C28.4461 627.997 30.5032 628.899 32.5297 629.829V538.203C30.4711 538.895 28.3753 539.513 26.2077 540.017Z" fill="#F5F5F7"/>
<path d="M188.798 632.328C190.568 631.404 192.383 630.538 194.202 629.703V538.288C188.702 536.459 183.491 534.045 178.06 531.524C174.304 529.78 170.422 527.979 166.209 526.256V642.464C174.207 639.727 181.223 636.29 188.798 632.328Z" fill="#F5F5F7"/>
<path d="M166.209 524.456C170.688 526.267 174.799 528.169 178.763 530.009C183.97 532.427 188.974 534.738 194.203 536.52V532.099C185.424 528.93 177.009 524.195 166.209 519.969V524.456Z" fill="#EAE8E2"/>
<path d="M189.571 633.808C181.746 637.899 174.511 641.437 166.209 644.233V648.623C175.334 645.69 183.111 641.884 191.507 637.513C192.381 637.058 193.292 636.602 194.203 636.165V631.559C192.639 632.286 191.081 633.019 189.571 633.808Z" fill="#EAE8E2"/>
<path d="M36.904 633.809C35.5222 633.085 34.0352 632.373 32.5295 631.673V636.293C33.3855 636.694 34.1868 637.112 34.97 637.513C44.2949 642.376 52.8911 646.529 63.3817 649.57V645.236C53.7324 642.305 45.6928 638.404 36.904 633.809Z" fill="#EAE8E2"/>
<path d="M47.7292 530.008C52.5907 527.751 57.6656 525.399 63.3814 523.24V518.786C51.1609 523.248 42.0545 528.548 32.5293 532.008V536.434C37.6747 534.663 42.605 532.388 47.7292 530.008Z" fill="white"/>
<path d="M48.4321 531.522C43.0835 534.006 37.9457 536.382 32.5295 538.203V629.829C34.3038 630.644 36.0554 631.48 37.6783 632.33C46.2204 636.797 54.0506 640.598 63.3814 643.479V525.028C57.9446 527.109 53.0904 529.359 48.4321 531.522Z" fill="#F5F5F7"/>
<path d="M63.3818 523.24C57.666 525.399 52.5911 527.75 47.7295 530.008C42.605 532.387 37.675 534.663 32.5299 536.434C30.3445 537.187 28.1241 537.858 25.8271 538.392C24.8105 538.632 23.7524 538.851 22.7074 539.062L22.0918 539.186L22.0397 539.812C22.0053 540.234 21.9703 540.717 21.9371 541.26C20.8128 558.563 20.8511 611.564 21.9982 625.903L22.096 627.029L22.5419 627.23C23.5636 627.687 24.6786 628.174 25.9114 628.713C28.0277 629.636 30.3042 630.638 32.5302 631.673C34.0358 632.373 35.5228 633.086 36.9047 633.809C45.6935 638.405 53.7331 642.305 63.3823 645.236C75.7218 648.984 90.6942 651.147 113.238 651.147C137.715 651.147 153.263 648.594 166.21 644.233C174.512 641.437 181.747 637.9 189.572 633.808C191.081 633.02 192.64 632.286 194.203 631.559C196.382 630.547 198.584 629.563 200.793 628.598C201.886 628.12 202.946 627.657 203.981 627.196L204.427 626.998L204.526 625.908C205.743 612.224 206.078 558.504 204.741 541.316C204.701 540.76 204.659 540.254 204.614 539.802L204.553 539.182L203.634 539.005C202.686 538.825 201.706 538.639 200.645 538.389C198.441 537.876 196.305 537.236 194.203 536.52C188.975 534.738 183.97 532.427 178.764 530.009C174.799 528.169 170.688 526.267 166.21 524.456C153.449 519.297 137.641 514.894 113.237 514.894C90.7816 514.894 75.6045 518.624 63.3818 523.24ZM178.061 531.524C183.491 534.045 188.702 536.459 194.203 538.288C196.178 538.946 198.189 539.532 200.264 540.015C201.233 540.243 202.137 540.419 203.01 540.585C203.033 540.855 203.055 541.14 203.077 541.441C204.409 558.579 204.075 612.122 202.862 625.766L202.853 625.87C201.962 626.265 201.042 626.667 200.021 627.113C198.101 627.952 196.149 628.81 194.203 629.703C192.383 630.538 190.569 631.404 188.798 632.328C181.223 636.29 174.208 639.727 166.21 642.464C153.294 646.885 137.812 649.477 113.238 649.477C90.6065 649.477 75.6882 647.279 63.3823 643.479C54.0516 640.598 46.2214 636.797 37.6792 632.33C36.0564 631.481 34.3044 630.644 32.5305 629.83C30.5037 628.899 28.4468 627.998 26.4987 627.147C25.5188 626.719 24.5658 626.302 23.6749 625.906L23.6637 625.771C22.5199 611.477 22.4824 558.627 23.6039 541.366C23.6211 541.085 23.6391 540.821 23.6569 540.574C24.5168 540.398 25.3778 540.214 26.2084 540.018C28.3761 539.514 30.4719 538.895 32.5305 538.203C37.9467 536.382 43.0842 534.007 48.433 531.523C53.0913 529.36 57.9458 527.109 63.3826 525.029C75.5704 520.365 90.7026 516.563 113.238 516.563C137.73 516.563 153.483 521.05 166.21 526.256C170.422 527.979 174.305 529.78 178.061 531.524Z" fill="#373841"/>
<path d="M53.806 581.522L51.306 586.642C51.0927 587.069 50.866 587.376 50.626 587.562C50.386 587.736 50.0993 587.822 49.766 587.822C49.3393 587.822 48.9793 587.676 48.686 587.382C48.3927 587.076 48.0127 586.529 47.546 585.742L45.226 581.522V587.182C45.226 587.756 45.0927 588.176 44.826 588.442C44.5727 588.709 44.186 588.842 43.666 588.842C43.0793 588.842 42.6527 588.716 42.386 588.462C42.1193 588.196 41.986 587.682 41.986 586.922V578.202C41.986 577.176 42.2193 576.402 42.686 575.882C43.1527 575.362 43.9393 575.102 45.046 575.102C45.4593 575.102 45.8193 575.176 46.126 575.322C46.4327 575.456 46.6593 575.616 46.806 575.802C46.966 575.976 47.1193 576.196 47.266 576.462L49.946 582.322L52.786 576.562C53.2793 575.602 54.166 575.122 55.446 575.122C56.046 575.122 56.5593 575.229 56.986 575.442C57.4127 575.642 57.746 575.976 57.986 576.442C58.2394 576.896 58.366 577.469 58.366 578.162V586.862C58.3527 588.182 57.5194 588.842 55.866 588.842C55.266 588.842 54.7727 588.682 54.386 588.362C54.0127 588.029 53.8193 587.496 53.806 586.762V581.522ZM65.6798 588.962C64.0531 588.962 62.7064 588.542 61.6398 587.702C60.5864 586.862 60.0598 585.716 60.0598 584.262C60.0598 582.689 60.5798 581.449 61.6198 580.542C62.6731 579.622 64.0264 579.162 65.6798 579.162C67.2398 579.162 68.3798 579.442 69.0998 580.002C69.8331 580.549 70.1998 581.302 70.1998 582.262C70.1998 582.449 70.1731 582.629 70.1198 582.802C70.0798 582.976 70.0064 583.149 69.8998 583.322C69.8064 583.482 69.6731 583.636 69.4998 583.782C69.3398 583.916 69.1531 584.042 68.9398 584.162C68.7264 584.269 68.4731 584.356 68.1798 584.422C67.8864 584.476 67.5731 584.502 67.2398 584.502L64.4198 584.522C64.5531 584.949 64.7931 585.289 65.1398 585.542C65.4864 585.782 65.9264 585.902 66.4598 585.902C67.0331 585.902 67.6198 585.829 68.2198 585.682C68.4731 585.616 68.7464 585.509 69.0398 585.362C69.3464 585.216 69.5664 585.142 69.6998 585.142C69.9264 585.142 70.0998 585.209 70.2198 585.342C70.3531 585.476 70.4198 585.642 70.4198 585.842C70.4198 586.082 70.3131 586.376 70.0998 586.722C69.8864 587.056 69.5864 587.396 69.1998 587.742C68.8264 588.076 68.3264 588.362 67.6998 588.602C67.0731 588.842 66.3998 588.962 65.6798 588.962ZM64.3198 583.242C65.2398 583.229 65.7398 583.222 65.8198 583.222C66.0198 583.222 66.1664 583.102 66.2598 582.862C66.3264 582.689 66.3598 582.449 66.3598 582.142C66.3598 581.302 66.1064 580.882 65.5998 580.882C65.4131 580.882 65.2264 580.982 65.0398 581.182C64.8664 581.382 64.7131 581.669 64.5798 582.042C64.4464 582.402 64.3598 582.802 64.3198 583.242ZM77.5743 588.962C75.9476 588.962 74.601 588.542 73.5343 587.702C72.481 586.862 71.9543 585.716 71.9543 584.262C71.9543 582.689 72.4743 581.449 73.5143 580.542C74.5676 579.622 75.921 579.162 77.5743 579.162C79.1343 579.162 80.2743 579.442 80.9943 580.002C81.7276 580.549 82.0943 581.302 82.0943 582.262C82.0943 582.449 82.0676 582.629 82.0143 582.802C81.9743 582.976 81.901 583.149 81.7943 583.322C81.701 583.482 81.5676 583.636 81.3943 583.782C81.2343 583.916 81.0476 584.042 80.8343 584.162C80.621 584.269 80.3676 584.356 80.0743 584.422C79.781 584.476 79.4676 584.502 79.1343 584.502L76.3143 584.522C76.4476 584.949 76.6876 585.289 77.0343 585.542C77.381 585.782 77.821 585.902 78.3543 585.902C78.9276 585.902 79.5143 585.829 80.1143 585.682C80.3676 585.616 80.641 585.509 80.9343 585.362C81.241 585.216 81.461 585.142 81.5943 585.142C81.821 585.142 81.9943 585.209 82.1143 585.342C82.2476 585.476 82.3143 585.642 82.3143 585.842C82.3143 586.082 82.2076 586.376 81.9943 586.722C81.781 587.056 81.481 587.396 81.0943 587.742C80.721 588.076 80.221 588.362 79.5943 588.602C78.9676 588.842 78.2943 588.962 77.5743 588.962ZM76.2143 583.242C77.1343 583.229 77.6343 583.222 77.7143 583.222C77.9143 583.222 78.061 583.102 78.1543 582.862C78.221 582.689 78.2543 582.449 78.2543 582.142C78.2543 581.302 78.001 580.882 77.4943 580.882C77.3076 580.882 77.121 580.982 76.9343 581.182C76.761 581.382 76.6076 581.669 76.4743 582.042C76.341 582.402 76.2543 582.802 76.2143 583.242ZM88.6688 579.162C89.9088 579.162 90.9422 579.416 91.7688 579.922C92.5955 580.429 93.0088 580.982 93.0088 581.582C93.0088 581.756 92.9355 581.916 92.7888 582.062C92.6422 582.209 92.4555 582.282 92.2288 582.282C92.0288 582.282 91.8088 582.216 91.5688 582.082C91.3288 581.936 91.1022 581.782 90.8888 581.622C90.6755 581.462 90.3955 581.316 90.0488 581.182C89.7022 581.049 89.3355 580.982 88.9488 580.982C88.4288 580.982 88.1688 581.142 88.1688 581.462C88.1688 581.689 88.3022 581.869 88.5688 582.002C88.8355 582.136 89.2222 582.276 89.7288 582.422C90.2488 582.569 90.6422 582.709 90.9088 582.842C91.9088 583.229 92.5955 583.649 92.9688 584.102C93.3422 584.542 93.5288 585.129 93.5288 585.862C93.5288 586.222 93.4288 586.582 93.2288 586.942C93.0288 587.289 92.7288 587.622 92.3288 587.942C91.9288 588.249 91.3822 588.502 90.6888 588.702C90.0088 588.889 89.2288 588.982 88.3488 588.982C86.6288 588.982 85.3422 588.589 84.4888 587.802C84.0755 587.416 83.8688 587.016 83.8688 586.602C83.8688 586.349 83.9488 586.149 84.1088 586.002C84.2822 585.856 84.5222 585.782 84.8288 585.782C85.1355 585.782 85.6022 585.936 86.2288 586.242C86.8555 586.536 87.4355 586.682 87.9688 586.682C88.7022 586.682 89.0688 586.502 89.0688 586.142C89.0688 585.956 88.8755 585.809 88.4888 585.702C88.1022 585.582 87.5955 585.442 86.9688 585.282C86.3422 585.122 85.8422 584.922 85.4688 584.682C84.8822 584.429 84.4688 584.116 84.2288 583.742C84.0022 583.356 83.8888 582.889 83.8888 582.342C83.8888 581.409 84.3288 580.649 85.2088 580.062C86.1022 579.462 87.2555 579.162 88.6688 579.162ZM95.8087 584.562V582.202C95.4753 582.189 95.2087 582.136 95.0087 582.042C94.8087 581.936 94.662 581.802 94.5687 581.642C94.4887 581.482 94.4487 581.282 94.4487 581.042C94.4487 580.282 94.9087 579.869 95.8287 579.802V577.942C95.8287 577.436 96.1953 576.982 96.9287 576.582C97.662 576.169 98.3887 575.962 99.1087 575.962C99.5487 575.962 99.8353 576.089 99.9687 576.342C100.102 576.596 100.169 576.976 100.169 577.482L100.189 579.782H100.729C101.462 579.782 101.962 579.882 102.229 580.082C102.509 580.269 102.649 580.616 102.649 581.122C102.649 581.336 102.609 581.516 102.529 581.662C102.449 581.809 102.315 581.922 102.129 582.002C101.955 582.082 101.742 582.142 101.489 582.182C101.235 582.209 100.922 582.222 100.549 582.222H100.189V584.422C100.189 584.636 100.195 584.816 100.209 584.962C100.235 585.096 100.269 585.202 100.309 585.282C100.349 585.362 100.402 585.416 100.469 585.442C100.549 585.469 100.642 585.482 100.749 585.482C100.909 585.482 101.042 585.429 101.149 585.322C101.255 585.202 101.335 585.076 101.389 584.942C101.455 584.796 101.535 584.669 101.629 584.562C101.735 584.442 101.855 584.382 101.989 584.382C102.295 584.382 102.529 584.456 102.689 584.602C102.862 584.749 102.949 584.929 102.949 585.142C102.949 585.502 102.875 585.889 102.729 586.302C102.595 586.716 102.395 587.116 102.129 587.502C101.862 587.889 101.489 588.209 101.009 588.462C100.542 588.716 100.015 588.842 99.4287 588.842C98.1087 588.842 97.1753 588.509 96.6287 587.842C96.082 587.176 95.8087 586.082 95.8087 584.562ZM110.035 588.962C108.409 588.962 107.062 588.542 105.995 587.702C104.942 586.862 104.415 585.716 104.415 584.262C104.415 582.689 104.935 581.449 105.975 580.542C107.029 579.622 108.382 579.162 110.035 579.162C111.595 579.162 112.735 579.442 113.455 580.002C114.189 580.549 114.555 581.302 114.555 582.262C114.555 582.449 114.529 582.629 114.475 582.802C114.435 582.976 114.362 583.149 114.255 583.322C114.162 583.482 114.029 583.636 113.855 583.782C113.695 583.916 113.509 584.042 113.295 584.162C113.082 584.269 112.829 584.356 112.535 584.422C112.242 584.476 111.929 584.502 111.595 584.502L108.775 584.522C108.909 584.949 109.149 585.289 109.495 585.542C109.842 585.782 110.282 585.902 110.815 585.902C111.389 585.902 111.975 585.829 112.575 585.682C112.829 585.616 113.102 585.509 113.395 585.362C113.702 585.216 113.922 585.142 114.055 585.142C114.282 585.142 114.455 585.209 114.575 585.342C114.709 585.476 114.775 585.642 114.775 585.842C114.775 586.082 114.669 586.376 114.455 586.722C114.242 587.056 113.942 587.396 113.555 587.742C113.182 588.076 112.682 588.362 112.055 588.602C111.429 588.842 110.755 588.962 110.035 588.962ZM108.675 583.242C109.595 583.229 110.095 583.222 110.175 583.222C110.375 583.222 110.522 583.102 110.615 582.862C110.682 582.689 110.715 582.449 110.715 582.142C110.715 581.302 110.462 580.882 109.955 580.882C109.769 580.882 109.582 580.982 109.395 581.182C109.222 581.382 109.069 581.669 108.935 582.042C108.802 582.402 108.715 582.802 108.675 583.242ZM120.73 586.702C120.73 587.502 120.563 588.062 120.23 588.382C119.896 588.689 119.303 588.842 118.45 588.842C117.663 588.842 117.13 588.662 116.85 588.302C116.57 587.929 116.43 587.322 116.43 586.482V581.562C116.43 581.109 116.51 580.716 116.67 580.382C116.83 580.036 117.063 579.769 117.37 579.582C117.676 579.396 118.036 579.302 118.45 579.302C119.463 579.302 120.13 579.596 120.45 580.182C121.223 579.596 121.97 579.302 122.69 579.302C124.09 579.302 124.79 579.969 124.79 581.302C124.79 581.836 124.636 582.269 124.33 582.602C124.023 582.936 123.623 583.102 123.13 583.102C122.836 583.102 122.596 583.042 122.41 582.922C122.236 582.802 122.07 582.682 121.91 582.562C121.763 582.442 121.59 582.382 121.39 582.382C121.096 582.382 120.876 582.482 120.73 582.682V586.702ZM130.563 579.162C131.803 579.162 132.837 579.416 133.663 579.922C134.49 580.429 134.903 580.982 134.903 581.582C134.903 581.756 134.83 581.916 134.683 582.062C134.537 582.209 134.35 582.282 134.123 582.282C133.923 582.282 133.703 582.216 133.463 582.082C133.223 581.936 132.997 581.782 132.783 581.622C132.57 581.462 132.29 581.316 131.943 581.182C131.597 581.049 131.23 580.982 130.843 580.982C130.323 580.982 130.063 581.142 130.063 581.462C130.063 581.689 130.197 581.869 130.463 582.002C130.73 582.136 131.117 582.276 131.623 582.422C132.143 582.569 132.537 582.709 132.803 582.842C133.803 583.229 134.49 583.649 134.863 584.102C135.237 584.542 135.423 585.129 135.423 585.862C135.423 586.222 135.323 586.582 135.123 586.942C134.923 587.289 134.623 587.622 134.223 587.942C133.823 588.249 133.277 588.502 132.583 588.702C131.903 588.889 131.123 588.982 130.243 588.982C128.523 588.982 127.237 588.589 126.383 587.802C125.97 587.416 125.763 587.016 125.763 586.602C125.763 586.349 125.843 586.149 126.003 586.002C126.177 585.856 126.417 585.782 126.723 585.782C127.03 585.782 127.497 585.936 128.123 586.242C128.75 586.536 129.33 586.682 129.863 586.682C130.597 586.682 130.963 586.502 130.963 586.142C130.963 585.956 130.77 585.809 130.383 585.702C129.997 585.582 129.49 585.442 128.863 585.282C128.237 585.122 127.737 584.922 127.363 584.682C126.777 584.429 126.363 584.116 126.123 583.742C125.897 583.356 125.783 582.889 125.783 582.342C125.783 581.409 126.223 580.649 127.103 580.062C127.997 579.462 129.15 579.162 130.563 579.162ZM142.819 581.362C142.819 581.056 142.645 580.902 142.299 580.902C142.045 580.902 141.819 581.042 141.619 581.322C141.419 581.602 141.265 581.956 141.159 582.382C141.052 582.796 140.999 583.229 140.999 583.682C140.999 584.349 141.199 584.889 141.599 585.302C142.012 585.716 142.565 585.922 143.259 585.922C143.939 585.922 144.525 585.842 145.019 585.682C145.219 585.629 145.459 585.529 145.739 585.382C146.032 585.236 146.239 585.162 146.359 585.162C146.545 585.162 146.699 585.196 146.819 585.262C146.939 585.329 147.019 585.409 147.059 585.502C147.112 585.596 147.139 585.696 147.139 585.802C147.139 585.989 147.072 586.216 146.939 586.482C146.819 586.749 146.625 587.029 146.359 587.322C146.092 587.616 145.779 587.889 145.419 588.142C145.072 588.382 144.639 588.582 144.119 588.742C143.599 588.902 143.052 588.982 142.479 588.982C140.825 588.982 139.465 588.542 138.399 587.662C137.332 586.769 136.799 585.549 136.799 584.002C136.799 583.016 137.039 582.156 137.519 581.422C138.012 580.676 138.685 580.116 139.539 579.742C140.392 579.356 141.372 579.162 142.479 579.162C143.532 579.162 144.399 579.289 145.079 579.542C145.772 579.782 146.265 580.109 146.559 580.522C146.852 580.936 146.999 581.429 146.999 582.002C146.999 582.256 146.945 582.516 146.839 582.782C146.745 583.049 146.592 583.316 146.379 583.582C146.179 583.849 145.879 584.069 145.479 584.242C145.079 584.402 144.612 584.482 144.079 584.482C143.839 584.482 143.639 584.469 143.479 584.442C143.332 584.416 143.172 584.362 142.999 584.282C142.839 584.189 142.719 584.042 142.639 583.842C142.559 583.642 142.519 583.389 142.519 583.082C142.519 582.816 142.565 582.496 142.659 582.122C142.765 581.736 142.819 581.482 142.819 581.362ZM155.131 583.482C155.131 582.722 154.838 582.342 154.251 582.342C154.145 582.342 154.045 582.356 153.951 582.382C153.871 582.409 153.791 582.442 153.711 582.482C153.645 582.522 153.578 582.582 153.511 582.662C153.458 582.729 153.405 582.809 153.351 582.902C153.311 582.982 153.278 583.082 153.251 583.202C153.238 583.322 153.231 583.456 153.231 583.602V585.802C153.231 586.896 153.051 587.676 152.691 588.142C152.345 588.596 151.811 588.822 151.091 588.822C150.345 588.822 149.798 588.616 149.451 588.202C149.105 587.776 148.931 587.029 148.931 585.962L148.891 577.442C148.891 576.616 149.091 576.009 149.491 575.622C149.891 575.236 150.425 575.042 151.091 575.042C151.798 575.042 152.331 575.189 152.691 575.482C153.051 575.776 153.231 576.369 153.231 577.262V580.162C154.218 579.562 155.418 579.262 156.831 579.262C157.471 579.262 157.985 579.429 158.371 579.762C158.758 580.082 159.045 580.596 159.231 581.302C159.418 582.009 159.511 582.936 159.511 584.082C159.511 584.669 159.498 585.176 159.471 585.602C159.458 586.029 159.431 586.422 159.391 586.782C159.351 587.129 159.291 587.416 159.211 587.642C159.131 587.869 159.038 588.062 158.931 588.222C158.825 588.382 158.685 588.509 158.511 588.602C158.351 588.682 158.171 588.742 157.971 588.782C157.771 588.822 157.531 588.842 157.251 588.842C156.505 588.842 155.965 588.709 155.631 588.442C155.311 588.162 155.151 587.742 155.151 587.182L155.131 583.482ZM164.932 588.962C163.878 588.962 163.005 588.536 162.312 587.682C161.618 586.816 161.272 585.636 161.272 584.142C161.272 582.622 161.612 581.416 162.292 580.522C162.985 579.616 163.865 579.162 164.932 579.162C166.012 579.162 167.012 579.542 167.932 580.302C168.292 579.636 168.872 579.302 169.672 579.302C170.392 579.302 170.952 579.462 171.352 579.782C171.752 580.089 171.952 580.662 171.952 581.502V586.702C171.952 587.502 171.785 588.062 171.452 588.382C171.118 588.689 170.532 588.842 169.692 588.842C168.812 588.842 168.232 588.596 167.952 588.102C167.098 588.676 166.092 588.962 164.932 588.962ZM167.652 582.222C167.425 581.836 167.132 581.642 166.772 581.642C166.425 581.642 166.145 581.896 165.932 582.402C165.718 582.909 165.612 583.489 165.612 584.142C165.612 584.756 165.712 585.302 165.912 585.782C166.112 586.262 166.392 586.502 166.752 586.502C167.125 586.502 167.425 586.322 167.652 585.962V582.222ZM178.252 590.002C178.252 591.082 178.072 591.849 177.712 592.302C177.352 592.769 176.799 593.002 176.052 593.002C175.305 593.002 174.759 592.789 174.412 592.362C174.065 591.949 173.892 591.209 173.892 590.142L173.852 581.702C173.852 580.876 174.052 580.269 174.452 579.882C174.852 579.496 175.385 579.302 176.052 579.302C176.572 579.302 176.992 579.369 177.312 579.502C177.632 579.622 177.872 579.869 178.032 580.242C178.952 579.522 179.939 579.162 180.992 579.162C182.059 579.162 182.932 579.609 183.612 580.502C184.292 581.396 184.632 582.609 184.632 584.142C184.632 585.636 184.285 586.816 183.592 587.682C182.899 588.536 182.025 588.962 180.972 588.962C179.959 588.962 179.052 588.736 178.252 588.282V590.002ZM178.252 585.942C178.479 586.316 178.779 586.502 179.152 586.502C179.512 586.502 179.792 586.262 179.992 585.782C180.192 585.302 180.292 584.756 180.292 584.142C180.292 583.489 180.185 582.909 179.972 582.402C179.759 581.896 179.479 581.642 179.132 581.642C178.772 581.642 178.479 581.836 178.252 582.222V585.942Z" fill="black"/>
</svg>
