<svg width="213" height="700" viewBox="0 0 213 700" fill="none" xmlns="http://www.w3.org/2000/svg">
<path d="M198.828 371.58C186.34 302.165 145.348 256.14 137.132 185.081C134.81 165.008 130.689 72.4372 129.924 34.552C133.42 33.3581 134.856 26.3714 129.358 24.6959C128.6 21.6287 126.838 20.5131 123.3 20.4385H89.1521C85.6147 20.5131 83.8526 21.6284 83.095 24.6959C77.5969 26.3717 79.0321 33.3581 82.5285 34.552C81.7634 72.4372 77.6419 165.008 75.321 185.081C67.1041 256.14 26.1127 302.165 13.6243 371.58C6.92027 408.843 11.0808 661.212 13.6927 665.029C18.5736 672.162 61.8198 678.635 106.224 679.561V679.562C106.225 679.562 106.225 679.561 106.226 679.561C106.227 679.561 106.228 679.562 106.229 679.562V679.561C150.633 678.635 193.879 672.162 198.76 665.029C201.372 661.212 205.532 408.843 198.828 371.58Z" fill="#085729"/>
<path d="M198.828 371.58C186.34 302.165 145.348 256.14 137.132 185.081C134.811 165.008 130.689 72.4372 129.924 34.552C133.42 33.3581 134.856 26.3714 129.358 24.6959C128.6 21.6287 126.838 20.5131 123.301 20.4385H121.38C122.402 63.2367 126.245 152.313 128.455 172.379C136.672 246.971 162.698 295.284 175.187 368.151C181.52 405.104 178.157 643.572 175.564 673.21C188.119 670.828 196.737 667.986 198.76 665.029C201.372 661.212 205.532 408.843 198.828 371.58Z" fill="#064E24"/>
<path d="M88.293 664.577C88.3845 660.624 85.6173 408.843 88.2659 371.58C93.2001 302.165 109.395 256.14 112.641 185.081C113.448 167.417 115.326 76.6328 115.326 58.465C115.326 40.2972 89.2245 34.2993 89.2245 59.4042C89.2245 84.5091 85.8729 167.417 84.4325 185.081C78.6384 256.14 49.7322 302.164 40.9256 371.58C36.198 408.843 40.387 655.913 40.7768 660.133C42.0688 674.131 88.0536 674.923 88.293 664.577Z" fill="#0C6330"/>
<path d="M199.969 648.779C202.078 598.502 204.033 445.732 200.525 388.747C200.525 388.747 178.305 396.793 106.226 396.793C34.1477 396.793 11.9274 388.747 11.9274 388.747C8.41968 445.732 10.3744 598.502 12.4833 648.779C12.4833 648.779 27.1571 660.134 106.227 660.134C185.296 660.134 199.969 648.779 199.969 648.779Z" fill="#F6E5CD"/>
<path d="M87.4795 396.6C66.7163 396.156 51.0746 395.001 39.5729 393.709C37.34 460.122 39.9827 628.897 40.6569 656.374C51.8665 658.012 67.2694 659.409 88.2705 659.923C88.0465 629.994 86.3995 464.912 87.4795 396.6Z" fill="#FBEFE0"/>
<path d="M106.229 23.9573C113.534 23.8356 120.529 22.1316 124.851 20.5601C124.375 20.4923 123.863 20.4504 123.3 20.4385H89.1518C88.5893 20.4504 88.0773 20.4923 87.6008 20.5601C91.9232 22.1316 98.9179 23.8356 106.223 23.9573C106.224 23.9573 106.225 23.9576 106.226 23.9576C106.227 23.9576 106.228 23.9576 106.229 23.9573Z" fill="#013E1A"/>
<path d="M129.235 24.6499C129.235 24.6499 119.825 28.6671 106.226 28.6671C92.6268 28.6671 83.2177 24.6499 83.2177 24.6499C77.4498 26.2855 79.06 33.6549 82.7399 34.6331C90.5005 36.6961 94.5157 38.309 106.226 38.309C117.937 38.309 121.951 36.6961 129.712 34.6331C133.392 33.6549 135.002 26.2855 129.235 24.6499Z" fill="#306132"/>
<path d="M106.226 131.807C119.777 131.807 125.036 130.069 133.483 127.759C131.846 94.4783 130.354 55.8631 129.924 34.5518C129.852 34.5763 129.785 34.6136 129.712 34.633C121.951 36.696 117.936 38.3088 106.226 38.3088C94.5151 38.3088 90.4999 36.696 82.7396 34.633C82.6664 34.6136 82.5997 34.576 82.5279 34.5518C82.0973 55.8631 80.605 94.478 78.9683 127.759C87.4159 130.069 92.6755 131.807 106.226 131.807Z" fill="#F6E5CD"/>
<path d="M125.671 129.832C128.204 129.233 130.667 128.529 133.483 127.759C133.434 126.76 133.385 125.756 133.337 124.748C133.324 124.485 133.311 124.221 133.298 123.957C133.264 123.236 133.229 122.515 133.194 121.79C133.175 121.383 133.156 120.975 133.136 120.568C133.108 119.964 133.079 119.359 133.05 118.753C133.03 118.33 133.011 117.907 132.991 117.483C132.964 116.917 132.938 116.35 132.911 115.782C132.89 115.313 132.868 114.845 132.846 114.376C132.819 113.784 132.791 113.191 132.764 112.597C132.746 112.197 132.728 111.797 132.709 111.396C132.68 110.742 132.65 110.087 132.621 109.432C132.603 109.057 132.586 108.682 132.57 108.306C132.541 107.669 132.513 107.031 132.484 106.392C132.466 105.98 132.448 105.569 132.429 105.157C132.394 104.365 132.36 103.574 132.325 102.783C132.307 102.365 132.289 101.948 132.27 101.53C132.236 100.736 132.201 99.9427 132.167 99.15C132.15 98.7417 132.133 98.3339 132.115 97.9258C132.087 97.2807 132.06 96.6362 132.032 95.9919C132.016 95.6103 132.001 95.2299 131.984 94.8487C131.958 94.2329 131.932 93.6177 131.907 93.0033C131.887 92.5238 131.867 92.0453 131.847 91.5672C131.825 91.0412 131.803 90.516 131.782 89.9914C131.762 89.5025 131.742 89.0146 131.722 88.5268C131.7 88.0068 131.679 87.4879 131.658 86.9693C131.639 86.4945 131.62 86.0201 131.601 85.5468C131.577 84.9618 131.554 84.3791 131.531 83.7966C131.514 83.3872 131.498 82.9774 131.482 82.5691C131.46 82.0128 131.438 81.4598 131.416 80.9061C131.398 80.4414 131.38 79.9757 131.362 79.5127C131.333 78.7852 131.306 78.0626 131.278 77.3405C131.264 76.9792 131.25 76.6179 131.236 76.258C131.204 75.4328 131.173 74.6101 131.142 73.7929C131.127 73.3806 131.112 72.9728 131.096 72.5625C131.076 72.0194 131.056 71.4757 131.036 70.9366C131.019 70.4898 131.003 70.047 130.987 69.6033C130.968 69.1061 130.95 68.6091 130.933 68.1156C130.915 67.6485 130.899 67.1847 130.882 66.721C130.865 66.2483 130.848 65.7767 130.832 65.3077C130.817 64.872 130.801 64.4386 130.786 64.0063C130.768 63.496 130.75 62.9893 130.733 62.4838C130.719 62.0872 130.705 61.6911 130.692 61.2976C130.674 60.7676 130.656 60.243 130.638 59.719C130.626 59.3434 130.613 58.9667 130.6 58.5943C130.582 58.0472 130.564 57.5072 130.546 56.9672C130.536 56.6384 130.524 56.3056 130.514 55.9793C130.458 54.2551 130.404 52.5696 130.354 50.9266C130.344 50.6174 130.336 50.3154 130.326 50.009C130.311 49.5161 130.296 49.0225 130.282 48.5376C130.271 48.1677 130.26 47.8044 130.25 47.4394C130.237 46.9943 130.224 46.5506 130.212 46.1129C130.203 45.7978 130.194 45.4869 130.185 45.1757C130.172 44.701 130.159 44.2303 130.146 43.7647C130.138 43.4603 130.13 43.1586 130.122 42.8585C130.11 42.4103 130.098 41.9683 130.087 41.5295C130.08 41.2394 130.072 40.9494 130.065 40.6636C130.054 40.2082 130.043 39.7614 130.032 39.3172C130.026 39.0553 130.019 38.7912 130.013 38.5333C130.002 38.0631 129.991 37.6043 129.981 37.1476C129.976 36.9301 129.971 36.7076 129.966 36.493C129.951 35.8322 129.937 35.1834 129.925 34.5522C129.853 34.5768 129.786 34.6141 129.713 34.6335C126.754 35.4199 124.338 36.1403 121.834 36.7315C122.685 64.1864 124.184 100.918 125.671 129.832Z" fill="#DECBB1"/>
<path d="M115.326 58.465C115.326 40.2972 89.2245 34.2993 89.2245 59.4042C89.2245 72.7441 88.2782 102.404 87.1749 129.925C92.1253 131.071 97.4265 131.807 106.226 131.807C109.211 131.807 111.777 131.718 114.08 131.562C114.739 101.477 115.326 68.6226 115.326 58.465Z" fill="#FBEFE0"/>
<path d="M202.451 487.468C202.45 484.348 202.445 481.246 202.437 478.167C202.437 478.122 202.437 478.076 202.436 478.031C202.428 474.949 202.416 471.891 202.402 468.862C202.401 468.808 202.401 468.755 202.401 468.701C202.385 465.669 202.366 462.666 202.344 459.698C202.344 459.661 202.343 459.624 202.343 459.588C202.32 456.615 202.294 453.677 202.264 450.779C202.263 450.742 202.263 450.704 202.262 450.667C202.233 447.786 202.199 444.948 202.161 442.154C202.16 442.092 202.159 442.029 202.158 441.967C202.12 439.175 202.078 436.429 202.032 433.735C202.031 433.696 202.03 433.657 202.03 433.619C201.983 430.92 201.932 428.274 201.877 425.686C201.877 425.644 201.876 425.602 201.875 425.561C201.82 422.981 201.761 420.46 201.697 418.003C201.696 417.957 201.695 417.911 201.694 417.866C201.63 415.407 201.561 413.013 201.489 410.689C201.487 410.653 201.486 410.617 201.485 410.581C201.412 408.261 201.334 406.011 201.252 403.837C201.251 403.797 201.249 403.757 201.248 403.717C201.165 401.552 201.078 399.462 200.986 397.454C200.984 397.411 200.982 397.367 200.98 397.324C200.888 395.324 200.792 393.406 200.69 391.573C200.687 391.529 200.685 391.484 200.682 391.44C200.631 390.52 200.578 389.621 200.525 388.747C200.525 388.747 194.17 391.046 177.249 393.186C180.181 456.254 178.439 601.729 176.461 655.639C195.191 652.468 199.967 648.781 199.969 648.779C199.97 648.762 199.97 648.745 199.971 648.728C200.002 647.988 200.033 647.225 200.064 646.441C200.068 646.35 200.071 646.257 200.075 646.165C200.104 645.423 200.133 644.663 200.162 643.883C200.164 643.828 200.166 643.775 200.168 643.72C200.199 642.882 200.23 642.021 200.261 641.141C200.264 641.059 200.266 640.976 200.269 640.893C200.299 640.047 200.328 639.184 200.358 638.302C200.359 638.251 200.361 638.202 200.363 638.151C200.393 637.222 200.424 636.272 200.455 635.303C200.458 635.217 200.46 635.13 200.463 635.044C200.492 634.128 200.52 633.196 200.549 632.247C200.551 632.176 200.553 632.106 200.555 632.035C200.586 631.024 200.616 629.995 200.646 628.948C200.648 628.874 200.65 628.799 200.652 628.725C200.712 626.619 200.772 624.44 200.83 622.195C200.834 622.061 200.837 621.926 200.841 621.791C200.899 619.56 200.956 617.265 201.012 614.908C201.015 614.799 201.017 614.689 201.02 614.58C201.077 612.196 201.132 609.752 201.187 607.251C201.189 607.138 201.192 607.025 201.194 606.913C201.25 604.374 201.304 601.78 201.357 599.133C201.357 599.099 201.358 599.065 201.359 599.032C201.412 596.364 201.464 593.645 201.514 590.879C201.516 590.765 201.518 590.65 201.52 590.536C201.57 587.807 201.618 585.033 201.665 582.22C201.667 582.114 201.668 582.009 201.67 581.903C201.717 579.065 201.762 576.189 201.805 573.277C201.807 573.209 201.807 573.142 201.809 573.075C201.852 570.133 201.895 567.156 201.935 564.149C201.936 564.089 201.937 564.029 201.937 563.969C201.977 560.993 202.015 557.988 202.05 554.96C202.052 554.816 202.054 554.672 202.055 554.527C202.091 551.494 202.125 548.439 202.156 545.366C202.156 545.326 202.157 545.287 202.157 545.248C202.189 542.153 202.218 539.041 202.245 535.917C202.246 535.798 202.247 535.678 202.248 535.558C202.274 532.447 202.299 529.324 202.32 526.195C202.321 526.138 202.321 526.081 202.322 526.024C202.343 522.895 202.362 519.759 202.379 516.623C202.379 516.496 202.38 516.369 202.381 516.242C202.397 513.115 202.41 509.988 202.421 506.867C202.421 506.801 202.422 506.735 202.422 506.669C202.433 503.507 202.441 500.35 202.445 497.205C202.445 497.153 202.445 497.101 202.446 497.05C202.45 493.905 202.452 490.771 202.451 487.654C202.451 487.592 202.451 487.53 202.451 487.468Z" fill="#DECBB1"/>
<path d="M121.833 36.7309C124.338 36.1396 126.753 35.4193 129.712 34.6328C129.786 34.6134 129.852 34.5758 129.924 34.5516C133.42 33.3577 134.856 26.371 129.358 24.6955C129.314 24.6821 129.279 24.6622 129.235 24.6499C129.235 24.6499 126.379 25.8669 121.547 26.9614C121.631 30.0517 121.728 33.3212 121.833 36.7309Z" fill="#085729"/>
<path d="M147.472 231.34C142.764 216.87 139.049 201.662 137.132 185.08C137.024 184.147 136.912 183.056 136.797 181.822C136.797 181.822 134.552 182.663 130.147 183.565C124.415 174.41 115.821 168.575 106.226 168.575C96.6312 168.575 88.0371 174.41 82.3059 183.565C77.9006 182.663 75.6555 181.822 75.6555 181.822C75.5404 183.056 75.4284 184.147 75.3207 185.08C73.4032 201.662 69.6878 216.87 64.9801 231.34C64.9801 231.34 70.9082 236.079 83.5637 239.132C89.2578 247.193 97.3082 252.238 106.226 252.238C115.144 252.238 123.194 247.194 128.888 239.132C141.544 236.079 147.472 231.34 147.472 231.34Z" fill="#F6E5CD"/>
<path d="M113.154 169.616C110.925 168.936 108.606 168.575 106.226 168.575C97.9282 168.575 90.3833 172.945 84.7867 180.045C84.6593 182.054 84.5402 183.754 84.4322 185.08C82.9089 203.765 79.7787 220.71 75.8447 236.813C78.067 237.624 80.6261 238.423 83.5634 239.132C89.1159 246.993 96.9118 251.971 105.565 252.214C108.811 231.507 111.511 209.811 112.641 185.08C112.784 181.952 112.96 176.522 113.154 169.616Z" fill="#FBEFE0"/>
<path d="M137.003 183.905C136.979 183.674 136.954 183.435 136.929 183.189C136.918 183.08 136.908 182.974 136.897 182.863C136.863 182.528 136.83 182.184 136.797 181.824V181.824C136.797 181.824 134.552 182.664 130.147 183.566C130.028 183.377 129.902 183.199 129.781 183.013C132.346 201.774 136.003 218.938 140.22 235.373C145.118 233.22 147.472 231.341 147.472 231.341C146.905 229.597 146.353 227.84 145.816 226.073C145.773 225.933 145.731 225.792 145.689 225.652C145.192 224.007 144.708 222.351 144.24 220.685C144.156 220.385 144.074 220.083 143.991 219.782C143.566 218.248 143.151 216.706 142.753 215.153C142.632 214.681 142.517 214.205 142.399 213.732C142.046 212.318 141.698 210.9 141.368 209.469C141.216 208.809 141.075 208.142 140.928 207.478C140.645 206.2 140.362 204.921 140.099 203.628C139.92 202.747 139.757 201.853 139.588 200.965C139.375 199.853 139.157 198.745 138.96 197.62C138.752 196.433 138.567 195.226 138.377 194.024C138.241 193.162 138.092 192.31 137.966 191.44C137.66 189.342 137.379 187.224 137.132 185.082C137.099 184.8 137.066 184.499 137.033 184.189C137.023 184.096 137.013 184 137.003 183.905Z" fill="#DECBB1"/>
<path d="M106.226 252.237C89.0119 252.237 75.0072 233.472 75.0072 210.406C75.0072 187.341 89.0119 168.575 106.226 168.575C123.44 168.575 137.445 187.341 137.445 210.406C137.445 233.472 123.44 252.237 106.226 252.237ZM106.226 170.307C89.9668 170.307 76.7391 188.296 76.7391 210.407C76.7391 232.517 89.9668 250.506 106.226 250.506C122.485 250.506 135.713 232.517 135.713 210.407C135.713 188.296 122.485 170.307 106.226 170.307Z" fill="#F6A31A"/>
<path d="M106.226 246.438C91.387 246.438 79.3139 230.274 79.3139 210.407C79.3139 190.539 91.387 174.376 106.226 174.376C121.066 174.376 133.138 190.539 133.138 210.407C133.138 230.274 121.066 246.438 106.226 246.438ZM106.226 176.04C92.3039 176.04 80.9775 191.457 80.9775 210.407C80.9775 229.357 92.3039 244.775 106.226 244.775C120.148 244.775 131.475 229.358 131.475 210.407C131.475 191.457 120.148 176.04 106.226 176.04Z" fill="#F6A31A"/>
<path d="M130.418 187.521C133.751 194.016 135.713 201.903 135.713 210.407C135.713 212.074 135.629 213.713 135.483 215.327C135.838 216.973 136.198 218.612 136.566 220.239C137.136 217.084 137.445 213.794 137.445 210.407C137.445 199.928 134.548 190.345 129.779 182.997C129.986 184.513 130.197 186.025 130.418 187.521Z" fill="#C27816"/>
<path d="M106.226 246.438C91.3869 246.438 79.3139 230.274 79.3139 210.407C79.3139 190.539 91.3869 174.376 106.226 174.376C121.066 174.376 133.138 190.539 133.138 210.407C133.138 230.274 121.066 246.438 106.226 246.438ZM106.226 176.04C92.3039 176.04 80.9774 191.457 80.9774 210.407C80.9774 229.357 92.3039 244.775 106.226 244.775C120.148 244.775 131.475 229.358 131.475 210.407C131.475 191.457 120.148 176.04 106.226 176.04Z" fill="#F6A31A"/>
<path d="M78.6352 224.539C78.3944 225.687 78.1536 226.836 77.9034 227.974C82.78 242.033 93.3141 251.872 105.565 252.216C105.655 251.643 105.744 251.068 105.833 250.493C93.4007 250.27 82.8031 239.537 78.6352 224.539Z" fill="#FCC55C"/>
<path d="M106.226 170.307C108.594 170.307 110.895 170.699 113.103 171.42C113.12 170.834 113.137 170.236 113.154 169.626C110.924 168.946 108.607 168.575 106.226 168.575C97.9294 168.575 90.3845 172.943 84.7872 180.041C84.7131 181.21 84.6416 182.278 84.5738 183.222C89.9647 175.288 97.6743 170.307 106.226 170.307Z" fill="#FCC55C"/>
<path d="M106.226 244.774C92.7165 244.774 81.6525 230.257 81.0088 212.081C80.6651 214.091 80.3064 216.085 79.9311 218.061C82.5601 234.262 93.3485 246.438 106.226 246.438C106.302 246.438 106.377 246.431 106.453 246.43C106.537 245.874 106.618 245.315 106.701 244.758C106.542 244.762 106.385 244.774 106.226 244.774Z" fill="#FCC55C"/>
<path d="M83.9595 190.195C83.7691 192.123 83.56 194.03 83.3371 195.923C87.36 184.192 96.1043 176.04 106.226 176.04C108.546 176.04 110.791 176.476 112.927 177.278C112.945 176.711 112.963 176.13 112.982 175.527C110.822 174.776 108.558 174.376 106.226 174.376C96.9779 174.376 88.8059 180.655 83.9595 190.195Z" fill="#FCC55C"/>
<path d="M106.226 236.39C116.859 236.39 125.478 224.757 125.478 210.407C125.478 196.057 116.859 184.423 106.226 184.423C95.5934 184.423 86.9739 196.057 86.9739 210.407C86.9739 224.757 95.5934 236.39 106.226 236.39Z" fill="#F28F1B"/>
<path d="M106.226 184.424C95.5934 184.424 86.9739 196.057 86.9739 210.407C86.9739 224.757 95.5934 236.39 106.226 236.39C106.791 236.39 107.35 236.35 107.902 236.286C110.041 220.575 111.742 204.047 112.599 185.888C110.604 184.943 108.461 184.424 106.226 184.424Z" fill="#F9AF13"/>
<path d="M60.5004 382.102C72.7746 383.704 77.3153 333.408 80.9772 313.757C83.4634 300.416 91.8682 260.343 85.6472 259.071C76.6947 257.241 61.019 316.246 57.9225 328.764C54.4546 342.784 48.2262 380.5 60.5004 382.102Z" fill="#0B6E35"/>
<path d="M55.9954 604.164C56.4784 614.241 57.3936 625.224 64.304 632.575C65.4463 633.79 67.0449 634.951 68.6477 634.489C70.6586 633.91 71.1496 631.332 71.2673 629.243C75.0557 561.871 72.231 494.287 67.2586 426.993C66.7585 420.227 65.8193 412.645 60.4774 408.464C54.5282 403.807 53.785 432.197 53.7255 435.037C53.4365 448.762 53.2627 462.49 53.2043 476.218C53.0872 503.675 53.4311 531.133 54.2355 558.578C54.6806 573.778 55.25 588.976 55.9954 604.164Z" fill="#FFFAF0"/>
<path d="M48.9263 510.118L46.4263 515.238C46.213 515.665 45.9863 515.972 45.7463 516.158C45.5063 516.332 45.2196 516.418 44.8863 516.418C44.4596 516.418 44.0996 516.272 43.8063 515.978C43.513 515.672 43.133 515.125 42.6663 514.338L40.3463 510.118V515.778C40.3463 516.352 40.213 516.772 39.9463 517.038C39.693 517.305 39.3063 517.438 38.7863 517.438C38.1996 517.438 37.773 517.312 37.5063 517.058C37.2396 516.792 37.1063 516.278 37.1063 515.518V506.798C37.1063 505.772 37.3396 504.998 37.8063 504.478C38.273 503.958 39.0596 503.698 40.1663 503.698C40.5796 503.698 40.9396 503.772 41.2463 503.918C41.553 504.052 41.7796 504.212 41.9263 504.398C42.0863 504.572 42.2396 504.792 42.3863 505.058L45.0663 510.918L47.9063 505.158C48.3996 504.198 49.2863 503.718 50.5663 503.718C51.1663 503.718 51.6796 503.825 52.1063 504.038C52.533 504.238 52.8663 504.572 53.1063 505.038C53.3596 505.492 53.4863 506.065 53.4863 506.758V515.458C53.473 516.778 52.6396 517.438 50.9863 517.438C50.3863 517.438 49.893 517.278 49.5063 516.958C49.133 516.625 48.9396 516.092 48.9263 515.358V510.118ZM60.8 517.558C59.1734 517.558 57.8267 517.138 56.76 516.298C55.7067 515.458 55.18 514.312 55.18 512.858C55.18 511.285 55.7 510.045 56.74 509.138C57.7934 508.218 59.1467 507.758 60.8 507.758C62.36 507.758 63.5 508.038 64.22 508.598C64.9534 509.145 65.32 509.898 65.32 510.858C65.32 511.045 65.2934 511.225 65.24 511.398C65.2 511.572 65.1267 511.745 65.02 511.918C64.9267 512.078 64.7934 512.232 64.62 512.378C64.46 512.512 64.2734 512.638 64.06 512.758C63.8467 512.865 63.5934 512.952 63.3 513.018C63.0067 513.072 62.6934 513.098 62.36 513.098L59.54 513.118C59.6734 513.545 59.9134 513.885 60.26 514.138C60.6067 514.378 61.0467 514.498 61.58 514.498C62.1534 514.498 62.74 514.425 63.34 514.278C63.5934 514.212 63.8667 514.105 64.16 513.958C64.4667 513.812 64.6867 513.738 64.82 513.738C65.0467 513.738 65.22 513.805 65.34 513.938C65.4734 514.072 65.54 514.238 65.54 514.438C65.54 514.678 65.4334 514.972 65.22 515.318C65.0067 515.652 64.7067 515.992 64.32 516.338C63.9467 516.672 63.4467 516.958 62.82 517.198C62.1934 517.438 61.52 517.558 60.8 517.558ZM59.44 511.838C60.36 511.825 60.86 511.818 60.94 511.818C61.14 511.818 61.2867 511.698 61.38 511.458C61.4467 511.285 61.48 511.045 61.48 510.738C61.48 509.898 61.2267 509.478 60.72 509.478C60.5334 509.478 60.3467 509.578 60.16 509.778C59.9867 509.978 59.8334 510.265 59.7 510.638C59.5667 510.998 59.48 511.398 59.44 511.838ZM72.6946 517.558C71.0679 517.558 69.7212 517.138 68.6546 516.298C67.6012 515.458 67.0746 514.312 67.0746 512.858C67.0746 511.285 67.5946 510.045 68.6346 509.138C69.6879 508.218 71.0412 507.758 72.6946 507.758C74.2546 507.758 75.3946 508.038 76.1146 508.598C76.8479 509.145 77.2146 509.898 77.2146 510.858C77.2146 511.045 77.1879 511.225 77.1346 511.398C77.0946 511.572 77.0212 511.745 76.9146 511.918C76.8212 512.078 76.6879 512.232 76.5146 512.378C76.3546 512.512 76.1679 512.638 75.9546 512.758C75.7412 512.865 75.4879 512.952 75.1946 513.018C74.9012 513.072 74.5879 513.098 74.2546 513.098L71.4346 513.118C71.5679 513.545 71.8079 513.885 72.1546 514.138C72.5012 514.378 72.9412 514.498 73.4746 514.498C74.0479 514.498 74.6346 514.425 75.2346 514.278C75.4879 514.212 75.7612 514.105 76.0546 513.958C76.3612 513.812 76.5812 513.738 76.7146 513.738C76.9412 513.738 77.1146 513.805 77.2346 513.938C77.3679 514.072 77.4346 514.238 77.4346 514.438C77.4346 514.678 77.3279 514.972 77.1146 515.318C76.9012 515.652 76.6012 515.992 76.2146 516.338C75.8412 516.672 75.3412 516.958 74.7146 517.198C74.0879 517.438 73.4146 517.558 72.6946 517.558ZM71.3346 511.838C72.2546 511.825 72.7546 511.818 72.8346 511.818C73.0346 511.818 73.1812 511.698 73.2746 511.458C73.3412 511.285 73.3746 511.045 73.3746 510.738C73.3746 509.898 73.1212 509.478 72.6146 509.478C72.4279 509.478 72.2412 509.578 72.0546 509.778C71.8812 509.978 71.7279 510.265 71.5946 510.638C71.4612 510.998 71.3746 511.398 71.3346 511.838ZM83.7891 507.758C85.0291 507.758 86.0624 508.012 86.8891 508.518C87.7158 509.025 88.1291 509.578 88.1291 510.178C88.1291 510.352 88.0558 510.512 87.9091 510.658C87.7624 510.805 87.5758 510.878 87.3491 510.878C87.1491 510.878 86.9291 510.812 86.6891 510.678C86.4491 510.532 86.2224 510.378 86.0091 510.218C85.7958 510.058 85.5158 509.912 85.1691 509.778C84.8224 509.645 84.4558 509.578 84.0691 509.578C83.5491 509.578 83.2891 509.738 83.2891 510.058C83.2891 510.285 83.4224 510.465 83.6891 510.598C83.9558 510.732 84.3424 510.872 84.8491 511.018C85.3691 511.165 85.7624 511.305 86.0291 511.438C87.0291 511.825 87.7158 512.245 88.0891 512.698C88.4624 513.138 88.6491 513.725 88.6491 514.458C88.6491 514.818 88.5491 515.178 88.3491 515.538C88.1491 515.885 87.8491 516.218 87.4491 516.538C87.0491 516.845 86.5024 517.098 85.8091 517.298C85.1291 517.485 84.3491 517.578 83.4691 517.578C81.7491 517.578 80.4624 517.185 79.6091 516.398C79.1958 516.012 78.9891 515.612 78.9891 515.198C78.9891 514.945 79.0691 514.745 79.2291 514.598C79.4024 514.452 79.6424 514.378 79.9491 514.378C80.2558 514.378 80.7224 514.532 81.3491 514.838C81.9758 515.132 82.5558 515.278 83.0891 515.278C83.8224 515.278 84.1891 515.098 84.1891 514.738C84.1891 514.552 83.9958 514.405 83.6091 514.298C83.2224 514.178 82.7158 514.038 82.0891 513.878C81.4624 513.718 80.9624 513.518 80.5891 513.278C80.0024 513.025 79.5891 512.712 79.3491 512.338C79.1224 511.952 79.0091 511.485 79.0091 510.938C79.0091 510.005 79.4491 509.245 80.3291 508.658C81.2224 508.058 82.3758 507.758 83.7891 507.758ZM90.9289 513.158V510.798C90.5956 510.785 90.3289 510.732 90.1289 510.638C89.9289 510.532 89.7823 510.398 89.6889 510.238C89.6089 510.078 89.5689 509.878 89.5689 509.638C89.5689 508.878 90.0289 508.465 90.9489 508.398V506.538C90.9489 506.032 91.3156 505.578 92.0489 505.178C92.7823 504.765 93.5089 504.558 94.2289 504.558C94.6689 504.558 94.9556 504.685 95.0889 504.938C95.2223 505.192 95.2889 505.572 95.2889 506.078L95.3089 508.378H95.8489C96.5823 508.378 97.0823 508.478 97.3489 508.678C97.6289 508.865 97.7689 509.212 97.7689 509.718C97.7689 509.932 97.7289 510.112 97.6489 510.258C97.5689 510.405 97.4356 510.518 97.2489 510.598C97.0756 510.678 96.8623 510.738 96.6089 510.778C96.3556 510.805 96.0423 510.818 95.6689 510.818H95.3089V513.018C95.3089 513.232 95.3156 513.412 95.3289 513.558C95.3556 513.692 95.3889 513.798 95.4289 513.878C95.4689 513.958 95.5223 514.012 95.5889 514.038C95.6689 514.065 95.7623 514.078 95.8689 514.078C96.0289 514.078 96.1623 514.025 96.2689 513.918C96.3756 513.798 96.4556 513.672 96.5089 513.538C96.5756 513.392 96.6556 513.265 96.7489 513.158C96.8556 513.038 96.9756 512.978 97.1089 512.978C97.4156 512.978 97.6489 513.052 97.8089 513.198C97.9823 513.345 98.0689 513.525 98.0689 513.738C98.0689 514.098 97.9956 514.485 97.8489 514.898C97.7156 515.312 97.5156 515.712 97.2489 516.098C96.9823 516.485 96.6089 516.805 96.1289 517.058C95.6623 517.312 95.1356 517.438 94.5489 517.438C93.2289 517.438 92.2956 517.105 91.7489 516.438C91.2023 515.772 90.9289 514.678 90.9289 513.158ZM105.156 517.558C103.529 517.558 102.182 517.138 101.116 516.298C100.062 515.458 99.5355 514.312 99.5355 512.858C99.5355 511.285 100.056 510.045 101.096 509.138C102.149 508.218 103.502 507.758 105.156 507.758C106.716 507.758 107.856 508.038 108.576 508.598C109.309 509.145 109.676 509.898 109.676 510.858C109.676 511.045 109.649 511.225 109.596 511.398C109.556 511.572 109.482 511.745 109.376 511.918C109.282 512.078 109.149 512.232 108.976 512.378C108.816 512.512 108.629 512.638 108.416 512.758C108.202 512.865 107.949 512.952 107.656 513.018C107.362 513.072 107.049 513.098 106.716 513.098L103.896 513.118C104.029 513.545 104.269 513.885 104.616 514.138C104.962 514.378 105.402 514.498 105.936 514.498C106.509 514.498 107.096 514.425 107.696 514.278C107.949 514.212 108.222 514.105 108.516 513.958C108.822 513.812 109.042 513.738 109.176 513.738C109.402 513.738 109.576 513.805 109.696 513.938C109.829 514.072 109.896 514.238 109.896 514.438C109.896 514.678 109.789 514.972 109.576 515.318C109.362 515.652 109.062 515.992 108.676 516.338C108.302 516.672 107.802 516.958 107.176 517.198C106.549 517.438 105.876 517.558 105.156 517.558ZM103.796 511.838C104.716 511.825 105.216 511.818 105.296 511.818C105.496 511.818 105.642 511.698 105.736 511.458C105.802 511.285 105.836 511.045 105.836 510.738C105.836 509.898 105.582 509.478 105.076 509.478C104.889 509.478 104.702 509.578 104.516 509.778C104.342 509.978 104.189 510.265 104.056 510.638C103.922 510.998 103.836 511.398 103.796 511.838ZM115.85 515.298C115.85 516.098 115.683 516.658 115.35 516.978C115.017 517.285 114.423 517.438 113.57 517.438C112.783 517.438 112.25 517.258 111.97 516.898C111.69 516.525 111.55 515.918 111.55 515.078V510.158C111.55 509.705 111.63 509.312 111.79 508.978C111.95 508.632 112.183 508.365 112.49 508.178C112.797 507.992 113.157 507.898 113.57 507.898C114.583 507.898 115.25 508.192 115.57 508.778C116.343 508.192 117.09 507.898 117.81 507.898C119.21 507.898 119.91 508.565 119.91 509.898C119.91 510.432 119.757 510.865 119.45 511.198C119.143 511.532 118.743 511.698 118.25 511.698C117.957 511.698 117.717 511.638 117.53 511.518C117.357 511.398 117.19 511.278 117.03 511.158C116.883 511.038 116.71 510.978 116.51 510.978C116.217 510.978 115.997 511.078 115.85 511.278V515.298ZM125.684 507.758C126.924 507.758 127.957 508.012 128.784 508.518C129.61 509.025 130.024 509.578 130.024 510.178C130.024 510.352 129.95 510.512 129.804 510.658C129.657 510.805 129.47 510.878 129.244 510.878C129.044 510.878 128.824 510.812 128.584 510.678C128.344 510.532 128.117 510.378 127.904 510.218C127.69 510.058 127.41 509.912 127.064 509.778C126.717 509.645 126.35 509.578 125.964 509.578C125.444 509.578 125.184 509.738 125.184 510.058C125.184 510.285 125.317 510.465 125.584 510.598C125.85 510.732 126.237 510.872 126.744 511.018C127.264 511.165 127.657 511.305 127.924 511.438C128.924 511.825 129.61 512.245 129.984 512.698C130.357 513.138 130.544 513.725 130.544 514.458C130.544 514.818 130.444 515.178 130.244 515.538C130.044 515.885 129.744 516.218 129.344 516.538C128.944 516.845 128.397 517.098 127.704 517.298C127.024 517.485 126.244 517.578 125.364 517.578C123.644 517.578 122.357 517.185 121.504 516.398C121.09 516.012 120.884 515.612 120.884 515.198C120.884 514.945 120.964 514.745 121.124 514.598C121.297 514.452 121.537 514.378 121.844 514.378C122.15 514.378 122.617 514.532 123.244 514.838C123.87 515.132 124.45 515.278 124.984 515.278C125.717 515.278 126.084 515.098 126.084 514.738C126.084 514.552 125.89 514.405 125.504 514.298C125.117 514.178 124.61 514.038 123.984 513.878C123.357 513.718 122.857 513.518 122.484 513.278C121.897 513.025 121.484 512.712 121.244 512.338C121.017 511.952 120.904 511.485 120.904 510.938C120.904 510.005 121.344 509.245 122.224 508.658C123.117 508.058 124.27 507.758 125.684 507.758ZM137.939 509.958C137.939 509.652 137.765 509.498 137.419 509.498C137.165 509.498 136.939 509.638 136.739 509.918C136.539 510.198 136.385 510.552 136.279 510.978C136.172 511.392 136.119 511.825 136.119 512.278C136.119 512.945 136.319 513.485 136.719 513.898C137.132 514.312 137.685 514.518 138.379 514.518C139.059 514.518 139.645 514.438 140.139 514.278C140.339 514.225 140.579 514.125 140.859 513.978C141.152 513.832 141.359 513.758 141.479 513.758C141.665 513.758 141.819 513.792 141.939 513.858C142.059 513.925 142.139 514.005 142.179 514.098C142.232 514.192 142.259 514.292 142.259 514.398C142.259 514.585 142.192 514.812 142.059 515.078C141.939 515.345 141.745 515.625 141.479 515.918C141.212 516.212 140.899 516.485 140.539 516.738C140.192 516.978 139.759 517.178 139.239 517.338C138.719 517.498 138.172 517.578 137.599 517.578C135.945 517.578 134.585 517.138 133.519 516.258C132.452 515.365 131.919 514.145 131.919 512.598C131.919 511.612 132.159 510.752 132.639 510.018C133.132 509.272 133.805 508.712 134.659 508.338C135.512 507.952 136.492 507.758 137.599 507.758C138.652 507.758 139.519 507.885 140.199 508.138C140.892 508.378 141.385 508.705 141.679 509.118C141.972 509.532 142.119 510.025 142.119 510.598C142.119 510.852 142.065 511.112 141.959 511.378C141.865 511.645 141.712 511.912 141.499 512.178C141.299 512.445 140.999 512.665 140.599 512.838C140.199 512.998 139.732 513.078 139.199 513.078C138.959 513.078 138.759 513.065 138.599 513.038C138.452 513.012 138.292 512.958 138.119 512.878C137.959 512.785 137.839 512.638 137.759 512.438C137.679 512.238 137.639 511.985 137.639 511.678C137.639 511.412 137.685 511.092 137.779 510.718C137.885 510.332 137.939 510.078 137.939 509.958ZM150.251 512.078C150.251 511.318 149.958 510.938 149.371 510.938C149.265 510.938 149.165 510.952 149.071 510.978C148.991 511.005 148.911 511.038 148.831 511.078C148.765 511.118 148.698 511.178 148.631 511.258C148.578 511.325 148.525 511.405 148.471 511.498C148.431 511.578 148.398 511.678 148.371 511.798C148.358 511.918 148.351 512.052 148.351 512.198V514.398C148.351 515.492 148.171 516.272 147.811 516.738C147.465 517.192 146.931 517.418 146.211 517.418C145.465 517.418 144.918 517.212 144.571 516.798C144.225 516.372 144.051 515.625 144.051 514.558L144.011 506.038C144.011 505.212 144.211 504.605 144.611 504.218C145.011 503.832 145.545 503.638 146.211 503.638C146.918 503.638 147.451 503.785 147.811 504.078C148.171 504.372 148.351 504.965 148.351 505.858V508.758C149.338 508.158 150.538 507.858 151.951 507.858C152.591 507.858 153.105 508.025 153.491 508.358C153.878 508.678 154.165 509.192 154.351 509.898C154.538 510.605 154.631 511.532 154.631 512.678C154.631 513.265 154.618 513.772 154.591 514.198C154.578 514.625 154.551 515.018 154.511 515.378C154.471 515.725 154.411 516.012 154.331 516.238C154.251 516.465 154.158 516.658 154.051 516.818C153.945 516.978 153.805 517.105 153.631 517.198C153.471 517.278 153.291 517.338 153.091 517.378C152.891 517.418 152.651 517.438 152.371 517.438C151.625 517.438 151.085 517.305 150.751 517.038C150.431 516.758 150.271 516.338 150.271 515.778L150.251 512.078ZM160.052 517.558C158.999 517.558 158.125 517.132 157.432 516.278C156.739 515.412 156.392 514.232 156.392 512.738C156.392 511.218 156.732 510.012 157.412 509.118C158.105 508.212 158.985 507.758 160.052 507.758C161.132 507.758 162.132 508.138 163.052 508.898C163.412 508.232 163.992 507.898 164.792 507.898C165.512 507.898 166.072 508.058 166.472 508.378C166.872 508.685 167.072 509.258 167.072 510.098V515.298C167.072 516.098 166.905 516.658 166.572 516.978C166.239 517.285 165.652 517.438 164.812 517.438C163.932 517.438 163.352 517.192 163.072 516.698C162.219 517.272 161.212 517.558 160.052 517.558ZM162.772 510.818C162.545 510.432 162.252 510.238 161.892 510.238C161.545 510.238 161.265 510.492 161.052 510.998C160.839 511.505 160.732 512.085 160.732 512.738C160.732 513.352 160.832 513.898 161.032 514.378C161.232 514.858 161.512 515.098 161.872 515.098C162.245 515.098 162.545 514.918 162.772 514.558V510.818ZM173.372 518.598C173.372 519.678 173.192 520.445 172.832 520.898C172.472 521.365 171.919 521.598 171.172 521.598C170.426 521.598 169.879 521.385 169.532 520.958C169.186 520.545 169.012 519.805 169.012 518.738L168.972 510.298C168.972 509.472 169.172 508.865 169.572 508.478C169.972 508.092 170.506 507.898 171.172 507.898C171.692 507.898 172.112 507.965 172.432 508.098C172.752 508.218 172.992 508.465 173.152 508.838C174.072 508.118 175.059 507.758 176.112 507.758C177.179 507.758 178.052 508.205 178.732 509.098C179.412 509.992 179.752 511.205 179.752 512.738C179.752 514.232 179.406 515.412 178.712 516.278C178.019 517.132 177.146 517.558 176.092 517.558C175.079 517.558 174.172 517.332 173.372 516.878V518.598ZM173.372 514.538C173.599 514.912 173.899 515.098 174.272 515.098C174.632 515.098 174.912 514.858 175.112 514.378C175.312 513.898 175.412 513.352 175.412 512.738C175.412 512.085 175.306 511.505 175.092 510.998C174.879 510.492 174.599 510.238 174.252 510.238C173.892 510.238 173.599 510.432 173.372 510.818V514.538ZM56.0962 536.438C56.4829 536.438 56.7295 536.332 56.8362 536.118C56.9429 535.892 56.9962 535.485 56.9962 534.898L57.0162 531.678C57.0162 531.265 57.0829 530.932 57.2162 530.678C57.3629 530.425 57.6029 530.232 57.9362 530.098C58.2695 529.965 58.7162 529.898 59.2762 529.898C59.6362 529.898 59.9295 529.938 60.1562 530.018C60.3829 530.098 60.5829 530.232 60.7562 530.418C60.9295 530.592 61.0562 530.865 61.1362 531.238C61.2162 531.598 61.2762 532.038 61.3162 532.558C61.3562 533.065 61.3762 533.712 61.3762 534.498C61.3762 535.218 61.2629 535.865 61.0362 536.438C60.8095 537.012 60.5162 537.485 60.1562 537.858C59.8095 538.218 59.4029 538.525 58.9362 538.778C58.4695 539.018 58.0029 539.192 57.5362 539.298C57.0695 539.392 56.5962 539.438 56.1162 539.438C55.6495 539.438 55.1829 539.392 54.7162 539.298C54.2495 539.192 53.7762 539.018 53.2962 538.778C52.8295 538.525 52.4162 538.218 52.0562 537.858C51.6962 537.485 51.4029 537.012 51.1762 536.438C50.9495 535.865 50.8362 535.218 50.8362 534.498C50.8362 533.192 50.8962 532.225 51.0162 531.598C51.1362 530.958 51.3362 530.518 51.6162 530.278C51.9095 530.025 52.3495 529.898 52.9362 529.898C53.7629 529.898 54.3495 530.045 54.6962 530.338C55.0429 530.618 55.2162 531.065 55.2162 531.678L55.2362 534.878C55.2362 535.092 55.2362 535.252 55.2362 535.358C55.2362 535.452 55.2429 535.572 55.2562 535.718C55.2695 535.865 55.2962 535.972 55.3362 536.038C55.3762 536.105 55.4229 536.178 55.4762 536.258C55.5429 536.325 55.6229 536.372 55.7162 536.398C55.8229 536.425 55.9495 536.438 56.0962 536.438ZM69.68 534.698C69.68 534.005 69.5933 533.398 69.42 532.878C69.2466 532.345 68.9933 532.078 68.66 532.078C68.4333 532.078 68.2333 532.212 68.06 532.478C67.8866 532.745 67.76 533.072 67.68 533.458C67.6 533.845 67.56 534.258 67.56 534.698C67.56 535.378 67.6533 535.978 67.84 536.498C68.0266 537.005 68.2933 537.258 68.64 537.258C68.9866 537.258 69.2466 537.005 69.42 536.498C69.5933 535.992 69.68 535.392 69.68 534.698ZM68.64 539.578C67.6 539.578 66.66 539.392 65.82 539.018C64.9933 538.645 64.3266 538.085 63.82 537.338C63.3266 536.592 63.08 535.718 63.08 534.718C63.08 533.198 63.6 531.992 64.64 531.098C65.68 530.205 67.0133 529.758 68.64 529.758C70.2666 529.758 71.5933 530.205 72.62 531.098C73.6466 531.992 74.16 533.198 74.16 534.718C74.16 536.225 73.6333 537.412 72.58 538.278C71.54 539.145 70.2266 539.578 68.64 539.578ZM82.2971 534.698C82.2971 534.005 82.2105 533.398 82.0371 532.878C81.8638 532.345 81.6105 532.078 81.2771 532.078C81.0505 532.078 80.8505 532.212 80.6771 532.478C80.5038 532.745 80.3771 533.072 80.2971 533.458C80.2171 533.845 80.1771 534.258 80.1771 534.698C80.1771 535.378 80.2705 535.978 80.4571 536.498C80.6438 537.005 80.9105 537.258 81.2571 537.258C81.6038 537.258 81.8638 537.005 82.0371 536.498C82.2105 535.992 82.2971 535.392 82.2971 534.698ZM81.2571 539.578C80.2171 539.578 79.2771 539.392 78.4371 539.018C77.6105 538.645 76.9438 538.085 76.4371 537.338C75.9438 536.592 75.6971 535.718 75.6971 534.718C75.6971 533.198 76.2171 531.992 77.2571 531.098C78.2971 530.205 79.6305 529.758 81.2571 529.758C82.8838 529.758 84.2105 530.205 85.2371 531.098C86.2638 531.992 86.7771 533.198 86.7771 534.718C86.7771 536.225 86.2505 537.412 85.1971 538.278C84.1571 539.145 82.8438 539.578 81.2571 539.578ZM92.7543 537.298C92.7543 538.098 92.5877 538.658 92.2543 538.978C91.921 539.285 91.3277 539.438 90.4743 539.438C89.6877 539.438 89.1543 539.258 88.8743 538.898C88.5943 538.525 88.4543 537.918 88.4543 537.078V532.158C88.4543 531.705 88.5343 531.312 88.6943 530.978C88.8543 530.632 89.0877 530.365 89.3943 530.178C89.701 529.992 90.061 529.898 90.4743 529.898C91.4877 529.898 92.1543 530.192 92.4743 530.778C93.2477 530.192 93.9943 529.898 94.7143 529.898C96.1143 529.898 96.8143 530.565 96.8143 531.898C96.8143 532.432 96.661 532.865 96.3543 533.198C96.0477 533.532 95.6477 533.698 95.1543 533.698C94.861 533.698 94.621 533.638 94.4343 533.518C94.261 533.398 94.0943 533.278 93.9343 533.158C93.7877 533.038 93.6143 532.978 93.4143 532.978C93.121 532.978 92.901 533.078 92.7543 533.278V537.298ZM103.301 536.598H102.581C102.581 537.292 102.381 537.938 101.981 538.538C101.581 539.138 101.048 539.438 100.381 539.438C99.6342 539.438 99.0809 539.232 98.7209 538.818C98.3742 538.392 98.2009 537.645 98.2009 536.578V528.358C98.2009 527.785 98.2942 527.325 98.4809 526.978C98.6676 526.618 98.9076 526.365 99.2009 526.218C99.5076 526.072 99.9009 525.985 100.381 525.958C101.208 525.958 101.761 526.238 102.041 526.798C102.321 527.345 102.461 528.298 102.461 529.658C102.461 530.712 102.401 531.638 102.281 532.438C102.374 532.732 102.674 532.878 103.181 532.878C103.501 532.878 103.714 532.812 103.821 532.678C103.941 532.532 104.001 532.245 104.001 531.818C104.001 531.192 104.161 530.738 104.481 530.458C104.814 530.178 105.374 530.038 106.161 530.038C106.988 530.038 107.541 530.192 107.821 530.498C108.114 530.792 108.261 531.332 108.261 532.118C108.261 532.945 108.014 533.585 107.521 534.038C107.028 534.492 106.474 534.718 105.861 534.718C106.488 534.718 107.041 534.912 107.521 535.298C108.014 535.672 108.261 536.238 108.261 536.998C108.261 538.012 108.121 538.672 107.841 538.978C107.574 539.285 107.014 539.438 106.161 539.438C105.374 539.438 104.814 539.298 104.481 539.018C104.161 538.725 104.001 538.272 104.001 537.658C104.001 537.352 103.974 537.125 103.921 536.978C103.868 536.818 103.794 536.718 103.701 536.678C103.621 536.625 103.488 536.598 103.301 536.598ZM115.048 539.558C113.421 539.558 112.075 539.138 111.008 538.298C109.955 537.458 109.428 536.312 109.428 534.858C109.428 533.285 109.948 532.045 110.988 531.138C112.041 530.218 113.395 529.758 115.048 529.758C116.608 529.758 117.748 530.038 118.468 530.598C119.201 531.145 119.568 531.898 119.568 532.858C119.568 533.045 119.541 533.225 119.488 533.398C119.448 533.572 119.375 533.745 119.268 533.918C119.175 534.078 119.041 534.232 118.868 534.378C118.708 534.512 118.521 534.638 118.308 534.758C118.095 534.865 117.841 534.952 117.548 535.018C117.255 535.072 116.941 535.098 116.608 535.098L113.788 535.118C113.921 535.545 114.161 535.885 114.508 536.138C114.855 536.378 115.295 536.498 115.828 536.498C116.401 536.498 116.988 536.425 117.588 536.278C117.841 536.212 118.115 536.105 118.408 535.958C118.715 535.812 118.935 535.738 119.068 535.738C119.295 535.738 119.468 535.805 119.588 535.938C119.721 536.072 119.788 536.238 119.788 536.438C119.788 536.678 119.681 536.972 119.468 537.318C119.255 537.652 118.955 537.992 118.568 538.338C118.195 538.672 117.695 538.958 117.068 539.198C116.441 539.438 115.768 539.558 115.048 539.558ZM113.688 533.838C114.608 533.825 115.108 533.818 115.188 533.818C115.388 533.818 115.535 533.698 115.628 533.458C115.695 533.285 115.728 533.045 115.728 532.738C115.728 531.898 115.475 531.478 114.968 531.478C114.781 531.478 114.595 531.578 114.408 531.778C114.235 531.978 114.081 532.265 113.948 532.638C113.815 532.998 113.728 533.398 113.688 533.838ZM125.823 535.218C125.823 535.978 126.116 536.358 126.703 536.358C126.903 536.358 127.076 536.298 127.223 536.178C127.383 536.045 127.503 535.865 127.583 535.638C127.663 535.412 127.703 535.152 127.703 534.858V532.178C127.703 531.725 127.783 531.332 127.943 530.998C128.103 530.652 128.336 530.385 128.643 530.198C128.949 530.012 129.309 529.918 129.723 529.918C130.443 529.918 131.003 530.078 131.403 530.398C131.803 530.705 132.003 531.278 132.003 532.118V537.318C132.003 538.132 131.836 538.692 131.503 538.998C131.169 539.305 130.583 539.458 129.743 539.458C129.383 539.458 129.076 539.425 128.823 539.358C128.569 539.278 128.363 539.165 128.203 539.018C128.056 538.872 127.943 538.678 127.863 538.438C127.316 538.798 126.736 539.052 126.123 539.198C125.523 539.345 124.849 539.418 124.103 539.418C123.156 539.418 122.476 539.052 122.063 538.318C121.649 537.572 121.443 536.352 121.443 534.658C121.443 533.818 121.463 533.138 121.503 532.618C121.543 532.085 121.603 531.632 121.683 531.258C121.776 530.872 121.909 530.585 122.083 530.398C122.269 530.212 122.483 530.078 122.723 529.998C122.976 529.918 123.303 529.878 123.703 529.878C124.449 529.878 124.983 530.018 125.303 530.298C125.636 530.578 125.803 530.998 125.803 531.558L125.823 535.218ZM138.243 537.298C138.243 538.098 138.076 538.658 137.743 538.978C137.409 539.285 136.816 539.438 135.963 539.438C135.176 539.438 134.643 539.258 134.363 538.898C134.083 538.525 133.943 537.918 133.943 537.078V532.158C133.943 531.705 134.023 531.312 134.183 530.978C134.343 530.632 134.576 530.365 134.883 530.178C135.189 529.992 135.549 529.898 135.963 529.898C136.976 529.898 137.643 530.192 137.963 530.778C138.736 530.192 139.483 529.898 140.203 529.898C141.603 529.898 142.303 530.565 142.303 531.898C142.303 532.432 142.149 532.865 141.843 533.198C141.536 533.532 141.136 533.698 140.643 533.698C140.349 533.698 140.109 533.638 139.923 533.518C139.749 533.398 139.583 533.278 139.423 533.158C139.276 533.038 139.103 532.978 138.903 532.978C138.609 532.978 138.389 533.078 138.243 533.278V537.298ZM148.486 539.558C146.859 539.558 145.512 539.138 144.446 538.298C143.392 537.458 142.866 536.312 142.866 534.858C142.866 533.285 143.386 532.045 144.426 531.138C145.479 530.218 146.832 529.758 148.486 529.758C150.046 529.758 151.186 530.038 151.906 530.598C152.639 531.145 153.006 531.898 153.006 532.858C153.006 533.045 152.979 533.225 152.926 533.398C152.886 533.572 152.812 533.745 152.706 533.918C152.612 534.078 152.479 534.232 152.306 534.378C152.146 534.512 151.959 534.638 151.746 534.758C151.532 534.865 151.279 534.952 150.986 535.018C150.692 535.072 150.379 535.098 150.046 535.098L147.226 535.118C147.359 535.545 147.599 535.885 147.946 536.138C148.292 536.378 148.732 536.498 149.266 536.498C149.839 536.498 150.426 536.425 151.026 536.278C151.279 536.212 151.552 536.105 151.846 535.958C152.152 535.812 152.372 535.738 152.506 535.738C152.732 535.738 152.906 535.805 153.026 535.938C153.159 536.072 153.226 536.238 153.226 536.438C153.226 536.678 153.119 536.972 152.906 537.318C152.692 537.652 152.392 537.992 152.006 538.338C151.632 538.672 151.132 538.958 150.506 539.198C149.879 539.438 149.206 539.558 148.486 539.558ZM147.126 533.838C148.046 533.825 148.546 533.818 148.626 533.818C148.826 533.818 148.972 533.698 149.066 533.458C149.132 533.285 149.166 533.045 149.166 532.738C149.166 531.898 148.912 531.478 148.406 531.478C148.219 531.478 148.032 531.578 147.846 531.778C147.672 531.978 147.519 532.265 147.386 532.638C147.252 532.998 147.166 533.398 147.126 533.838ZM161.02 534.058C161.02 533.312 160.727 532.938 160.14 532.938C159.86 532.938 159.627 533.058 159.44 533.298C159.267 533.525 159.167 533.832 159.14 534.218V537.298C159.14 538.112 158.973 538.672 158.64 538.978C158.307 539.285 157.72 539.438 156.88 539.438C156.093 539.438 155.553 539.258 155.26 538.898C154.98 538.525 154.84 537.918 154.84 537.078V532.158C154.84 531.478 155.02 530.932 155.38 530.518C155.753 530.105 156.247 529.898 156.86 529.898C157.367 529.898 157.793 529.972 158.14 530.118C158.487 530.265 158.747 530.518 158.92 530.878C159.96 530.198 161.227 529.858 162.72 529.858C163.667 529.858 164.347 530.232 164.76 530.978C165.187 531.725 165.4 532.952 165.4 534.658C165.4 535.498 165.38 536.185 165.34 536.718C165.3 537.238 165.233 537.692 165.14 538.078C165.06 538.452 164.927 538.732 164.74 538.918C164.553 539.105 164.333 539.238 164.08 539.318C163.84 539.398 163.527 539.438 163.14 539.438C162.393 539.438 161.853 539.298 161.52 539.018C161.2 538.738 161.04 538.325 161.04 537.778L161.02 534.058Z" fill="black"/>
</svg>
