<svg width="185" height="700" viewBox="0 0 185 700" fill="none" xmlns="http://www.w3.org/2000/svg">
<path d="M170.276 289.914C167.943 265.8 143.125 242.464 133.013 227.685C122.901 212.905 125.986 180.135 125.986 180.135L92.6008 164.321V163.9L92.1567 164.11L91.7126 163.9V164.321L58.3272 180.135C58.3272 180.135 61.4128 212.906 51.3008 227.685C41.1889 242.463 16.3707 265.8 14.0364 289.914C11.703 314.027 6.25798 661.732 14.0364 671.067C21.4549 679.969 86.1744 681.756 92.1567 681.756C98.139 681.756 162.858 679.969 170.277 671.067C178.055 661.732 172.61 314.027 170.276 289.914Z" fill="#F7D879"/>
<path d="M133.012 228.338C122.9 213.558 125.985 180.788 125.985 180.788L108.866 172.679C104.924 195.49 109.127 225.203 117.607 246.489C123.424 261.091 132.62 274.219 137.793 289.061C144.024 306.939 144.092 326.291 144.092 345.224C144.093 424.783 144.093 504.342 144.094 583.901C144.094 609.143 142.876 637.393 124.624 654.83C109.65 669.135 87.3751 671.922 66.74 673.669C48.7816 675.189 28.4912 675.483 12.9832 667.96C13.3034 669.974 13.6535 671.261 14.0357 671.72C21.4542 680.622 86.1729 682.409 92.1552 682.409C98.1375 682.409 162.857 680.622 170.275 671.72C178.054 662.385 172.609 314.68 170.275 290.567C167.943 266.453 143.125 243.117 133.012 228.338Z" fill="#D5A617"/>
<path d="M127.61 25.6157C126.592 21.2912 108.506 18.3271 92.2591 17.5903C76.012 18.3271 57.9258 21.2919 56.9078 25.6157C54.8242 34.4703 54.3221 43.5 55.4097 52.5564C55.7346 55.2575 55.811 58.5173 57.452 61.1519C58.895 63.4693 62.6494 64.2971 62.3475 67.0448C57.3779 69.1024 57.478 69.4838 57.4879 72.0244C57.6308 107.934 57.7738 143.845 57.9175 179.755C57.9236 181.343 57.9893 183.039 59.7121 184.44C61.1505 185.611 63.5268 186.389 65.8389 187.089C74.2831 189.643 110.238 189.643 118.682 187.089C120.993 186.389 123.369 185.611 124.808 184.44C126.53 183.039 126.596 181.343 126.603 179.755C126.746 143.845 126.889 107.934 127.033 72.0244C127.042 69.4845 127.143 69.1024 122.173 67.0448C121.871 64.2971 125.625 63.4693 127.068 61.1519C128.709 58.5173 128.786 55.2575 129.111 52.5564C130.197 43.5 129.695 34.4703 127.61 25.6157Z" fill="#313D3C"/>
<path d="M127.61 25.6157C126.592 21.2912 108.507 18.3271 92.2592 17.5903C88.5255 17.7592 84.6955 18.0482 80.9969 18.4418C93.3919 19.7625 104.302 22.2848 105.085 25.6157C107.169 34.4703 107.671 43.5 106.583 52.5564C106.258 55.2575 106.182 58.5173 104.541 61.1519C103.098 63.4693 99.3436 64.2971 99.6455 67.0448C104.615 69.1024 104.515 69.4838 104.505 72.0244C104.362 107.934 104.219 143.845 104.076 179.755C104.069 181.343 104.004 183.039 102.281 184.44C100.842 185.611 98.4662 186.389 96.1541 187.089C93.3964 187.923 87.7046 188.484 80.9954 188.774C94.8311 189.371 112.993 188.809 118.679 187.089C120.991 186.389 123.367 185.611 124.806 184.44C126.528 183.039 126.594 181.343 126.601 179.755C126.744 143.845 126.887 107.934 127.03 72.0244C127.04 69.4845 127.14 69.1024 122.171 67.0448C121.868 64.2971 125.622 63.4693 127.066 61.1519C128.707 58.5173 128.784 55.2575 129.108 52.5564C130.197 43.5 129.695 34.4703 127.61 25.6157Z" fill="#1B2120"/>
<path d="M104.86 58.6145C101.923 60.2708 98.4555 60.6514 95.0925 60.8869C83.3136 61.7108 71.4866 61.1605 59.6917 60.6102C71.9765 63.2792 84.8323 64.1704 96.2658 69.3968C99.9574 71.0844 103.729 73.5478 104.919 77.4282C105.098 78.0145 105.223 78.6397 105.597 79.125C105.972 79.6104 106.706 79.8932 107.209 79.5439C107.429 79.3918 107.565 79.151 107.694 78.9171C111.936 71.1891 114.428 62.5057 114.927 53.7038C115.092 50.7948 113.056 47.1719 110.622 50.5861C108.517 53.5402 108.37 56.6357 104.86 58.6145Z" fill="#1B2120"/>
<path d="M174.312 396.465H10V545.948H174.312V396.465Z" fill="#F5F5F7"/>
<path d="M173.018 396.465H144.094C144.094 446.293 144.094 496.121 144.094 545.948H174.312C174.3 497.589 173.748 442.903 173.018 396.465Z" fill="#F5F5F7"/>
<path d="M171.68 404.175H12.9839V408.356H171.68V404.175Z" fill="#F5D57F"/>
<path d="M171.68 535.71H15.3694V539.257H171.68V535.71Z" fill="#F5D57F"/>
<path d="M72.0091 451.59C72.0091 452.67 71.8157 453.444 71.4291 453.91C71.0424 454.364 70.4557 454.59 69.6691 454.59C68.8957 454.59 68.3291 454.384 67.9691 453.97C67.6091 453.544 67.4291 452.797 67.4291 451.73L67.4091 449.47H63.3291V451.59C63.3291 452.684 63.1424 453.457 62.7691 453.91C62.3957 454.364 61.8024 454.59 60.9891 454.59C60.2157 454.59 59.6491 454.384 59.2891 453.97C58.9291 453.544 58.7491 452.797 58.7491 451.73L58.6891 443.29C58.6891 442.464 58.8957 441.857 59.3091 441.47C59.7357 441.084 60.2957 440.89 60.9891 440.89C61.7891 440.89 62.3757 441.037 62.7491 441.33C63.1357 441.624 63.3291 442.217 63.3291 443.11V446.47H67.3891V443.29C67.3891 442.73 67.4891 442.27 67.6891 441.91C67.9024 441.537 68.1691 441.277 68.4891 441.13C68.8224 440.97 69.2157 440.89 69.6691 440.89C70.4424 440.89 71.0224 441.037 71.4091 441.33C71.8091 441.624 72.0091 442.217 72.0091 443.11V451.59ZM78.4545 450.37C78.4545 451.13 78.7479 451.51 79.3345 451.51C79.5345 451.51 79.7079 451.45 79.8545 451.33C80.0145 451.197 80.1345 451.017 80.2145 450.79C80.2945 450.564 80.3345 450.304 80.3345 450.01V447.33C80.3345 446.877 80.4145 446.484 80.5745 446.15C80.7345 445.804 80.9679 445.537 81.2745 445.35C81.5812 445.164 81.9412 445.07 82.3545 445.07C83.0745 445.07 83.6345 445.23 84.0345 445.55C84.4345 445.857 84.6345 446.43 84.6345 447.27V452.47C84.6345 453.284 84.4679 453.844 84.1345 454.15C83.8012 454.457 83.2145 454.61 82.3745 454.61C82.0145 454.61 81.7079 454.577 81.4545 454.51C81.2012 454.43 80.9945 454.317 80.8345 454.17C80.6879 454.024 80.5745 453.83 80.4945 453.59C79.9479 453.95 79.3679 454.204 78.7545 454.35C78.1545 454.497 77.4812 454.57 76.7345 454.57C75.7879 454.57 75.1079 454.204 74.6945 453.47C74.2812 452.724 74.0745 451.504 74.0745 449.81C74.0745 448.97 74.0945 448.29 74.1345 447.77C74.1745 447.237 74.2345 446.784 74.3145 446.41C74.4079 446.024 74.5412 445.737 74.7145 445.55C74.9012 445.364 75.1145 445.23 75.3545 445.15C75.6079 445.07 75.9345 445.03 76.3345 445.03C77.0812 445.03 77.6145 445.17 77.9345 445.45C78.2679 445.73 78.4345 446.15 78.4345 446.71L78.4545 450.37ZM98.4345 449.31C98.4345 448.564 98.1345 448.19 97.5345 448.19C97.2679 448.19 97.0679 448.344 96.9345 448.65C96.8012 448.957 96.7345 449.344 96.7345 449.81C96.7345 450.517 96.7212 451.104 96.6945 451.57C96.6812 452.037 96.6412 452.457 96.5745 452.83C96.5079 453.204 96.4279 453.497 96.3345 453.71C96.2412 453.924 96.1145 454.104 95.9545 454.25C95.7945 454.384 95.6145 454.477 95.4145 454.53C95.2145 454.57 94.9612 454.59 94.6545 454.59C94.1879 454.59 93.8079 454.524 93.5145 454.39C93.2345 454.257 93.0345 454.07 92.9145 453.83C92.7945 453.59 92.7345 453.29 92.7345 452.93V449.31C92.7345 448.564 92.4345 448.19 91.8345 448.19C91.5945 448.19 91.3945 448.33 91.2345 448.61C91.0879 448.877 91.0145 449.23 91.0145 449.67V452.45C91.0145 453.25 90.8479 453.81 90.5145 454.13C90.1812 454.437 89.5945 454.59 88.7545 454.59C87.9679 454.59 87.4279 454.41 87.1345 454.05C86.8545 453.677 86.7145 453.07 86.7145 452.23V447.31C86.7145 446.63 86.8945 446.084 87.2545 445.67C87.6279 445.257 88.1212 445.05 88.7345 445.05C89.8279 445.05 90.5212 445.404 90.8145 446.11C91.3212 445.737 91.8145 445.477 92.2945 445.33C92.7879 445.184 93.3612 445.11 94.0145 445.11C95.0012 445.11 95.7145 445.537 96.1545 446.39C96.2212 446.337 96.2879 446.284 96.3545 446.23C97.3812 445.484 98.6412 445.11 100.135 445.11C101.081 445.11 101.761 445.47 102.175 446.19C102.588 446.91 102.795 448.117 102.795 449.81C102.795 450.517 102.781 451.104 102.755 451.57C102.741 452.037 102.701 452.457 102.635 452.83C102.568 453.204 102.481 453.497 102.375 453.71C102.281 453.924 102.141 454.104 101.955 454.25C101.781 454.384 101.581 454.477 101.355 454.53C101.141 454.57 100.868 454.59 100.535 454.59C100.028 454.59 99.6145 454.524 99.2945 454.39C98.9879 454.257 98.7679 454.07 98.6345 453.83C98.5012 453.59 98.4345 453.29 98.4345 452.93V449.31ZM108.26 454.71C107.207 454.71 106.333 454.284 105.64 453.43C104.947 452.564 104.6 451.384 104.6 449.89C104.6 448.37 104.94 447.164 105.62 446.27C106.313 445.364 107.193 444.91 108.26 444.91C109.34 444.91 110.34 445.29 111.26 446.05C111.62 445.384 112.2 445.05 113 445.05C113.72 445.05 114.28 445.21 114.68 445.53C115.08 445.837 115.28 446.41 115.28 447.25V452.45C115.28 453.25 115.113 453.81 114.78 454.13C114.447 454.437 113.86 454.59 113.02 454.59C112.14 454.59 111.56 454.344 111.28 453.85C110.427 454.424 109.42 454.71 108.26 454.71ZM110.98 447.97C110.753 447.584 110.46 447.39 110.1 447.39C109.753 447.39 109.473 447.644 109.26 448.15C109.047 448.657 108.94 449.237 108.94 449.89C108.94 450.504 109.04 451.05 109.24 451.53C109.44 452.01 109.72 452.25 110.08 452.25C110.453 452.25 110.753 452.07 110.98 451.71V447.97ZM123.3 449.21C123.3 448.464 123.007 448.09 122.42 448.09C122.14 448.09 121.907 448.21 121.72 448.45C121.547 448.677 121.447 448.984 121.42 449.37V452.45C121.42 453.264 121.254 453.824 120.92 454.13C120.587 454.437 120 454.59 119.16 454.59C118.374 454.59 117.834 454.41 117.54 454.05C117.26 453.677 117.12 453.07 117.12 452.23V447.31C117.12 446.63 117.3 446.084 117.66 445.67C118.034 445.257 118.527 445.05 119.14 445.05C119.647 445.05 120.074 445.124 120.42 445.27C120.767 445.417 121.027 445.67 121.2 446.03C122.24 445.35 123.507 445.01 125 445.01C125.947 445.01 126.627 445.384 127.04 446.13C127.467 446.877 127.68 448.104 127.68 449.81C127.68 450.65 127.66 451.337 127.62 451.87C127.58 452.39 127.514 452.844 127.42 453.23C127.34 453.604 127.207 453.884 127.02 454.07C126.834 454.257 126.614 454.39 126.36 454.47C126.12 454.55 125.807 454.59 125.42 454.59C124.674 454.59 124.134 454.45 123.8 454.17C123.48 453.89 123.32 453.477 123.32 452.93L123.3 449.21ZM55.1438 466.65C55.1438 466.37 55.0238 466.13 54.7838 465.93C54.5572 465.73 54.2838 465.63 53.9638 465.63C53.3238 465.63 52.7972 465.997 52.3838 466.73C51.9705 467.45 51.7638 468.27 51.7638 469.19C51.7638 469.897 51.8972 470.537 52.1638 471.11C52.4305 471.67 52.8172 472.117 53.3238 472.45C53.8305 472.784 54.4172 472.95 55.0838 472.95C55.5772 472.95 56.0505 472.857 56.5038 472.67C56.9572 472.47 57.3238 472.257 57.6038 472.03C57.8838 471.79 58.1705 471.577 58.4638 471.39C58.7705 471.19 59.0372 471.09 59.2638 471.09C59.5572 471.09 59.8105 471.21 60.0238 471.45C60.2372 471.677 60.3438 471.917 60.3438 472.17C60.3438 472.45 60.2572 472.777 60.0838 473.15C59.9238 473.524 59.6638 473.924 59.3038 474.35C58.9438 474.764 58.5238 475.15 58.0438 475.51C57.5638 475.857 56.9638 476.15 56.2438 476.39C55.5372 476.617 54.7905 476.73 54.0038 476.73C52.9638 476.73 51.9972 476.577 51.1038 476.27C50.2238 475.95 49.4572 475.504 48.8038 474.93C48.1505 474.344 47.6372 473.61 47.2638 472.73C46.8905 471.85 46.7038 470.864 46.7038 469.77C46.7038 467.61 47.3505 465.904 48.6438 464.65C49.9372 463.397 51.6305 462.77 53.7238 462.77C54.7905 462.77 55.7772 462.95 56.6838 463.31C57.5905 463.67 58.3105 464.17 58.8438 464.81C59.3772 465.45 59.6438 466.15 59.6438 466.91C59.6438 467.79 59.3505 468.59 58.7638 469.31C58.1772 470.017 57.4172 470.37 56.4838 470.37C55.9505 470.37 55.4705 470.224 55.0438 469.93C54.6172 469.637 54.4038 469.217 54.4038 468.67C54.4038 468.417 54.5238 468.064 54.7638 467.61C55.0172 467.157 55.1438 466.837 55.1438 466.65ZM67.5726 476.71C65.9459 476.71 64.5993 476.29 63.5326 475.45C62.4793 474.61 61.9526 473.464 61.9526 472.01C61.9526 470.437 62.4726 469.197 63.5126 468.29C64.5659 467.37 65.9193 466.91 67.5726 466.91C69.1326 466.91 70.2726 467.19 70.9926 467.75C71.7259 468.297 72.0926 469.05 72.0926 470.01C72.0926 470.197 72.0659 470.377 72.0126 470.55C71.9726 470.724 71.8993 470.897 71.7926 471.07C71.6993 471.23 71.5659 471.384 71.3926 471.53C71.2326 471.664 71.0459 471.79 70.8326 471.91C70.6193 472.017 70.3659 472.104 70.0726 472.17C69.7793 472.224 69.4659 472.25 69.1326 472.25L66.3126 472.27C66.4459 472.697 66.6859 473.037 67.0326 473.29C67.3793 473.53 67.8193 473.65 68.3526 473.65C68.9259 473.65 69.5126 473.577 70.1126 473.43C70.3659 473.364 70.6393 473.257 70.9326 473.11C71.2393 472.964 71.4593 472.89 71.5926 472.89C71.8193 472.89 71.9926 472.957 72.1126 473.09C72.2459 473.224 72.3126 473.39 72.3126 473.59C72.3126 473.83 72.2059 474.124 71.9926 474.47C71.7793 474.804 71.4793 475.144 71.0926 475.49C70.7193 475.824 70.2193 476.11 69.5926 476.35C68.9659 476.59 68.2926 476.71 67.5726 476.71ZM66.2126 470.99C67.1326 470.977 67.6326 470.97 67.7126 470.97C67.9126 470.97 68.0593 470.85 68.1526 470.61C68.2193 470.437 68.2526 470.197 68.2526 469.89C68.2526 469.05 67.9993 468.63 67.4926 468.63C67.3059 468.63 67.1193 468.73 66.9326 468.93C66.7593 469.13 66.6059 469.417 66.4726 469.79C66.3393 470.15 66.2526 470.55 66.2126 470.99ZM80.1071 471.21C80.1071 470.464 79.8138 470.09 79.2271 470.09C78.9471 470.09 78.7138 470.21 78.5271 470.45C78.3538 470.677 78.2538 470.984 78.2271 471.37V474.45C78.2271 475.264 78.0605 475.824 77.7271 476.13C77.3938 476.437 76.8071 476.59 75.9671 476.59C75.1805 476.59 74.6405 476.41 74.3471 476.05C74.0671 475.677 73.9271 475.07 73.9271 474.23V469.31C73.9271 468.63 74.1071 468.084 74.4671 467.67C74.8405 467.257 75.3338 467.05 75.9471 467.05C76.4538 467.05 76.8805 467.124 77.2271 467.27C77.5738 467.417 77.8338 467.67 78.0071 468.03C79.0471 467.35 80.3138 467.01 81.8071 467.01C82.7538 467.01 83.4338 467.384 83.8471 468.13C84.2738 468.877 84.4871 470.104 84.4871 471.81C84.4871 472.65 84.4671 473.337 84.4271 473.87C84.3871 474.39 84.3205 474.844 84.2271 475.23C84.1471 475.604 84.0138 475.884 83.8271 476.07C83.6405 476.257 83.4205 476.39 83.1671 476.47C82.9271 476.55 82.6138 476.59 82.2271 476.59C81.4805 476.59 80.9405 476.45 80.6071 476.17C80.2871 475.89 80.1271 475.477 80.1271 474.93L80.1071 471.21ZM87.2913 472.31V469.95C86.958 469.937 86.6913 469.884 86.4913 469.79C86.2913 469.684 86.1447 469.55 86.0513 469.39C85.9713 469.23 85.9313 469.03 85.9313 468.79C85.9313 468.03 86.3913 467.617 87.3113 467.55V465.69C87.3113 465.184 87.678 464.73 88.4113 464.33C89.1447 463.917 89.8713 463.71 90.5913 463.71C91.0313 463.71 91.318 463.837 91.4513 464.09C91.5847 464.344 91.6513 464.724 91.6513 465.23L91.6713 467.53H92.2113C92.9447 467.53 93.4447 467.63 93.7113 467.83C93.9913 468.017 94.1313 468.364 94.1313 468.87C94.1313 469.084 94.0913 469.264 94.0113 469.41C93.9313 469.557 93.798 469.67 93.6113 469.75C93.438 469.83 93.2247 469.89 92.9713 469.93C92.718 469.957 92.4047 469.97 92.0313 469.97H91.6713V472.17C91.6713 472.384 91.678 472.564 91.6913 472.71C91.718 472.844 91.7513 472.95 91.7913 473.03C91.8313 473.11 91.8847 473.164 91.9513 473.19C92.0313 473.217 92.1247 473.23 92.2313 473.23C92.3913 473.23 92.5247 473.177 92.6313 473.07C92.738 472.95 92.818 472.824 92.8713 472.69C92.938 472.544 93.018 472.417 93.1113 472.31C93.218 472.19 93.338 472.13 93.4713 472.13C93.778 472.13 94.0113 472.204 94.1713 472.35C94.3447 472.497 94.4313 472.677 94.4313 472.89C94.4313 473.25 94.358 473.637 94.2113 474.05C94.078 474.464 93.878 474.864 93.6113 475.25C93.3447 475.637 92.9713 475.957 92.4913 476.21C92.0247 476.464 91.498 476.59 90.9113 476.59C89.5913 476.59 88.658 476.257 88.1113 475.59C87.5647 474.924 87.2913 473.83 87.2913 472.31ZM101.518 476.71C99.8912 476.71 98.5446 476.29 97.4779 475.45C96.4246 474.61 95.8979 473.464 95.8979 472.01C95.8979 470.437 96.4179 469.197 97.4579 468.29C98.5112 467.37 99.8646 466.91 101.518 466.91C103.078 466.91 104.218 467.19 104.938 467.75C105.671 468.297 106.038 469.05 106.038 470.01C106.038 470.197 106.011 470.377 105.958 470.55C105.918 470.724 105.845 470.897 105.738 471.07C105.645 471.23 105.511 471.384 105.338 471.53C105.178 471.664 104.991 471.79 104.778 471.91C104.565 472.017 104.311 472.104 104.018 472.17C103.725 472.224 103.411 472.25 103.078 472.25L100.258 472.27C100.391 472.697 100.631 473.037 100.978 473.29C101.325 473.53 101.765 473.65 102.298 473.65C102.871 473.65 103.458 473.577 104.058 473.43C104.311 473.364 104.585 473.257 104.878 473.11C105.185 472.964 105.405 472.89 105.538 472.89C105.765 472.89 105.938 472.957 106.058 473.09C106.191 473.224 106.258 473.39 106.258 473.59C106.258 473.83 106.151 474.124 105.938 474.47C105.725 474.804 105.425 475.144 105.038 475.49C104.665 475.824 104.165 476.11 103.538 476.35C102.911 476.59 102.238 476.71 101.518 476.71ZM100.158 470.99C101.078 470.977 101.578 470.97 101.658 470.97C101.858 470.97 102.005 470.85 102.098 470.61C102.165 470.437 102.198 470.197 102.198 469.89C102.198 469.05 101.945 468.63 101.438 468.63C101.251 468.63 101.065 468.73 100.878 468.93C100.705 469.13 100.551 469.417 100.418 469.79C100.285 470.15 100.198 470.55 100.158 470.99ZM112.212 474.45C112.212 475.25 112.046 475.81 111.712 476.13C111.379 476.437 110.786 476.59 109.932 476.59C109.146 476.59 108.612 476.41 108.332 476.05C108.052 475.677 107.912 475.07 107.912 474.23V469.31C107.912 468.857 107.992 468.464 108.152 468.13C108.312 467.784 108.546 467.517 108.852 467.33C109.159 467.144 109.519 467.05 109.932 467.05C110.946 467.05 111.612 467.344 111.932 467.93C112.706 467.344 113.452 467.05 114.172 467.05C115.572 467.05 116.272 467.717 116.272 469.05C116.272 469.584 116.119 470.017 115.812 470.35C115.506 470.684 115.106 470.85 114.612 470.85C114.319 470.85 114.079 470.79 113.892 470.67C113.719 470.55 113.552 470.43 113.392 470.31C113.246 470.19 113.072 470.13 112.872 470.13C112.579 470.13 112.359 470.23 112.212 470.43V474.45ZM122.455 476.71C120.829 476.71 119.482 476.29 118.415 475.45C117.362 474.61 116.835 473.464 116.835 472.01C116.835 470.437 117.355 469.197 118.395 468.29C119.449 467.37 120.802 466.91 122.455 466.91C124.015 466.91 125.155 467.19 125.875 467.75C126.609 468.297 126.975 469.05 126.975 470.01C126.975 470.197 126.949 470.377 126.895 470.55C126.855 470.724 126.782 470.897 126.675 471.07C126.582 471.23 126.449 471.384 126.275 471.53C126.115 471.664 125.929 471.79 125.715 471.91C125.502 472.017 125.249 472.104 124.955 472.17C124.662 472.224 124.349 472.25 124.015 472.25L121.195 472.27C121.329 472.697 121.569 473.037 121.915 473.29C122.262 473.53 122.702 473.65 123.235 473.65C123.809 473.65 124.395 473.577 124.995 473.43C125.249 473.364 125.522 473.257 125.815 473.11C126.122 472.964 126.342 472.89 126.475 472.89C126.702 472.89 126.875 472.957 126.995 473.09C127.129 473.224 127.195 473.39 127.195 473.59C127.195 473.83 127.089 474.124 126.875 474.47C126.662 474.804 126.362 475.144 125.975 475.49C125.602 475.824 125.102 476.11 124.475 476.35C123.849 476.59 123.175 476.71 122.455 476.71ZM121.095 470.99C122.015 470.977 122.515 470.97 122.595 470.97C122.795 470.97 122.942 470.85 123.035 470.61C123.102 470.437 123.135 470.197 123.135 469.89C123.135 469.05 122.882 468.63 122.375 468.63C122.189 468.63 122.002 468.73 121.815 468.93C121.642 469.13 121.489 469.417 121.355 469.79C121.222 470.15 121.135 470.55 121.095 470.99ZM139.51 473.59C139.51 474.67 139.33 475.444 138.97 475.91C138.61 476.364 138.057 476.59 137.31 476.59C136.457 476.59 135.87 476.324 135.55 475.79C134.683 476.417 133.637 476.73 132.41 476.73C131.37 476.73 130.503 476.304 129.81 475.45C129.117 474.584 128.77 473.404 128.77 471.91C128.77 470.39 129.11 469.184 129.79 468.29C130.47 467.384 131.343 466.93 132.41 466.93C133.37 466.93 134.27 467.237 135.11 467.85V465.29C135.11 464.477 135.31 463.877 135.71 463.49C136.11 463.09 136.643 462.89 137.31 462.89C138.043 462.89 138.59 463.037 138.95 463.33C139.323 463.624 139.51 464.217 139.51 465.11V473.59ZM135.15 473.71L135.13 469.97C134.903 469.597 134.61 469.41 134.25 469.41C134.023 469.41 133.817 469.537 133.63 469.79C133.457 470.044 133.323 470.357 133.23 470.73C133.137 471.104 133.09 471.497 133.09 471.91C133.09 472.524 133.19 473.07 133.39 473.55C133.59 474.03 133.87 474.27 134.23 474.27C134.297 474.27 134.363 474.264 134.43 474.25C134.497 474.237 134.557 474.224 134.61 474.21C134.663 474.184 134.717 474.157 134.77 474.13C134.823 474.09 134.87 474.05 134.91 474.01C134.95 473.97 134.99 473.924 135.03 473.87C135.07 473.817 135.11 473.764 135.15 473.71ZM71.3752 495.59C71.3752 496.67 71.1952 497.444 70.8352 497.91C70.4752 498.364 69.9218 498.59 69.1752 498.59C68.3218 498.59 67.7352 498.324 67.4152 497.79C66.5485 498.417 65.5018 498.73 64.2752 498.73C63.2352 498.73 62.3685 498.304 61.6752 497.45C60.9818 496.584 60.6352 495.404 60.6352 493.91C60.6352 492.39 60.9752 491.184 61.6552 490.29C62.3352 489.384 63.2085 488.93 64.2752 488.93C65.2352 488.93 66.1352 489.237 66.9752 489.85V487.29C66.9752 486.477 67.1752 485.877 67.5752 485.49C67.9752 485.09 68.5085 484.89 69.1752 484.89C69.9085 484.89 70.4552 485.037 70.8152 485.33C71.1885 485.624 71.3752 486.217 71.3752 487.11V495.59ZM67.0152 495.71L66.9952 491.97C66.7685 491.597 66.4752 491.41 66.1152 491.41C65.8885 491.41 65.6818 491.537 65.4952 491.79C65.3218 492.044 65.1885 492.357 65.0952 492.73C65.0018 493.104 64.9552 493.497 64.9552 493.91C64.9552 494.524 65.0552 495.07 65.2552 495.55C65.4552 496.03 65.7352 496.27 66.0952 496.27C66.1618 496.27 66.2285 496.264 66.2952 496.25C66.3618 496.237 66.4218 496.224 66.4752 496.21C66.5285 496.184 66.5818 496.157 66.6352 496.13C66.6885 496.09 66.7352 496.05 66.7752 496.01C66.8152 495.97 66.8552 495.924 66.8952 495.87C66.9352 495.817 66.9752 495.764 67.0152 495.71ZM78.7152 498.71C77.0885 498.71 75.7418 498.29 74.6752 497.45C73.6218 496.61 73.0952 495.464 73.0952 494.01C73.0952 492.437 73.6152 491.197 74.6552 490.29C75.7085 489.37 77.0618 488.91 78.7152 488.91C80.2752 488.91 81.4152 489.19 82.1352 489.75C82.8685 490.297 83.2352 491.05 83.2352 492.01C83.2352 492.197 83.2085 492.377 83.1552 492.55C83.1152 492.724 83.0418 492.897 82.9352 493.07C82.8418 493.23 82.7085 493.384 82.5352 493.53C82.3752 493.664 82.1885 493.79 81.9752 493.91C81.7618 494.017 81.5085 494.104 81.2152 494.17C80.9218 494.224 80.6085 494.25 80.2752 494.25L77.4552 494.27C77.5885 494.697 77.8285 495.037 78.1752 495.29C78.5218 495.53 78.9618 495.65 79.4952 495.65C80.0685 495.65 80.6552 495.577 81.2552 495.43C81.5085 495.364 81.7818 495.257 82.0752 495.11C82.3818 494.964 82.6018 494.89 82.7352 494.89C82.9618 494.89 83.1352 494.957 83.2552 495.09C83.3885 495.224 83.4552 495.39 83.4552 495.59C83.4552 495.83 83.3485 496.124 83.1352 496.47C82.9218 496.804 82.6218 497.144 82.2352 497.49C81.8618 497.824 81.3618 498.11 80.7352 498.35C80.1085 498.59 79.4352 498.71 78.7152 498.71ZM77.3552 492.99C78.2752 492.977 78.7752 492.97 78.8552 492.97C79.0552 492.97 79.2018 492.85 79.2952 492.61C79.3618 492.437 79.3952 492.197 79.3952 491.89C79.3952 491.05 79.1418 490.63 78.6352 490.63C78.4485 490.63 78.2618 490.73 78.0752 490.93C77.9018 491.13 77.7485 491.417 77.6152 491.79C77.4818 492.15 77.3952 492.55 77.3552 492.99ZM89.8097 488.91C91.0497 488.91 92.083 489.164 92.9097 489.67C93.7364 490.177 94.1497 490.73 94.1497 491.33C94.1497 491.504 94.0764 491.664 93.9297 491.81C93.783 491.957 93.5964 492.03 93.3697 492.03C93.1697 492.03 92.9497 491.964 92.7097 491.83C92.4697 491.684 92.243 491.53 92.0297 491.37C91.8164 491.21 91.5364 491.064 91.1897 490.93C90.843 490.797 90.4764 490.73 90.0897 490.73C89.5697 490.73 89.3097 490.89 89.3097 491.21C89.3097 491.437 89.443 491.617 89.7097 491.75C89.9764 491.884 90.363 492.024 90.8697 492.17C91.3897 492.317 91.783 492.457 92.0497 492.59C93.0497 492.977 93.7364 493.397 94.1097 493.85C94.483 494.29 94.6697 494.877 94.6697 495.61C94.6697 495.97 94.5697 496.33 94.3697 496.69C94.1697 497.037 93.8697 497.37 93.4697 497.69C93.0697 497.997 92.523 498.25 91.8297 498.45C91.1497 498.637 90.3697 498.73 89.4897 498.73C87.7697 498.73 86.483 498.337 85.6297 497.55C85.2164 497.164 85.0097 496.764 85.0097 496.35C85.0097 496.097 85.0897 495.897 85.2497 495.75C85.423 495.604 85.663 495.53 85.9697 495.53C86.2764 495.53 86.743 495.684 87.3697 495.99C87.9964 496.284 88.5764 496.43 89.1097 496.43C89.843 496.43 90.2097 496.25 90.2097 495.89C90.2097 495.704 90.0164 495.557 89.6297 495.45C89.243 495.33 88.7364 495.19 88.1097 495.03C87.483 494.87 86.983 494.67 86.6097 494.43C86.023 494.177 85.6097 493.864 85.3697 493.49C85.143 493.104 85.0297 492.637 85.0297 492.09C85.0297 491.157 85.4697 490.397 86.3497 489.81C87.243 489.21 88.3964 488.91 89.8097 488.91ZM96.2802 486.27C96.2802 485.83 96.4668 485.47 96.8402 485.19C97.2268 484.897 97.7668 484.75 98.4602 484.75C99.9135 484.75 100.64 485.257 100.64 486.27C100.64 486.83 100.453 487.224 100.08 487.45C99.7202 487.677 99.1802 487.79 98.4602 487.79C97.8335 487.79 97.3135 487.67 96.9002 487.43C96.4868 487.19 96.2802 486.804 96.2802 486.27ZM100.62 496.45C100.62 497.25 100.453 497.81 100.12 498.13C99.7868 498.437 99.2002 498.59 98.3602 498.59C97.5735 498.59 97.0335 498.41 96.7402 498.05C96.4602 497.677 96.3202 497.07 96.3202 496.23V491.31C96.3202 490.63 96.5002 490.084 96.8602 489.67C97.2335 489.257 97.7268 489.05 98.3402 489.05C99.0602 489.05 99.6202 489.21 100.02 489.53C100.42 489.837 100.62 490.41 100.62 491.25V496.45ZM106.074 498.71C105.021 498.71 104.147 498.284 103.454 497.43C102.761 496.564 102.414 495.377 102.414 493.87C102.414 492.35 102.754 491.144 103.434 490.25C104.114 489.357 104.987 488.91 106.054 488.91C107.134 488.91 108.134 489.284 109.054 490.03C109.401 489.377 109.974 489.05 110.774 489.05C111.494 489.05 112.054 489.21 112.454 489.53C112.867 489.85 113.074 490.424 113.074 491.25V494.91C113.074 496.204 112.987 497.317 112.814 498.25C112.654 499.17 112.367 499.984 111.954 500.69C111.554 501.397 110.994 501.924 110.274 502.27C109.567 502.617 108.694 502.79 107.654 502.79C106.934 502.79 106.267 502.69 105.654 502.49C105.041 502.29 104.554 502.044 104.194 501.75C103.834 501.457 103.554 501.164 103.354 500.87C103.154 500.577 103.054 500.324 103.054 500.11C103.054 499.857 103.127 499.644 103.274 499.47C103.421 499.297 103.627 499.21 103.894 499.21C104.054 499.21 104.454 499.384 105.094 499.73C105.747 500.077 106.274 500.25 106.674 500.25C108.034 500.25 108.714 499.55 108.714 498.15C107.941 498.524 107.061 498.71 106.074 498.71ZM108.794 495.71L108.774 491.93C108.547 491.557 108.261 491.37 107.914 491.37C107.674 491.37 107.461 491.497 107.274 491.75C107.101 492.004 106.967 492.317 106.874 492.69C106.794 493.064 106.754 493.457 106.754 493.87C106.754 494.497 106.854 495.05 107.054 495.53C107.254 495.997 107.534 496.23 107.894 496.23C108.254 496.23 108.554 496.057 108.794 495.71ZM121.054 493.21C121.054 492.464 120.761 492.09 120.174 492.09C119.894 492.09 119.661 492.21 119.474 492.45C119.301 492.677 119.201 492.984 119.174 493.37V496.45C119.174 497.264 119.008 497.824 118.674 498.13C118.341 498.437 117.754 498.59 116.914 498.59C116.128 498.59 115.588 498.41 115.294 498.05C115.014 497.677 114.874 497.07 114.874 496.23V491.31C114.874 490.63 115.054 490.084 115.414 489.67C115.788 489.257 116.281 489.05 116.894 489.05C117.401 489.05 117.828 489.124 118.174 489.27C118.521 489.417 118.781 489.67 118.954 490.03C119.994 489.35 121.261 489.01 122.754 489.01C123.701 489.01 124.381 489.384 124.794 490.13C125.221 490.877 125.434 492.104 125.434 493.81C125.434 494.65 125.414 495.337 125.374 495.87C125.334 496.39 125.268 496.844 125.174 497.23C125.094 497.604 124.961 497.884 124.774 498.07C124.588 498.257 124.368 498.39 124.114 498.47C123.874 498.55 123.561 498.59 123.174 498.59C122.428 498.59 121.888 498.45 121.554 498.17C121.234 497.89 121.074 497.477 121.074 496.93L121.054 493.21Z" fill="black"/>
</svg>
