<svg width="203" height="700" viewBox="0 0 203 700" fill="none" xmlns="http://www.w3.org/2000/svg">
<path d="M131.559 38.6411C131.559 26.3045 119.96 21.7014 103.126 21.1933V21.1445C102.574 21.1445 102.028 21.1489 101.486 21.1567C100.944 21.1489 100.397 21.1445 99.8458 21.1445V21.1933C83.0115 21.7014 71.4139 26.3045 71.4139 38.6411C71.4139 51.7638 67.04 74.7289 68.1328 90.038C69.2265 105.348 73.6004 105.348 73.6004 105.348H99.8458H103.127H129.372C129.372 105.348 133.746 105.348 134.84 90.038C135.933 74.728 131.559 51.7638 131.559 38.6411Z" fill="#87A572"/>
<path d="M129.372 105.348H102.033H100.94H73.6005C73.6005 105.348 71.4131 185.178 58.2904 239.855C58.2904 239.855 91.0971 252.978 99.8458 269.381C99.8458 269.381 123.904 244.23 144.681 239.855C131.559 185.178 129.372 105.348 129.372 105.348Z" fill="#629041"/>
<path d="M73.6004 105.348H99.8458H103.127H129.372C129.372 105.348 133.746 105.348 134.84 90.038C135.933 74.728 131.559 51.7638 131.559 38.6411C131.559 26.3045 119.96 21.7014 103.126 21.1933V21.1445C102.574 21.1445 102.028 21.1489 101.486 21.1567C100.944 21.1489 100.397 21.1445 99.8458 21.1445V21.1933C93.8875 21.3729 88.5898 22.0692 84.2254 23.4365C86.2124 23.501 88.2256 23.4993 90.1559 23.7197C102.466 25.1263 111.848 36.3857 114.872 48.4016C117.895 60.4175 115.851 73.0739 113.447 85.2293C112.605 89.4864 110.26 94.8564 105.957 94.2891C102.503 93.8333 100.028 89.4054 96.6352 90.201C94.135 90.7875 93.1938 93.8612 93.1493 96.4294C90.378 97.8334 87.395 94.6455 86.6185 91.6381C85.842 88.6306 85.8342 85.1134 83.5457 83.0114C81.0567 84.1817 80.432 87.3923 80.2873 90.1383C80.1427 92.8843 79.9858 96.0198 77.8454 97.7462C75.7042 99.4726 71.4052 97.2573 72.7447 94.8547C71.0462 93.9013 68.8605 95.944 69.1663 97.7009C69.1707 97.7236 69.176 97.7462 69.1812 97.768C69.2318 98.0051 69.3241 98.2369 69.4749 98.4539C69.4478 98.5219 69.42 98.5916 69.3921 98.6595C71.0845 105.341 73.6004 105.348 73.6004 105.348Z" fill="#346610"/>
<path d="M99.9486 234.79C76.6193 234.79 66.898 258.119 72.7308 279.505C78.5636 300.89 123.278 297.002 129.111 275.616C134.944 254.23 121.335 234.79 99.9486 234.79Z" fill="#EDD4C5"/>
<path d="M100.212 244.229C84.3544 244.229 77.7478 260.086 81.7113 274.621C85.6756 289.157 116.068 286.514 120.033 271.978C123.998 257.444 114.748 244.229 100.212 244.229Z" fill="#346610"/>
<path d="M188.424 388.578C179.675 336.087 157.805 294.532 144.682 239.854H58.2913C45.1686 294.533 23.2972 336.087 14.5494 388.578C5.80065 441.068 12.3621 637.908 12.3621 656.498C12.3621 675.089 22.2045 677.276 28.7658 678.37C34.9821 679.406 95.1643 678.479 101.487 678.379C107.81 678.479 167.992 679.406 174.208 678.37C180.769 677.276 190.612 675.089 190.612 656.498C190.611 637.908 197.172 441.068 188.424 388.578Z" fill="#C42A22"/>
<path d="M20.9025 494.226V613.965H181.648V495.867L20.9025 494.226Z" fill="#F8F2F6"/>
<path d="M20.9025 494.226L181.648 495.867V507.349H20.9025V494.226Z" fill="#346610"/>
<path opacity="0.41" d="M92.1907 258.445C92.1907 258.445 86.7232 334.994 85.6295 352.491C84.5358 369.988 81.2555 654.312 81.2555 654.312H27.6711C27.6711 654.312 24.39 482.624 25.4837 438.882C26.5774 395.14 29.8576 367.801 41.8866 329.527C53.9156 291.253 65.9446 244.23 65.9446 244.23C70.3185 222.358 80.1609 129.406 77.9735 110.816H95.4701L92.1907 258.445Z" fill="white"/>
<path d="M55.333 547.205C55.333 546.925 55.213 546.685 54.973 546.485C54.7464 546.285 54.473 546.185 54.153 546.185C53.513 546.185 52.9864 546.551 52.573 547.285C52.1597 548.005 51.953 548.825 51.953 549.745C51.953 550.451 52.0864 551.091 52.353 551.665C52.6197 552.225 53.0064 552.671 53.513 553.005C54.0197 553.338 54.6064 553.505 55.273 553.505C55.7664 553.505 56.2397 553.411 56.693 553.225C57.1464 553.025 57.513 552.811 57.793 552.585C58.073 552.345 58.3597 552.131 58.653 551.945C58.9597 551.745 59.2264 551.645 59.453 551.645C59.7464 551.645 59.9997 551.765 60.213 552.005C60.4264 552.231 60.533 552.471 60.533 552.725C60.533 553.005 60.4464 553.331 60.273 553.705C60.113 554.078 59.853 554.478 59.493 554.905C59.133 555.318 58.713 555.705 58.233 556.065C57.753 556.411 57.153 556.705 56.433 556.945C55.7264 557.171 54.9797 557.285 54.193 557.285C53.153 557.285 52.1864 557.131 51.293 556.825C50.413 556.505 49.6464 556.058 48.993 555.485C48.3397 554.898 47.8264 554.165 47.453 553.285C47.0797 552.405 46.893 551.418 46.893 550.325C46.893 548.165 47.5397 546.458 48.833 545.205C50.1264 543.951 51.8197 543.325 53.913 543.325C54.9797 543.325 55.9664 543.505 56.873 543.865C57.7797 544.225 58.4997 544.725 59.033 545.365C59.5664 546.005 59.833 546.705 59.833 547.465C59.833 548.345 59.5397 549.145 58.953 549.865C58.3664 550.571 57.6064 550.925 56.673 550.925C56.1397 550.925 55.6597 550.778 55.233 550.485C54.8064 550.191 54.593 549.771 54.593 549.225C54.593 548.971 54.713 548.618 54.953 548.165C55.2064 547.711 55.333 547.391 55.333 547.205ZM67.7716 543.305C69.3583 543.305 70.7116 543.631 71.8316 544.285C72.9516 544.938 73.5116 545.631 73.5116 546.365C73.5116 546.565 73.465 546.738 73.3716 546.885C73.2916 547.018 73.185 547.118 73.0516 547.185C72.9316 547.238 72.7983 547.265 72.6516 547.265C72.4116 547.265 72.0516 547.145 71.5716 546.905C71.0916 546.651 70.5583 546.405 69.9716 546.165C69.385 545.911 68.845 545.785 68.3516 545.785C67.565 545.785 67.1716 546.105 67.1716 546.745C67.1716 546.945 67.2316 547.138 67.3516 547.325C67.485 547.498 67.6916 547.685 67.9716 547.885C68.2516 548.071 68.525 548.238 68.7916 548.385C69.0583 548.531 69.425 548.731 69.8916 548.985C70.3583 549.225 70.7516 549.438 71.0716 549.625C72.0983 550.211 72.8183 550.771 73.2316 551.305C73.645 551.838 73.8516 552.451 73.8516 553.145C73.8516 555.905 71.9916 557.285 68.2716 557.285C67.5383 557.285 66.825 557.211 66.1316 557.065C65.4516 556.918 64.8516 556.725 64.3316 556.485C63.825 556.245 63.3716 555.978 62.9716 555.685C62.585 555.391 62.2916 555.091 62.0916 554.785C61.8916 554.478 61.7916 554.191 61.7916 553.925C61.7916 553.631 61.885 553.385 62.0716 553.185C62.2716 552.971 62.5583 552.865 62.9316 552.865C63.2116 552.865 63.885 553.045 64.9516 553.405C66.0183 553.751 66.8783 553.925 67.5316 553.925C68.1316 553.925 68.4316 553.718 68.4316 553.305C68.4316 553.185 68.405 553.078 68.3516 552.985C68.3116 552.878 68.2316 552.778 68.1116 552.685C68.005 552.578 67.8783 552.485 67.7316 552.405C67.5983 552.311 67.405 552.198 67.1516 552.065C66.9116 551.931 66.665 551.798 66.4116 551.665C66.1716 551.531 65.8516 551.358 65.4516 551.145C65.0516 550.931 64.665 550.718 64.2916 550.505C63.7983 550.225 63.3716 549.878 63.0116 549.465C62.665 549.051 62.4116 548.645 62.2516 548.245C62.0916 547.831 62.0116 547.451 62.0116 547.105C62.0116 545.985 62.5116 545.071 63.5116 544.365C64.5116 543.658 65.9316 543.305 67.7716 543.305ZM81.6584 543.305C83.245 543.305 84.5984 543.631 85.7184 544.285C86.8384 544.938 87.3984 545.631 87.3984 546.365C87.3984 546.565 87.3517 546.738 87.2584 546.885C87.1784 547.018 87.0717 547.118 86.9384 547.185C86.8184 547.238 86.685 547.265 86.5384 547.265C86.2984 547.265 85.9384 547.145 85.4584 546.905C84.9784 546.651 84.445 546.405 83.8584 546.165C83.2717 545.911 82.7317 545.785 82.2384 545.785C81.4517 545.785 81.0584 546.105 81.0584 546.745C81.0584 546.945 81.1184 547.138 81.2384 547.325C81.3717 547.498 81.5784 547.685 81.8584 547.885C82.1384 548.071 82.4117 548.238 82.6784 548.385C82.945 548.531 83.3117 548.731 83.7784 548.985C84.245 549.225 84.6384 549.438 84.9584 549.625C85.985 550.211 86.705 550.771 87.1184 551.305C87.5317 551.838 87.7384 552.451 87.7384 553.145C87.7384 555.905 85.8784 557.285 82.1584 557.285C81.425 557.285 80.7117 557.211 80.0184 557.065C79.3384 556.918 78.7384 556.725 78.2184 556.485C77.7117 556.245 77.2584 555.978 76.8584 555.685C76.4717 555.391 76.1784 555.091 75.9784 554.785C75.7784 554.478 75.6784 554.191 75.6784 553.925C75.6784 553.631 75.7717 553.385 75.9584 553.185C76.1584 552.971 76.445 552.865 76.8184 552.865C77.0984 552.865 77.7717 553.045 78.8384 553.405C79.905 553.751 80.765 553.925 81.4184 553.925C82.0184 553.925 82.3184 553.718 82.3184 553.305C82.3184 553.185 82.2917 553.078 82.2384 552.985C82.1984 552.878 82.1184 552.778 81.9984 552.685C81.8917 552.578 81.765 552.485 81.6184 552.405C81.485 552.311 81.2917 552.198 81.0384 552.065C80.7984 551.931 80.5517 551.798 80.2984 551.665C80.0584 551.531 79.7384 551.358 79.3384 551.145C78.9384 550.931 78.5517 550.718 78.1784 550.505C77.685 550.225 77.2584 549.878 76.8984 549.465C76.5517 549.051 76.2984 548.645 76.1384 548.245C75.9784 547.831 75.8984 547.451 75.8984 547.105C75.8984 545.985 76.3984 545.071 77.3984 544.365C78.3984 543.658 79.8184 543.305 81.6584 543.305ZM96.0157 552.865V550.505C95.6824 550.491 95.4157 550.438 95.2157 550.345C95.0157 550.238 94.869 550.105 94.7757 549.945C94.6957 549.785 94.6557 549.585 94.6557 549.345C94.6557 548.585 95.1157 548.171 96.0357 548.105V546.245C96.0357 545.738 96.4024 545.285 97.1357 544.885C97.869 544.471 98.5957 544.265 99.3157 544.265C99.7557 544.265 100.042 544.391 100.176 544.645C100.309 544.898 100.376 545.278 100.376 545.785L100.396 548.085H100.936C101.669 548.085 102.169 548.185 102.436 548.385C102.716 548.571 102.856 548.918 102.856 549.425C102.856 549.638 102.816 549.818 102.736 549.965C102.656 550.111 102.522 550.225 102.336 550.305C102.162 550.385 101.949 550.445 101.696 550.485C101.442 550.511 101.129 550.525 100.756 550.525H100.396V552.725C100.396 552.938 100.402 553.118 100.416 553.265C100.442 553.398 100.476 553.505 100.516 553.585C100.556 553.665 100.609 553.718 100.676 553.745C100.756 553.771 100.849 553.785 100.956 553.785C101.116 553.785 101.249 553.731 101.356 553.625C101.462 553.505 101.542 553.378 101.596 553.245C101.662 553.098 101.742 552.971 101.836 552.865C101.942 552.745 102.062 552.685 102.196 552.685C102.502 552.685 102.736 552.758 102.896 552.905C103.069 553.051 103.156 553.231 103.156 553.445C103.156 553.805 103.082 554.191 102.936 554.605C102.802 555.018 102.602 555.418 102.336 555.805C102.069 556.191 101.696 556.511 101.216 556.765C100.749 557.018 100.222 557.145 99.6357 557.145C98.3157 557.145 97.3824 556.811 96.8357 556.145C96.289 555.478 96.0157 554.385 96.0157 552.865ZM111.105 552.405C111.105 551.711 111.018 551.105 110.845 550.585C110.671 550.051 110.418 549.785 110.085 549.785C109.858 549.785 109.658 549.918 109.485 550.185C109.311 550.451 109.185 550.778 109.105 551.165C109.025 551.551 108.985 551.965 108.985 552.405C108.985 553.085 109.078 553.685 109.265 554.205C109.451 554.711 109.718 554.965 110.065 554.965C110.411 554.965 110.671 554.711 110.845 554.205C111.018 553.698 111.105 553.098 111.105 552.405ZM110.065 557.285C109.025 557.285 108.085 557.098 107.245 556.725C106.418 556.351 105.751 555.791 105.245 555.045C104.751 554.298 104.505 553.425 104.505 552.425C104.505 550.905 105.025 549.698 106.065 548.805C107.105 547.911 108.438 547.465 110.065 547.465C111.691 547.465 113.018 547.911 114.045 548.805C115.071 549.698 115.585 550.905 115.585 552.425C115.585 553.931 115.058 555.118 114.005 555.985C112.965 556.851 111.651 557.285 110.065 557.285ZM123.652 552.865V550.505C123.319 550.491 123.052 550.438 122.852 550.345C122.652 550.238 122.506 550.105 122.412 549.945C122.332 549.785 122.292 549.585 122.292 549.345C122.292 548.585 122.752 548.171 123.672 548.105V546.245C123.672 545.738 124.039 545.285 124.772 544.885C125.506 544.471 126.232 544.265 126.952 544.265C127.392 544.265 127.679 544.391 127.812 544.645C127.946 544.898 128.012 545.278 128.012 545.785L128.032 548.085H128.572C129.306 548.085 129.806 548.185 130.072 548.385C130.352 548.571 130.492 548.918 130.492 549.425C130.492 549.638 130.452 549.818 130.372 549.965C130.292 550.111 130.159 550.225 129.972 550.305C129.799 550.385 129.586 550.445 129.332 550.485C129.079 550.511 128.766 550.525 128.392 550.525H128.032V552.725C128.032 552.938 128.039 553.118 128.052 553.265C128.079 553.398 128.112 553.505 128.152 553.585C128.192 553.665 128.246 553.718 128.312 553.745C128.392 553.771 128.486 553.785 128.592 553.785C128.752 553.785 128.886 553.731 128.992 553.625C129.099 553.505 129.179 553.378 129.232 553.245C129.299 553.098 129.379 552.971 129.472 552.865C129.579 552.745 129.699 552.685 129.832 552.685C130.139 552.685 130.372 552.758 130.532 552.905C130.706 553.051 130.792 553.231 130.792 553.445C130.792 553.805 130.719 554.191 130.572 554.605C130.439 555.018 130.239 555.418 129.972 555.805C129.706 556.191 129.332 556.511 128.852 556.765C128.386 557.018 127.859 557.145 127.272 557.145C125.952 557.145 125.019 556.811 124.472 556.145C123.926 555.478 123.652 554.385 123.652 552.865ZM138.932 551.785C138.932 551.025 138.639 550.645 138.052 550.645C137.945 550.645 137.845 550.658 137.752 550.685C137.672 550.711 137.592 550.745 137.512 550.785C137.445 550.825 137.379 550.885 137.312 550.965C137.259 551.031 137.205 551.111 137.152 551.205C137.112 551.285 137.079 551.385 137.052 551.505C137.039 551.625 137.032 551.758 137.032 551.905V554.105C137.032 555.198 136.852 555.978 136.492 556.445C136.145 556.898 135.612 557.125 134.892 557.125C134.145 557.125 133.599 556.918 133.252 556.505C132.905 556.078 132.732 555.331 132.732 554.265L132.692 545.745C132.692 544.918 132.892 544.311 133.292 543.925C133.692 543.538 134.225 543.345 134.892 543.345C135.599 543.345 136.132 543.491 136.492 543.785C136.852 544.078 137.032 544.671 137.032 545.565V548.465C138.019 547.865 139.219 547.565 140.632 547.565C141.272 547.565 141.785 547.731 142.172 548.065C142.559 548.385 142.845 548.898 143.032 549.605C143.219 550.311 143.312 551.238 143.312 552.385C143.312 552.971 143.299 553.478 143.272 553.905C143.259 554.331 143.232 554.725 143.192 555.085C143.152 555.431 143.092 555.718 143.012 555.945C142.932 556.171 142.839 556.365 142.732 556.525C142.625 556.685 142.485 556.811 142.312 556.905C142.152 556.985 141.972 557.045 141.772 557.085C141.572 557.125 141.332 557.145 141.052 557.145C140.305 557.145 139.765 557.011 139.432 556.745C139.112 556.465 138.952 556.045 138.952 555.485L138.932 551.785ZM150.652 557.265C149.026 557.265 147.679 556.845 146.612 556.005C145.559 555.165 145.032 554.018 145.032 552.565C145.032 550.991 145.552 549.751 146.592 548.845C147.646 547.925 148.999 547.465 150.652 547.465C152.212 547.465 153.352 547.745 154.072 548.305C154.806 548.851 155.172 549.605 155.172 550.565C155.172 550.751 155.146 550.931 155.092 551.105C155.052 551.278 154.979 551.451 154.872 551.625C154.779 551.785 154.646 551.938 154.472 552.085C154.312 552.218 154.126 552.345 153.912 552.465C153.699 552.571 153.446 552.658 153.152 552.725C152.859 552.778 152.546 552.805 152.212 552.805L149.392 552.825C149.526 553.251 149.766 553.591 150.112 553.845C150.459 554.085 150.899 554.205 151.432 554.205C152.006 554.205 152.592 554.131 153.192 553.985C153.446 553.918 153.719 553.811 154.012 553.665C154.319 553.518 154.539 553.445 154.672 553.445C154.899 553.445 155.072 553.511 155.192 553.645C155.326 553.778 155.392 553.945 155.392 554.145C155.392 554.385 155.286 554.678 155.072 555.025C154.859 555.358 154.559 555.698 154.172 556.045C153.799 556.378 153.299 556.665 152.672 556.905C152.046 557.145 151.372 557.265 150.652 557.265ZM149.292 551.545C150.212 551.531 150.712 551.525 150.792 551.525C150.992 551.525 151.139 551.405 151.232 551.165C151.299 550.991 151.332 550.751 151.332 550.445C151.332 549.605 151.079 549.185 150.572 549.185C150.386 549.185 150.199 549.285 150.012 549.485C149.839 549.685 149.686 549.971 149.552 550.345C149.419 550.705 149.332 551.105 149.292 551.545ZM72.0501 577.005C72.0501 577.805 71.8834 578.365 71.5501 578.685C71.2167 578.991 70.6234 579.145 69.7701 579.145C68.9834 579.145 68.4501 578.965 68.1701 578.605C67.8901 578.231 67.7501 577.625 67.7501 576.785V571.865C67.7501 571.411 67.8301 571.018 67.9901 570.685C68.1501 570.338 68.3834 570.071 68.6901 569.885C68.9967 569.698 69.3567 569.605 69.7701 569.605C70.7834 569.605 71.4501 569.898 71.7701 570.485C72.5434 569.898 73.2901 569.605 74.0101 569.605C75.4101 569.605 76.1101 570.271 76.1101 571.605C76.1101 572.138 75.9567 572.571 75.6501 572.905C75.3434 573.238 74.9434 573.405 74.4501 573.405C74.1567 573.405 73.9167 573.345 73.7301 573.225C73.5567 573.105 73.3901 572.985 73.2301 572.865C73.0834 572.745 72.9101 572.685 72.7101 572.685C72.4167 572.685 72.1967 572.785 72.0501 572.985V577.005ZM82.293 579.265C80.6664 579.265 79.3197 578.845 78.253 578.005C77.1997 577.165 76.673 576.018 76.673 574.565C76.673 572.991 77.193 571.751 78.233 570.845C79.2864 569.925 80.6397 569.465 82.293 569.465C83.853 569.465 84.993 569.745 85.713 570.305C86.4464 570.851 86.813 571.605 86.813 572.565C86.813 572.751 86.7864 572.931 86.733 573.105C86.693 573.278 86.6197 573.451 86.513 573.625C86.4197 573.785 86.2864 573.938 86.113 574.085C85.953 574.218 85.7664 574.345 85.553 574.465C85.3397 574.571 85.0864 574.658 84.793 574.725C84.4997 574.778 84.1864 574.805 83.853 574.805L81.033 574.825C81.1664 575.251 81.4064 575.591 81.753 575.845C82.0997 576.085 82.5397 576.205 83.073 576.205C83.6464 576.205 84.233 576.131 84.833 575.985C85.0864 575.918 85.3597 575.811 85.653 575.665C85.9597 575.518 86.1797 575.445 86.313 575.445C86.5397 575.445 86.713 575.511 86.833 575.645C86.9664 575.778 87.033 575.945 87.033 576.145C87.033 576.385 86.9264 576.678 86.713 577.025C86.4997 577.358 86.1997 577.698 85.813 578.045C85.4397 578.378 84.9397 578.665 84.313 578.905C83.6864 579.145 83.013 579.265 82.293 579.265ZM80.933 573.545C81.853 573.531 82.353 573.525 82.433 573.525C82.633 573.525 82.7797 573.405 82.873 573.165C82.9397 572.991 82.973 572.751 82.973 572.445C82.973 571.605 82.7197 571.185 82.213 571.185C82.0264 571.185 81.8397 571.285 81.653 571.485C81.4797 571.685 81.3264 571.971 81.193 572.345C81.0597 572.705 80.973 573.105 80.933 573.545ZM93.3876 569.465C94.6276 569.465 95.6609 569.718 96.4876 570.225C97.3142 570.731 97.7276 571.285 97.7276 571.885C97.7276 572.058 97.6542 572.218 97.5076 572.365C97.3609 572.511 97.1742 572.585 96.9476 572.585C96.7476 572.585 96.5276 572.518 96.2876 572.385C96.0476 572.238 95.8209 572.085 95.6076 571.925C95.3942 571.765 95.1142 571.618 94.7676 571.485C94.4209 571.351 94.0542 571.285 93.6676 571.285C93.1476 571.285 92.8876 571.445 92.8876 571.765C92.8876 571.991 93.0209 572.171 93.2876 572.305C93.5542 572.438 93.9409 572.578 94.4476 572.725C94.9676 572.871 95.3609 573.011 95.6276 573.145C96.6276 573.531 97.3142 573.951 97.6876 574.405C98.0609 574.845 98.2476 575.431 98.2476 576.165C98.2476 576.525 98.1476 576.885 97.9476 577.245C97.7476 577.591 97.4476 577.925 97.0476 578.245C96.6476 578.551 96.1009 578.805 95.4076 579.005C94.7276 579.191 93.9476 579.285 93.0676 579.285C91.3476 579.285 90.0609 578.891 89.2076 578.105C88.7942 577.718 88.5876 577.318 88.5876 576.905C88.5876 576.651 88.6676 576.451 88.8276 576.305C89.0009 576.158 89.2409 576.085 89.5476 576.085C89.8542 576.085 90.3209 576.238 90.9476 576.545C91.5742 576.838 92.1542 576.985 92.6876 576.985C93.4209 576.985 93.7876 576.805 93.7876 576.445C93.7876 576.258 93.5942 576.111 93.2076 576.005C92.8209 575.885 92.3142 575.745 91.6876 575.585C91.0609 575.425 90.5609 575.225 90.1876 574.985C89.6009 574.731 89.1876 574.418 88.9476 574.045C88.7209 573.658 88.6076 573.191 88.6076 572.645C88.6076 571.711 89.0476 570.951 89.9276 570.365C90.8209 569.765 91.9742 569.465 93.3876 569.465ZM105.643 571.665C105.643 571.358 105.469 571.205 105.123 571.205C104.869 571.205 104.643 571.345 104.443 571.625C104.243 571.905 104.089 572.258 103.983 572.685C103.876 573.098 103.823 573.531 103.823 573.985C103.823 574.651 104.023 575.191 104.423 575.605C104.836 576.018 105.389 576.225 106.083 576.225C106.763 576.225 107.349 576.145 107.843 575.985C108.043 575.931 108.283 575.831 108.563 575.685C108.856 575.538 109.063 575.465 109.183 575.465C109.369 575.465 109.523 575.498 109.643 575.565C109.763 575.631 109.843 575.711 109.883 575.805C109.936 575.898 109.963 575.998 109.963 576.105C109.963 576.291 109.896 576.518 109.763 576.785C109.643 577.051 109.449 577.331 109.183 577.625C108.916 577.918 108.603 578.191 108.243 578.445C107.896 578.685 107.463 578.885 106.943 579.045C106.423 579.205 105.876 579.285 105.303 579.285C103.649 579.285 102.289 578.845 101.223 577.965C100.156 577.071 99.6227 575.851 99.6227 574.305C99.6227 573.318 99.8627 572.458 100.343 571.725C100.836 570.978 101.509 570.418 102.363 570.045C103.216 569.658 104.196 569.465 105.303 569.465C106.356 569.465 107.223 569.591 107.903 569.845C108.596 570.085 109.089 570.411 109.383 570.825C109.676 571.238 109.823 571.731 109.823 572.305C109.823 572.558 109.769 572.818 109.663 573.085C109.569 573.351 109.416 573.618 109.203 573.885C109.003 574.151 108.703 574.371 108.303 574.545C107.903 574.705 107.436 574.785 106.903 574.785C106.663 574.785 106.463 574.771 106.303 574.745C106.156 574.718 105.996 574.665 105.823 574.585C105.663 574.491 105.543 574.345 105.463 574.145C105.383 573.945 105.343 573.691 105.343 573.385C105.343 573.118 105.389 572.798 105.483 572.425C105.589 572.038 105.643 571.785 105.643 571.665ZM116.075 574.925C116.075 575.685 116.369 576.065 116.955 576.065C117.155 576.065 117.329 576.005 117.475 575.885C117.635 575.751 117.755 575.571 117.835 575.345C117.915 575.118 117.955 574.858 117.955 574.565V571.885C117.955 571.431 118.035 571.038 118.195 570.705C118.355 570.358 118.589 570.091 118.895 569.905C119.202 569.718 119.562 569.625 119.975 569.625C120.695 569.625 121.255 569.785 121.655 570.105C122.055 570.411 122.255 570.985 122.255 571.825V577.025C122.255 577.838 122.089 578.398 121.755 578.705C121.422 579.011 120.835 579.165 119.995 579.165C119.635 579.165 119.329 579.131 119.075 579.065C118.822 578.985 118.615 578.871 118.455 578.725C118.309 578.578 118.195 578.385 118.115 578.145C117.569 578.505 116.989 578.758 116.375 578.905C115.775 579.051 115.102 579.125 114.355 579.125C113.409 579.125 112.729 578.758 112.315 578.025C111.902 577.278 111.695 576.058 111.695 574.365C111.695 573.525 111.715 572.845 111.755 572.325C111.795 571.791 111.855 571.338 111.935 570.965C112.029 570.578 112.162 570.291 112.335 570.105C112.522 569.918 112.735 569.785 112.975 569.705C113.229 569.625 113.555 569.585 113.955 569.585C114.702 569.585 115.235 569.725 115.555 570.005C115.889 570.285 116.055 570.705 116.055 571.265L116.075 574.925ZM129.695 579.265C128.069 579.265 126.722 578.845 125.655 578.005C124.602 577.165 124.075 576.018 124.075 574.565C124.075 572.991 124.595 571.751 125.635 570.845C126.689 569.925 128.042 569.465 129.695 569.465C131.255 569.465 132.395 569.745 133.115 570.305C133.849 570.851 134.215 571.605 134.215 572.565C134.215 572.751 134.189 572.931 134.135 573.105C134.095 573.278 134.022 573.451 133.915 573.625C133.822 573.785 133.689 573.938 133.515 574.085C133.355 574.218 133.169 574.345 132.955 574.465C132.742 574.571 132.489 574.658 132.195 574.725C131.902 574.778 131.589 574.805 131.255 574.805L128.435 574.825C128.569 575.251 128.809 575.591 129.155 575.845C129.502 576.085 129.942 576.205 130.475 576.205C131.049 576.205 131.635 576.131 132.235 575.985C132.489 575.918 132.762 575.811 133.055 575.665C133.362 575.518 133.582 575.445 133.715 575.445C133.942 575.445 134.115 575.511 134.235 575.645C134.369 575.778 134.435 575.945 134.435 576.145C134.435 576.385 134.329 576.678 134.115 577.025C133.902 577.358 133.602 577.698 133.215 578.045C132.842 578.378 132.342 578.665 131.715 578.905C131.089 579.145 130.415 579.265 129.695 579.265ZM128.335 573.545C129.255 573.531 129.755 573.525 129.835 573.525C130.035 573.525 130.182 573.405 130.275 573.165C130.342 572.991 130.375 572.751 130.375 572.445C130.375 571.605 130.122 571.185 129.615 571.185C129.429 571.185 129.242 571.285 129.055 571.485C128.882 571.685 128.729 571.971 128.595 572.345C128.462 572.705 128.375 573.105 128.335 573.545Z" fill="black"/>
</svg>
